<svg width="271" height="256" viewBox="0 0 271 256" fill="none" xmlns="http://www.w3.org/2000/svg">
<path d="M174 0C227.572 2.25493e-07 271 43.4284 271 97V159C271 212.572 227.572 256 174 256H97C43.4284 256 0 212.572 0 159V97C0 43.4284 43.4284 2.25493e-07 97 0H174ZM73.1143 41L61 129.196L73.085 216H198.915L211 129.196L198.915 41H162.241L136.355 85.0977L110.47 41H73.1143ZM155.55 85.9912C170.681 93.4112 181.143 109.331 181.143 127.773C181.143 145.925 171.008 161.634 156.261 169.199V215.97H116.45V169.199C101.703 161.634 91.5684 145.925 91.5684 127.773C91.5684 127.505 91.5718 127.238 91.5762 126.971C91.4733 120.926 92.6994 115.238 94.957 110.102C99.2071 99.5042 107.166 90.8941 117.161 85.9922V124.762L136.355 139.865L155.55 124.762V85.9912Z" fill="url(#paint0_linear_9088_84)"/>
<defs>
<linearGradient id="paint0_linear_9088_84" x1="249.166" y1="1.43638e-06" x2="80.1585" y2="289.951" gradientUnits="userSpaceOnUse">
<stop offset="0.2" stop-color="#862FE7"/>
<stop offset="0.802885" stop-color="#E81CFF"/>
</linearGradient>
</defs>
</svg>
