<svg width="899" height="270" viewBox="0 0 899 270" fill="none" xmlns="http://www.w3.org/2000/svg">
<g clip-path="url(#clip0_8890_91)">
<path d="M894 148L877 270.043H700L683 148L700.041 24H752.587L789 86L825.413 24H877L894 148ZM816 141.766L789 163L762 141.766V87.2578C747.94 94.1497 736.745 106.255 730.767 121.154C727.591 128.376 725.865 136.373 726.01 144.871C726.004 145.247 726 145.623 726 146C726 171.521 740.256 193.607 761 204.243V270H817V204.243C837.744 193.607 852 171.521 852 146C852 120.071 837.284 97.6881 816 87.2559V141.766Z" fill="url(#paint0_linear_8890_91)"/>
</g>
<path d="M333.262 86.7646C335.003 86.7646 336.59 86.6182 338.022 86.3252C339.471 86.0485 340.627 85.6986 341.489 85.2754C342.352 84.8522 343.076 84.3883 343.662 83.8838C344.264 83.3792 344.679 82.9235 344.907 82.5166C345.135 82.126 345.249 81.7842 345.249 81.4912C345.249 80.9215 345.054 80.4089 344.663 79.9531C344.289 79.5137 343.76 79.1556 343.076 78.8789C342.409 78.6022 341.685 78.3825 340.903 78.2197C340.122 78.057 339.251 77.9349 338.291 77.8535C337.738 77.8047 337.388 77.7152 337.241 77.585C337.111 77.4385 337.095 77.2106 337.192 76.9014L338.242 73.6055H349.985C350.376 73.6055 350.571 74.2402 350.571 75.5098V76.1201C350.571 77.3734 350.376 78 349.985 78H347.397C348.39 78.6999 348.887 79.8717 348.887 81.5156C348.887 82.1992 348.7 82.9479 348.325 83.7617C347.967 84.5918 347.365 85.4463 346.519 86.3252C345.688 87.2041 344.688 87.9935 343.516 88.6934C342.344 89.4095 340.854 89.9954 339.048 90.4512C337.241 90.9232 335.272 91.1592 333.14 91.1592C328.94 91.1592 325.612 90.0931 323.154 87.9609C320.697 85.8451 319.468 82.8096 319.468 78.8545C319.468 75.5505 320.265 72.1325 321.86 68.6006L324.546 69.4062C323.618 72.4661 323.154 75.2249 323.154 77.6826C323.154 83.7373 326.523 86.7646 333.262 86.7646ZM349.741 78C348.846 78 348.398 77.3734 348.398 76.1201V75.5098C348.398 74.2402 348.846 73.6055 349.741 73.6055H352.427C355.845 73.6055 357.66 72.3522 357.871 69.8457L358.335 64.8164H361.143L361.631 69.8701C361.761 71.1559 362.184 72.0999 362.9 72.7021C363.617 73.3044 364.756 73.6055 366.318 73.6055H366.807C367.197 73.6055 367.393 74.2402 367.393 75.5098V76.1201C367.393 77.3734 367.197 78 366.807 78H366.367C364.691 78 363.332 77.7477 362.29 77.2432C361.265 76.7223 360.41 75.9167 359.727 74.8262C358.197 76.9421 355.804 78 352.549 78H349.741ZM358.066 51.7549L361.436 55.124L358.066 58.4932L354.697 55.124L358.066 51.7549ZM376.865 42.2822L380.234 45.6514L376.865 49.0205L373.496 45.6514L376.865 42.2822ZM366.538 73.6055H372.739C376.011 73.6055 378.281 73.1986 379.551 72.3848C380.82 71.5547 381.455 70.2201 381.455 68.3809C379.648 68.7227 378.265 68.8936 377.305 68.8936C374.896 68.861 373.089 68.4622 371.885 67.6973C370.68 66.9323 370.078 65.5977 370.078 63.6934C370.078 60.7474 370.745 58.2409 372.08 56.1738C373.415 54.0905 375.116 53.0488 377.183 53.0488C378.55 53.0488 379.746 53.4313 380.771 54.1963C381.813 54.945 382.627 55.9785 383.213 57.2969C383.815 58.599 384.263 60.0394 384.556 61.6182C384.849 63.1807 384.995 64.8652 384.995 66.6719C384.995 68.0228 384.889 69.2435 384.678 70.334C384.482 71.4245 384.198 72.3604 383.823 73.1416C383.465 73.9229 383.001 74.6064 382.432 75.1924C381.862 75.762 381.252 76.2259 380.601 76.584C379.966 76.9421 379.217 77.2269 378.354 77.4385C377.492 77.6501 376.629 77.7965 375.767 77.8779C374.904 77.9593 373.927 78 372.837 78H366.538C365.643 78 365.195 77.3734 365.195 76.1201V75.5098C365.195 74.2402 365.643 73.6055 366.538 73.6055ZM377.207 64.5479C378.9 64.5479 380.308 64.3281 381.431 63.8887C381.089 59.7383 379.648 57.6631 377.109 57.6631C376.035 57.6631 375.124 58.0944 374.375 58.957C373.643 59.8034 373.276 60.9264 373.276 62.3262C373.276 63.1074 373.651 63.6771 374.399 64.0352C375.148 64.377 376.084 64.5479 377.207 64.5479ZM426.377 52.6338L429.624 55.8809L426.377 59.1279L423.13 55.8809L426.377 52.6338ZM419.053 52.6338L422.3 55.8809L419.053 59.1279L415.806 55.8809L419.053 52.6338ZM421.494 77.9512C419.378 77.9512 417.482 77.8617 415.806 77.6826C414.129 77.4873 412.51 77.1455 410.947 76.6572C409.401 76.1689 408.107 75.526 407.065 74.7285C406.04 73.931 405.218 72.8893 404.6 71.6035C403.981 70.3177 403.672 68.8122 403.672 67.0869C403.672 64.7106 404.217 62.432 405.308 60.251L407.773 61.1055C407.301 62.8796 407.065 64.3932 407.065 65.6465C407.065 70.9525 411.883 73.6055 421.519 73.6055C424.709 73.6055 427.598 73.4264 430.186 73.0684C432.79 72.7103 434.849 72.2139 436.362 71.5791C437.876 70.9281 438.633 70.1956 438.633 69.3818C438.633 68.9261 438.551 68.3646 438.389 67.6973C438.226 67.0137 438.063 66.4115 437.9 65.8906C437.738 65.3698 437.404 64.3688 436.899 62.8877L439.561 59.7383C439.821 59.4453 440.138 59.6732 440.513 60.4219C441.652 62.6842 442.222 65.0117 442.222 67.4043C442.222 69.0156 441.929 70.4235 441.343 71.6279C440.773 72.8161 439.943 73.8171 438.853 74.6309C437.762 75.4284 436.354 76.0794 434.629 76.584C432.92 77.0723 431.007 77.4222 428.892 77.6338C426.776 77.8454 424.31 77.9512 421.494 77.9512ZM451.816 64.5234C451.816 65.5 451.825 66.3138 451.841 66.9648C451.857 67.5996 451.89 68.2507 451.938 68.918C451.987 69.5853 452.061 70.1224 452.158 70.5293C452.256 70.9199 452.386 71.3105 452.549 71.7012C452.728 72.0918 452.931 72.3929 453.159 72.6045C453.387 72.8161 453.672 73.0114 454.014 73.1904C454.355 73.3532 454.746 73.4671 455.186 73.5322C455.625 73.5811 456.13 73.6055 456.699 73.6055H457.407C457.798 73.6055 457.993 74.2402 457.993 75.5098V76.1201C457.993 77.3734 457.798 78 457.407 78H456.577C455.633 78 454.779 77.9186 454.014 77.7559C453.249 77.5931 452.581 77.3327 452.012 76.9746C451.458 76.6165 450.97 76.2178 450.547 75.7783C450.124 75.3389 449.774 74.7855 449.497 74.1182C449.22 73.4346 448.993 72.7591 448.813 72.0918C448.651 71.4082 448.521 70.5863 448.423 69.626C448.341 68.6494 448.285 67.7298 448.252 66.8672C448.219 66.0046 448.203 64.971 448.203 63.7666C448.203 56.8656 447.959 50.9574 447.471 46.042L450.693 43.918C451.133 43.625 451.377 43.861 451.426 44.626C451.686 48.109 451.816 54.7415 451.816 64.5234ZM457.163 78C456.268 78 455.82 77.3734 455.82 76.1201V75.5098C455.82 74.2402 456.268 73.6055 457.163 73.6055H457.798C458.612 73.6055 459.507 73.1904 460.483 72.3604C461.476 71.5303 462.819 69.9515 464.512 67.624C466.139 65.3779 467.547 63.7259 468.735 62.668C469.924 61.5938 471.201 61.0566 472.568 61.0566C473.643 61.0566 474.66 61.3903 475.62 62.0576C476.58 62.7249 477.362 63.5632 477.964 64.5723C478.566 65.5814 479.038 66.6475 479.38 67.7705C479.738 68.8936 479.917 69.9434 479.917 70.9199C479.917 73.1172 479.323 74.932 478.135 76.3643C476.947 77.7965 475.775 78.5127 474.619 78.5127C472.373 78.5127 469.167 76.877 465 73.6055C463.926 75.0215 462.729 76.112 461.411 76.877C460.093 77.6257 458.815 78 457.578 78H457.163ZM474.253 73.752C474.953 73.752 475.522 73.5078 475.962 73.0195C476.401 72.5312 476.621 71.9209 476.621 71.1885C476.621 70.0492 476.157 68.8285 475.229 67.5264C474.302 66.2243 473.407 65.5732 472.544 65.5732C471.144 65.5732 469.443 67.0299 467.441 69.9434C470.404 72.4824 472.674 73.752 474.253 73.752ZM502.402 73.3369C500.319 76.4456 497.031 78 492.539 78C487.477 78 484.946 76.1445 484.946 72.4336C484.946 71.6686 485.06 70.7816 485.288 69.7725L487.998 70.041V70.3828C487.998 71.5547 488.372 72.3848 489.121 72.873C489.87 73.3613 491.017 73.6055 492.563 73.6055C493.605 73.6055 494.557 73.5485 495.42 73.4346C496.283 73.3206 497.096 73.1335 497.861 72.873C498.643 72.5964 499.253 72.2057 499.692 71.7012C500.132 71.1803 500.352 70.5618 500.352 69.8457C500.352 69.5039 500.278 69.1133 500.132 68.6738L496.177 57.3701L498.374 54.5381C498.83 53.9521 499.188 54.0498 499.448 54.8311L503.818 67.5996C505.186 71.6035 507.122 73.6055 509.629 73.6055H509.922C510.312 73.6055 510.508 74.2402 510.508 75.5098V76.1201C510.508 77.3734 510.312 78 509.922 78H509.531C506.325 78 503.949 76.4456 502.402 73.3369ZM522.837 47.3115L526.206 50.6807L522.837 54.0498L519.468 50.6807L522.837 47.3115ZM515.171 67.1113L513.096 66.1348C514.935 61.5449 517.547 59.25 520.933 59.25C522.153 59.25 524.375 60.0068 527.598 61.5205C532.741 63.9131 536.916 65.1257 540.122 65.1582C540.578 65.1582 540.732 65.4023 540.586 65.8906L539.487 69.5771C536.883 69.6585 532.977 71.1803 527.769 74.1426C523.26 76.7142 518.743 78 514.219 78H509.653C508.758 78 508.311 77.3734 508.311 76.1201V75.5098C508.311 74.2402 508.758 73.6055 509.653 73.6055H515.049C517.507 73.6055 520.282 73.0277 523.374 71.8721C526.466 70.7165 529.412 69.2923 532.212 67.5996C531.219 67.388 528.989 66.5905 525.522 65.207C523.228 64.2956 521.478 63.8398 520.273 63.8398C518.662 63.8398 516.961 64.9303 515.171 67.1113ZM567.148 53.6104L570.518 56.9795L567.148 60.3486L563.779 56.9795L567.148 53.6104ZM571.885 76.8525C571.738 78.3174 571.405 79.7008 570.884 81.0029C570.363 82.3213 569.744 83.4443 569.028 84.3721C568.312 85.3161 567.507 86.1787 566.611 86.96C565.732 87.7412 564.862 88.3841 563.999 88.8887C563.153 89.3932 562.331 89.8164 561.533 90.1582C560.736 90.5 560.06 90.7441 559.507 90.8906C558.97 91.0371 558.563 91.1104 558.286 91.1104C557.879 91.1104 557.48 90.8743 557.09 90.4023L556.138 89.2061C555.552 88.4085 555.527 87.9365 556.064 87.79C559.808 86.7646 562.778 85.2591 564.976 83.2734C567.189 81.2878 568.296 78.9521 568.296 76.2666C568.296 75.2087 568.084 74.1182 567.661 72.9951C567.254 71.8721 566.733 70.863 566.099 69.9678L569.102 65.8662C570.192 67.9984 571.104 69.6992 571.836 70.9688C572.845 72.7266 574.204 73.6055 575.913 73.6055H576.67C577.061 73.6055 577.256 74.2402 577.256 75.5098V76.1201C577.256 77.3734 577.061 78 576.67 78H576.035C574.424 78 573.04 77.6175 571.885 76.8525ZM576.401 78C575.506 78 575.059 77.3734 575.059 76.1201V75.5098C575.059 74.2402 575.506 73.6055 576.401 73.6055H579.868C581.724 73.6055 583.416 73.4183 584.946 73.0439C586.493 72.6696 587.746 72.1081 588.706 71.3594C589.666 70.5944 590.146 69.7155 590.146 68.7227C590.146 67.5508 589.105 65.8255 587.021 63.5469C584.938 61.252 581.756 58.2979 577.476 54.6846L578.379 50.0947L597.227 43.1855C597.471 43.1042 597.625 43.0635 597.69 43.0635C597.772 43.0635 597.821 43.1204 597.837 43.2344C597.853 43.332 597.837 43.4948 597.788 43.7227L597.202 47.5312L581.87 52.7803C585.825 56.3285 588.763 59.3965 590.684 61.9844C592.604 64.556 593.564 66.7614 593.564 68.6006C593.564 70.2445 593.198 71.6849 592.466 72.9219C591.75 74.1426 590.749 75.1191 589.463 75.8516C588.177 76.5677 586.729 77.1048 585.117 77.4629C583.522 77.821 581.772 78 579.868 78H576.401ZM610.264 76.8525C610.117 78.3174 609.784 79.7008 609.263 81.0029C608.742 82.3213 608.123 83.4443 607.407 84.3721C606.691 85.3161 605.885 86.1787 604.99 86.96C604.111 87.7412 603.241 88.3841 602.378 88.8887C601.532 89.3932 600.71 89.8164 599.912 90.1582C599.115 90.5 598.439 90.7441 597.886 90.8906C597.349 91.0371 596.942 91.1104 596.665 91.1104C596.258 91.1104 595.859 90.8743 595.469 90.4023L594.517 89.2061C593.931 88.4085 593.906 87.9365 594.443 87.79C598.187 86.7646 601.157 85.2591 603.354 83.2734C605.568 81.2878 606.675 78.9521 606.675 76.2666C606.675 75.2087 606.463 74.1182 606.04 72.9951C605.633 71.8721 605.112 70.863 604.478 69.9678L607.48 65.8662C608.571 67.9984 609.482 69.6992 610.215 70.9688C611.224 72.7266 612.583 73.6055 614.292 73.6055H615.049C615.439 73.6055 615.635 74.2402 615.635 75.5098V76.1201C615.635 77.3734 615.439 78 615.049 78H614.414C612.803 78 611.419 77.6175 610.264 76.8525ZM614.78 78C613.885 78 613.438 77.3734 613.438 76.1201V75.5098C613.438 74.2402 613.885 73.6055 614.78 73.6055H615.415C616.229 73.6055 617.124 73.1904 618.101 72.3604C619.093 71.5303 620.436 69.9515 622.129 67.624C623.757 65.3779 625.164 63.7259 626.353 62.668C627.541 61.5938 628.818 61.0566 630.186 61.0566C631.26 61.0566 632.277 61.3903 633.237 62.0576C634.198 62.7249 634.979 63.5632 635.581 64.5723C636.183 65.5814 636.655 66.6475 636.997 67.7705C637.355 68.8936 637.534 69.9434 637.534 70.9199C637.534 73.1172 636.94 74.932 635.752 76.3643C634.564 77.7965 633.392 78.5127 632.236 78.5127C629.99 78.5127 626.784 76.877 622.617 73.6055C621.543 75.0215 620.347 76.112 619.028 76.877C617.71 77.6257 616.432 78 615.195 78H614.78ZM631.87 73.752C632.57 73.752 633.14 73.5078 633.579 73.0195C634.019 72.5312 634.238 71.9209 634.238 71.1885C634.238 70.0492 633.774 68.8285 632.847 67.5264C631.919 66.2243 631.024 65.5732 630.161 65.5732C628.761 65.5732 627.061 67.0299 625.059 69.9434C628.021 72.4824 630.291 73.752 631.87 73.752Z" fill="#111827"/>
<path d="M9.74883 172.561C9.74883 170.248 10.4372 167.99 11.814 165.787C14.8981 161.326 18.8909 159.096 23.7923 159.096H37.0923V225.348C37.1474 227.661 37.6706 229.891 38.6619 232.039C39.6532 234.187 40.9749 236.059 42.6271 237.657C44.2793 239.254 46.1793 240.52 48.3271 241.457C50.4749 242.393 52.788 242.861 55.2662 242.861H77.6532C80.1314 242.806 82.4445 242.283 84.5923 241.291C86.7952 240.355 88.6952 239.088 90.2923 237.491C91.8894 235.894 93.1561 234.022 94.0923 231.874C95.0836 229.726 95.5793 227.413 95.5793 224.935V170.743C95.9648 169.091 96.6532 167.439 97.6445 165.787C100.729 161.326 104.666 159.096 109.458 159.096H122.923V180.574H123.005V181.317C123.005 183.906 123.473 186.301 124.41 188.504C125.401 190.707 126.723 192.662 128.375 194.37C130.027 196.022 131.955 197.343 134.158 198.335C136.36 199.271 138.729 199.739 141.262 199.739V227C137.958 227 134.763 226.67 131.679 226.009C128.65 225.293 125.731 224.329 122.923 223.117V226.917C122.647 232.645 121.298 238.07 118.875 243.191C116.507 248.368 113.368 252.884 109.458 256.739C105.602 260.594 101.087 263.678 95.9097 265.991C90.788 268.359 85.3358 269.681 79.5532 269.957H55.2662C49.1532 269.957 43.3706 268.828 37.9184 266.57C32.5213 264.312 27.7575 261.2 23.6271 257.235C19.5517 253.325 16.2749 248.699 13.7967 243.357C11.3184 238.07 9.96912 232.37 9.74883 226.257V172.561ZM50.3097 179.335C50.3097 177.077 50.7227 174.957 51.5488 172.974C52.3749 170.991 53.5039 169.284 54.9358 167.852C56.4227 166.42 58.13 165.264 60.0575 164.383C62.0401 163.501 64.1329 163.061 66.3358 163.061C68.5387 163.061 70.6039 163.501 72.5314 164.383C74.459 165.264 76.1387 166.42 77.5706 167.852C79.0575 169.284 80.214 170.991 81.0401 172.974C81.8662 174.957 82.2793 177.077 82.2793 179.335C82.2793 181.538 81.8662 183.63 81.0401 185.613C80.214 187.541 79.0575 189.248 77.5706 190.735C76.1387 192.167 74.459 193.296 72.5314 194.122C70.6039 194.948 68.5387 195.361 66.3358 195.361C64.1329 195.361 62.0401 194.948 60.0575 194.122C58.13 193.296 56.4227 192.167 54.9358 190.735C53.5039 189.248 52.3749 187.541 51.5488 185.613C50.7227 183.63 50.3097 181.538 50.3097 179.335ZM188.937 227.083H138.629V199.657H188.937V227.083ZM235.324 227.083H185.015V199.657H235.324V227.083ZM281.711 227.083H231.402V199.657H281.711V227.083ZM328.098 227.083H277.789V199.657H328.098V227.083ZM374.484 227.083H324.176V199.657H374.484V227.083ZM371.554 226.917V199.409H401.954C404.322 199.409 406.58 198.996 408.728 198.17C410.875 197.288 412.748 196.104 414.345 194.617C415.997 193.075 417.346 191.286 418.393 189.248C419.439 187.21 420.072 184.98 420.293 182.557V172.726C420.293 170.413 420.954 168.155 422.275 165.952C425.359 161.491 429.352 159.261 434.254 159.261H447.636V181.317C447.636 183.906 448.104 186.301 449.041 188.504C450.032 190.707 451.326 192.662 452.923 194.37C454.575 196.022 456.503 197.343 458.706 198.335C460.964 199.271 463.359 199.739 465.893 199.739V227L463.332 226.917C457.99 226.642 453.006 225.486 448.38 223.448C442.872 221.135 438.054 217.941 433.923 213.865C429.738 217.941 424.919 221.135 419.467 223.448C414.07 225.761 408.232 226.917 401.954 226.917H371.554ZM411.867 244.926C412.693 242.943 413.822 241.209 415.254 239.722C416.741 238.29 418.448 237.133 420.375 236.252C422.358 235.426 424.451 235.013 426.654 235.013C428.912 235.013 430.977 235.426 432.849 236.252C434.777 237.133 436.457 238.29 437.888 239.722C439.375 241.209 440.532 242.943 441.358 244.926C442.184 246.909 442.597 249.001 442.597 251.204C442.597 253.462 442.184 255.555 441.358 257.483C440.532 259.41 439.375 261.09 437.888 262.522C436.457 264.009 434.777 265.165 432.849 265.991C430.977 266.817 428.912 267.23 426.654 267.23C424.451 267.23 422.358 266.817 420.375 265.991C418.448 265.165 416.741 264.009 415.254 262.522C413.822 261.09 412.693 259.41 411.867 257.483C411.041 255.555 410.628 253.462 410.628 251.204C410.628 249.001 411.041 246.909 411.867 244.926ZM376.097 251.204C376.097 249.001 376.51 246.909 377.336 244.926C378.162 242.943 379.291 241.209 380.723 239.722C382.21 238.29 383.917 237.133 385.845 236.252C387.828 235.426 389.92 235.013 392.123 235.013C394.381 235.013 396.446 235.426 398.319 236.252C400.246 237.133 401.926 238.29 403.358 239.722C404.845 241.209 406.001 242.943 406.828 244.926C407.654 246.909 408.067 249.001 408.067 251.204C408.067 253.462 407.654 255.555 406.828 257.483C406.001 259.41 404.845 261.09 403.358 262.522C401.926 264.009 400.246 265.165 398.319 265.991C396.446 266.817 394.381 267.23 392.123 267.23C389.92 267.23 387.828 266.817 385.845 265.991C383.917 265.165 382.21 264.009 380.723 262.522C379.291 261.09 378.162 259.41 377.336 257.483C376.51 255.555 376.097 253.462 376.097 251.204ZM464.657 226.917V199.409H466.31C468.678 199.409 470.908 198.996 473.001 198.17C475.149 197.288 477.049 196.104 478.701 194.617C480.353 193.075 481.702 191.286 482.749 189.248C483.795 187.21 484.401 184.98 484.566 182.557V172.726C484.566 170.413 485.255 168.155 486.631 165.952C489.715 161.491 493.708 159.261 498.61 159.261H511.992V181.317C511.992 183.906 512.46 186.301 513.397 188.504C514.388 190.707 515.682 192.662 517.279 194.37C518.931 196.022 520.859 197.343 523.062 198.335C525.32 199.271 527.715 199.739 530.249 199.739V227L527.688 226.917C522.346 226.642 517.362 225.486 512.736 223.448C507.229 221.135 502.41 217.941 498.279 213.865C494.094 217.941 489.275 221.135 483.823 223.448C478.426 225.761 472.588 226.917 466.31 226.917H464.657ZM480.436 251.039C480.436 248.781 480.849 246.661 481.675 244.678C482.501 242.751 483.63 241.043 485.062 239.557C486.549 238.125 488.256 236.968 490.184 236.087C492.166 235.206 494.259 234.765 496.462 234.765C498.72 234.765 500.785 235.206 502.657 236.087C504.585 236.968 506.265 238.125 507.697 239.557C509.184 241.043 510.34 242.751 511.166 244.678C511.992 246.661 512.405 248.781 512.405 251.039C512.405 253.242 511.992 255.307 511.166 257.235C510.34 259.217 509.184 260.925 507.697 262.357C506.265 263.843 504.585 265 502.657 265.826C500.785 266.652 498.72 267.065 496.462 267.065C494.259 267.065 492.166 266.652 490.184 265.826C488.256 265 486.549 263.843 485.062 262.357C483.63 260.925 482.501 259.217 481.675 257.235C480.849 255.307 480.436 253.242 480.436 251.039ZM527.166 199.409H527.993C530.471 199.409 532.811 198.941 535.014 198.004C537.272 197.068 539.227 195.774 540.88 194.122C542.587 192.47 543.936 190.542 544.927 188.339C545.368 187.183 545.726 185.971 546.001 184.704C545.891 183.548 545.836 182.391 545.836 181.235C545.836 177.325 546.359 173.497 547.406 169.752C548.893 164.135 551.426 158.93 555.006 154.139C558.585 149.293 563.129 145.328 568.636 142.243C574.088 139.049 578.797 137.204 582.762 136.709C586.782 136.213 589.756 135.965 591.684 135.965C595.649 135.965 599.972 136.599 604.653 137.865C609.335 139.132 614.071 141.583 618.862 145.217C623.708 148.852 627.729 153.423 630.923 158.93C634.062 164.383 635.88 169.091 636.375 173.057C636.871 177.022 637.119 179.941 637.119 181.813C637.119 185.778 636.485 190.101 635.219 194.783C633.952 199.464 631.501 204.228 627.866 209.074C624.287 213.865 619.798 217.83 614.401 220.97C608.894 224.109 604.13 225.926 600.11 226.422C596.145 226.862 593.198 227.083 591.271 227.083C587.306 227.083 582.927 226.477 578.136 225.265C573.4 223.999 568.636 221.548 563.845 217.913C562.303 216.812 560.843 215.572 559.466 214.196C555.501 217.996 550.93 221.025 545.753 223.283C540.191 225.706 534.271 226.917 527.993 226.917H527.166V199.409ZM573.758 186.357C574.364 188.614 575.382 190.735 576.814 192.717C578.246 194.645 580.036 196.27 582.184 197.591C584.387 198.803 586.287 199.519 587.884 199.739C589.536 199.904 590.748 199.987 591.519 199.987C593.116 199.987 594.851 199.739 596.723 199.243C598.595 198.748 600.523 197.784 602.506 196.352C604.488 194.865 606.113 193.02 607.38 190.817C608.646 188.614 609.362 186.714 609.527 185.117C609.693 183.52 609.775 182.364 609.775 181.648C609.775 179.996 609.527 178.206 609.032 176.278C608.536 174.351 607.545 172.423 606.058 170.496C604.626 168.513 602.781 166.888 600.523 165.622C598.32 164.355 596.42 163.639 594.823 163.474C593.281 163.254 592.152 163.143 591.436 163.143C589.784 163.143 587.994 163.419 586.066 163.97C584.194 164.465 582.294 165.457 580.366 166.943C578.439 168.375 576.842 170.22 575.575 172.478C574.364 174.626 573.648 176.526 573.427 178.178C573.262 179.775 573.18 180.959 573.18 181.73C573.18 183.328 573.372 184.87 573.758 186.357Z" fill="#111827"/>
<defs>
<linearGradient id="paint0_linear_8890_91" x1="877" y1="24" x2="700" y2="270" gradientUnits="userSpaceOnUse">
<stop offset="0.2" stop-color="#862FE7"/>
<stop offset="0.802885" stop-color="#E81CFF"/>
</linearGradient>
<clipPath id="clip0_8890_91">
<rect width="230.984" height="246" fill="white" transform="translate(668.016 24)"/>
</clipPath>
</defs>
</svg>
