<svg width="964" height="300" viewBox="0 0 964 300" fill="none" xmlns="http://www.w3.org/2000/svg">
<g clip-path="url(#clip0_6856_85)">
<path d="M837.03 201.972C837.453 198.103 837.701 194.194 837.701 190.237C837.701 130.327 788.119 81.7896 726.947 81.7896C665.792 81.7896 616.216 130.327 616.216 190.237C616.216 250.127 665.793 298.647 726.947 298.647C773.469 298.647 813.236 270.618 829.674 230.794L781.938 222.419C771.364 241.796 751.355 254.848 728.484 254.848C698.125 254.848 672.984 231.985 667.927 201.971L837.03 201.972ZM728.485 126.798C754.408 126.798 776.55 143.513 785.587 167.175H671.314C680.326 143.515 702.517 126.798 728.485 126.798ZM529.892 86.3323H586.449V294.753H529.892V86.3323ZM558.191 1.35071C540.732 1.35071 526.637 15.5413 526.637 32.9499C526.637 50.3317 540.732 64.4845 558.191 64.4845C575.58 64.4845 589.706 50.3317 589.706 32.9499C589.706 15.5413 575.58 1.35071 558.191 1.35071ZM183.732 19.5081V131.707H61.8227V19.5081H3.05176e-05V294.567H61.8227V182.363H183.732V294.567H245.605V19.5081H183.732ZM439 86.4285V97.6117C422.561 87.6387 403.298 81.9101 382.657 81.9101C322.699 81.9101 274.07 130.417 274.07 190.28C274.07 250.13 322.699 298.649 382.657 298.649C402.005 298.672 421.007 293.514 437.694 283.71V294.568H492.88V86.4285H439ZM385.414 252.958C350.422 252.958 322.135 224.922 322.135 190.304C322.135 155.657 350.421 127.6 385.414 127.6C420.398 127.6 448.732 155.657 448.732 190.304C448.73 224.922 420.397 252.958 385.414 252.958ZM954.644 66.9756C902.562 76.0732 862.965 121.444 862.357 176.165V294.752H916.51L916.538 173.935C916.538 146.277 937.274 123.452 964 120.177L954.644 66.9756Z" fill="black"/>
</g>
<defs>
<clipPath id="clip0_6856_85">
<rect width="964" height="300" fill="white"/>
</clipPath>
</defs>
</svg>
