<svg width="1214" height="150" viewBox="0 0 1214 150" fill="none" xmlns="http://www.w3.org/2000/svg">
<path fill-rule="evenodd" clip-rule="evenodd" d="M74.4744 0.748047C115.349 0.748047 148.564 33.9571 148.564 74.8378C148.564 115.712 115.349 149.252 74.4744 149.252C33.5937 149.252 0.378174 115.712 0.378174 74.8378C0.378174 33.9571 33.5937 0.748047 74.4744 0.748047ZM101.938 17.3558H75.752C71.9194 19.2753 69.6821 21.8239 68.4046 25.0209L47.3287 102.95C44.7737 112.528 46.6932 118.591 53.3986 121.782L69.6886 122.43L70.6419 140.316L100.66 79.0011C101.302 76.7574 100.66 75.8041 98.7474 75.4798L67.7691 74.8443C62.659 73.249 62.659 66.5372 68.0933 65.2596L87.5739 65.5839C88.8514 65.2597 89.4869 64.6241 90.1289 63.6643L101.938 17.3558ZM314.311 7.45339H232.874L230.637 7.77118C206.364 10.9682 189.438 24.379 180.178 41.6223C175.068 51.2069 172.195 62.0626 172.195 72.9183C171.924 83.9108 174.452 94.7919 179.543 104.539C188.485 121.775 205.411 135.835 230.319 139.991L232.874 140.309H313.994V74.2023H283.015V108.695H233.834C220.741 106.134 212.116 99.1043 207.33 90.1681C204.775 85.0645 203.498 78.9946 203.498 73.249C203.498 67.1792 205.093 61.4336 207.648 56.3235C212.44 47.6986 221.059 40.9932 233.516 39.0802H314.311V7.45339ZM336.347 39.3915V138.39L459.618 137.754V107.418H371.793V88.5728H446.207V57.9188H371.793V39.3915H455.15V8.73091H336.347V39.3915ZM574.271 138.383H607.798V8.41317H573.311V78.6639L511.672 8.41317H479.734V138.383H514.227V64.2999L574.271 138.383ZM629.516 39.3915V138.39L752.475 137.754V107.418H664.651V88.5728H739.065V57.9188H664.651V39.3915H748.319V8.73091H629.516V39.3915ZM1095.13 105.174V137.119H1213.62V105.174H1127.07V6.49366H1095.13V105.174ZM1001.24 112.204C1011.78 112.204 1020.4 103.579 1020.4 93.3586C1020.39 88.2817 1018.37 83.4171 1014.77 79.8278C1011.18 76.2384 1006.32 74.216 1001.24 74.2023C991.022 74.2023 982.41 82.8207 982.41 93.3586C982.41 103.579 991.022 112.204 1001.24 112.204ZM959.732 136.159V68.1325C961.963 52.8022 970.27 42.582 980.808 37.4719C986.878 34.5991 993.577 33.3216 1000.61 33.3216C1007.64 33.6393 1014.65 35.2347 1020.72 38.1075C1031.59 43.5353 1040.22 53.7555 1042.13 68.126V135.186H1072.15V65.5774C1068.96 39.385 1053.62 20.8642 1034.14 11.286C1023.6 6.17589 1012.43 3.30307 1000.93 3.30307C989.427 2.99225 978.023 5.51315 967.722 10.644C948.559 19.9044 933.235 38.1074 929.714 65.2532L929.396 67.1727V136.152L959.732 136.159ZM878.295 89.2148L915.025 137.748H874.787L838.692 90.8101H804.517V137.119H771.956V8.41317H853.698L866.162 8.73091C888.833 8.41315 905.123 21.1884 906.718 54.0797C903.839 70.6875 894.585 82.8207 878.295 89.2148ZM804.517 36.2009V62.7046H841.247L859.774 63.3401C863.626 63.3527 867.398 62.244 870.63 60.1495C878.295 48.3341 876.051 40.3512 863.283 36.2009H804.517Z" fill="black"/>
</svg>
