<svg width="800" height="580" viewBox="0 0 800 580" fill="none" xmlns="http://www.w3.org/2000/svg">
<path d="M758.62 579.655H731.034C723.417 579.655 717.24 573.478 717.24 565.861V538.275H772.412V565.861C772.414 573.48 766.237 579.655 758.62 579.655Z" fill="#AFB9D2"/>
<path d="M68.9656 579.655H41.3797C33.7625 579.655 27.5859 573.478 27.5859 565.861V538.275H82.7578V565.861C82.7594 573.48 76.5828 579.655 68.9656 579.655Z" fill="#AFB9D2"/>
<path d="M772.414 552.069H27.5859C12.35 552.069 0 539.719 0 524.483V27.9312C0 12.6952 12.35 0.345215 27.5859 0.345215H772.414C787.65 0.345215 800 12.6952 800 27.9312V524.483C800 539.719 787.65 552.069 772.414 552.069Z" fill="#E4EAF6"/>
<path d="M482.759 524.483H68.9656C46.1125 524.483 27.5859 505.956 27.5859 483.103V69.3108C27.5859 46.4577 46.1125 27.9312 68.9656 27.9312H482.759C505.613 27.9312 524.139 46.4577 524.139 69.3108V483.105C524.138 505.956 505.613 524.483 482.759 524.483Z" fill="#D7DEED"/>
<path d="M275.863 496.895C397.746 496.895 496.552 398.089 496.552 276.206C496.552 154.323 397.746 55.5171 275.863 55.5171C153.98 55.5171 55.1738 154.323 55.1738 276.206C55.1738 398.089 153.98 496.895 275.863 496.895Z" fill="#464655"/>
<path d="M275.37 236.326L356.82 143.241C364.126 134.889 376.975 134.461 384.822 142.308L384.855 142.34C406.355 163.84 405.183 199.042 382.3 219.064L316.065 277.019" fill="#00EBFF"/>
<path d="M273.745 316.087L192.295 409.173C184.989 417.525 172.14 417.953 164.294 410.106L164.261 410.073C142.761 388.573 143.933 353.372 166.815 333.35L233.05 275.395" fill="#00EBFF"/>
<path d="M314.439 277.019L407.525 358.469C415.877 365.775 416.305 378.623 408.458 386.47L408.425 386.503C386.925 408.003 351.724 406.831 331.702 383.948L273.747 317.714" fill="#00EBFF"/>
<path d="M234.677 275.395L141.591 193.945C133.239 186.639 132.811 173.791 140.658 165.944L140.691 165.911C162.191 144.411 197.392 145.583 217.414 168.466L275.369 234.7" fill="#00EBFF"/>
<path d="M275.862 331.378C306.333 331.378 331.034 306.677 331.034 276.206C331.034 245.735 306.333 221.034 275.862 221.034C245.392 221.034 220.69 245.735 220.69 276.206C220.69 306.677 245.392 331.378 275.862 331.378Z" fill="#00AFE1"/>
<path d="M68.9656 83.1046C76.5837 83.1046 82.7594 76.9289 82.7594 69.3108C82.7594 61.6928 76.5837 55.5171 68.9656 55.5171C61.3475 55.5171 55.1719 61.6928 55.1719 69.3108C55.1719 76.9289 61.3475 83.1046 68.9656 83.1046Z" fill="#FFF08C"/>
<path d="M482.76 83.1046C490.378 83.1046 496.553 76.9289 496.553 69.3108C496.553 61.6928 490.378 55.5171 482.76 55.5171C475.141 55.5171 468.966 61.6928 468.966 69.3108C468.966 76.9289 475.141 83.1046 482.76 83.1046Z" fill="#FFF08C"/>
<path d="M68.9656 496.897C76.5837 496.897 82.7594 490.721 82.7594 483.103C82.7594 475.485 76.5837 469.309 68.9656 469.309C61.3475 469.309 55.1719 475.485 55.1719 483.103C55.1719 490.721 61.3475 496.897 68.9656 496.897Z" fill="#FFF08C"/>
<path d="M482.76 496.897C490.378 496.897 496.553 490.721 496.553 483.103C496.553 475.485 490.378 469.309 482.76 469.309C475.141 469.309 468.966 475.485 468.966 483.103C468.966 490.721 475.141 496.897 482.76 496.897Z" fill="#FFF08C"/>
</svg>
