<svg width="512" height="512" viewBox="0 0 512 512" fill="none" xmlns="http://www.w3.org/2000/svg">
<g clip-path="url(#clip0_9181_81)">
<path d="M406.069 512H105.931C96.1804 512 88.2764 504.096 88.2764 494.345V17.655C88.2764 7.904 96.1804 0 105.931 0H406.069C415.82 0 423.724 7.904 423.724 17.655V494.345C423.724 504.096 415.82 512 406.069 512Z" fill="#C7CFE2"/>
<path d="M194.207 353.103C189.332 353.103 185.379 349.15 185.379 344.275V150.069C185.379 145.194 189.332 141.241 194.207 141.241C199.082 141.241 203.035 145.194 203.035 150.069V344.276C203.034 349.151 199.082 353.103 194.207 353.103Z" fill="#00C8F0"/>
<path d="M264.828 353.103C259.953 353.103 256 349.15 256 344.275V150.069C256 145.194 259.953 141.241 264.828 141.241C269.703 141.241 273.656 145.194 273.656 150.069V344.276C273.655 349.151 269.703 353.103 264.828 353.103Z" fill="#00C8F0"/>
<path d="M150.069 291.31H123.586C113.835 291.31 105.931 283.406 105.931 273.655V220.69C105.931 210.939 113.835 203.035 123.586 203.035H150.069C159.82 203.035 167.724 210.939 167.724 220.69V273.656C167.724 283.406 159.82 291.31 150.069 291.31Z" fill="#959CB3"/>
<path d="M238.344 0H220.689V485.517H238.344V0Z" fill="#959CB3"/>
<path d="M141.241 256H132.413C127.538 256 123.585 252.047 123.585 247.172V229.517C123.585 224.642 127.538 220.689 132.413 220.689H141.241C146.116 220.689 150.069 224.642 150.069 229.517V247.172C150.069 252.047 146.116 256 141.241 256Z" fill="#FFD764"/>
<path d="M423.724 494.345V485.517H88.2764V494.345C88.2764 504.095 96.1814 512 105.931 512H406.069C415.819 512 423.724 504.095 423.724 494.345Z" fill="#AFB9D2"/>
</g>
<defs>
<clipPath id="clip0_9181_81">
<rect width="512" height="512" fill="white"/>
</clipPath>
</defs>
</svg>
