<svg width="800" height="800" viewBox="0 0 800 800" fill="none" xmlns="http://www.w3.org/2000/svg">
<g clip-path="url(#clip0_9181_91)">
<path d="M165.517 800H137.931C130.314 800 124.138 793.823 124.138 786.206V758.62H179.31V786.206C179.311 793.823 173.135 800 165.517 800Z" fill="#AFB9D2"/>
<path d="M662.069 800H634.483C626.866 800 620.689 793.823 620.689 786.206V758.62H675.861V786.206C675.863 793.823 669.686 800 662.069 800Z" fill="#AFB9D2"/>
<path d="M662.069 772.414H137.932C122.696 772.414 110.346 760.064 110.346 744.828V27.5859C110.346 12.35 122.696 0 137.932 0H662.069C677.305 0 689.655 12.35 689.655 27.5859V744.828C689.655 760.064 677.305 772.414 662.069 772.414Z" fill="#E4EAF6"/>
<path d="M110.346 27.5859V165.517H689.657V27.5859C689.655 12.35 677.303 0 662.069 0H137.932C122.697 0 110.346 12.35 110.346 27.5859Z" fill="#D7DEED"/>
<path d="M344.828 0V82.7594C344.828 113.23 369.53 137.931 400 137.931C430.47 137.931 455.172 113.23 455.172 82.7594V0H344.828Z" fill="#AFB9D2"/>
<path d="M400 620.691C514.266 620.691 606.897 528.06 606.897 413.794C606.897 299.528 514.266 206.897 400 206.897C285.734 206.897 193.104 299.528 193.104 413.794C193.104 528.06 285.734 620.691 400 620.691Z" fill="#C7CFE2"/>
<path d="M400 110.345C415.235 110.345 427.586 97.9946 427.586 82.7593C427.586 67.524 415.235 55.1733 400 55.1733C384.765 55.1733 372.414 67.524 372.414 82.7593C372.414 97.9946 384.765 110.345 400 110.345Z" fill="#707487"/>
<path d="M510.346 110.345C502.728 110.345 496.552 104.169 496.552 96.5516V68.9656C496.552 61.3484 502.728 55.1719 510.346 55.1719C517.963 55.1719 524.139 61.3484 524.139 68.9656V96.5516C524.138 104.169 517.963 110.345 510.346 110.345Z" fill="white"/>
<path d="M565.517 110.345C557.9 110.345 551.724 104.169 551.724 96.5516V68.9656C551.724 61.3484 557.9 55.1719 565.517 55.1719C573.135 55.1719 579.311 61.3484 579.311 68.9656V96.5516C579.311 104.169 573.135 110.345 565.517 110.345Z" fill="#FFF08C"/>
<path d="M620.689 110.345C613.072 110.345 606.896 104.169 606.896 96.5516V68.9656C606.896 61.3484 613.072 55.1719 620.689 55.1719C628.306 55.1719 634.483 61.3484 634.483 68.9656V96.5516C634.483 104.169 628.306 110.345 620.689 110.345Z" fill="#E4EAF6"/>
<path d="M400 551.725C476.177 551.725 537.931 489.971 537.931 413.794C537.931 337.616 476.177 275.863 400 275.863C323.822 275.863 262.068 337.616 262.068 413.794C262.068 489.971 323.822 551.725 400 551.725Z" fill="#00C8F0"/>
<path d="M400 317.241C469.126 317.241 526.206 368.145 536.214 434.481C537.234 427.716 537.931 420.842 537.931 413.792C537.931 337.614 476.178 275.861 400 275.861C323.821 275.861 262.068 337.614 262.068 413.792C262.068 420.842 262.765 427.716 263.786 434.481C273.793 368.147 330.873 317.241 400 317.241Z" fill="#00AFE1"/>
<path d="M510.346 634.483H648.277C655.894 634.483 662.071 640.659 662.071 648.277V731.036C662.071 738.653 655.894 744.83 648.277 744.83H510.346C502.728 744.83 496.552 738.653 496.552 731.036V648.277C496.552 640.659 502.728 634.483 510.346 634.483Z" fill="#D7DEED"/>
<path d="M289.655 137.931H151.723C144.106 137.931 137.93 131.755 137.93 124.137V41.3797C137.93 33.7625 144.106 27.5859 151.723 27.5859H289.655C297.272 27.5859 303.448 33.7625 303.448 41.3797V124.139C303.448 131.755 297.272 137.931 289.655 137.931Z" fill="#C7CFE2"/>
<path d="M248.276 110.345H193.104C185.487 110.345 179.311 116.522 179.311 124.139V137.933H262.07V124.139C262.068 116.52 255.893 110.345 248.276 110.345Z" fill="#AFB9D2"/>
<path d="M468.972 467.566C472.454 467.566 475.936 468.872 478.623 471.505C484.064 476.833 484.159 485.567 478.825 491.009C469.678 500.35 459.072 507.922 447.292 513.511C440.442 516.791 432.186 513.841 428.92 506.964C425.653 500.081 428.584 491.858 435.467 488.592C444.297 484.403 452.25 478.719 459.12 471.708C461.818 468.952 465.397 467.566 468.972 467.566Z" fill="#00EBFF"/>
<path d="M317.214 449.738C321.895 449.738 326.453 452.116 329.041 456.411C341.958 477.861 363.509 492.188 388.167 495.716C395.711 496.794 400.95 503.778 399.866 511.32C398.787 518.864 391.73 524.083 384.261 523.019C351.361 518.317 322.623 499.223 305.416 470.648C301.483 464.122 303.589 455.644 310.111 451.717C312.337 450.37 314.789 449.738 317.214 449.738Z" fill="#00DCFF"/>
<path d="M400 248.277C308.587 248.277 234.482 322.381 234.482 413.794C234.482 505.206 308.587 579.311 400 579.311C491.412 579.311 565.517 505.206 565.517 413.794C565.517 322.381 491.412 248.277 400 248.277ZM400 551.723C323.821 551.723 262.068 489.97 262.068 413.792C262.068 337.614 323.821 275.861 400 275.861C462.017 275.861 514.467 316.794 531.826 373.113C519.532 375.895 510.345 386.864 510.345 399.998V427.584C510.345 440.719 519.532 451.688 531.826 454.47C514.467 510.791 462.017 551.723 400 551.723Z" fill="#959CB3"/>
</g>
<defs>
<clipPath id="clip0_9181_91">
<rect width="800" height="800" fill="white"/>
</clipPath>
</defs>
</svg>
