<svg width="1280" height="1143" viewBox="0 0 1280 1143" fill="none" xmlns="http://www.w3.org/2000/svg">
<g clip-path="url(#clip0_9009_86)">
<path d="M646.089 235.749L646.466 243.302L661.948 251.987L662.326 259.539L657.417 261.804L653.641 262.937L649.865 266.713L651.375 273.51L633.628 290.503L620.383 290.851L615.502 293.146L609.083 299.188L606.062 301.831L592.468 307.495L572.833 302.209L561.968 300.534L556.973 305.229L549.043 312.404L536.582 313.159L523.366 307.117L518.963 297.839L509.772 293.146L497.689 285.971L474.277 281.818L455.774 271.245L453.131 261.427L433.495 249.343L426.32 247.455L433.873 239.903L441.425 220.645L446.648 225.312L465.445 236.26L473.542 240.373L527.131 251.51L536.582 249.987L548.886 246.649L572.924 241.39L622.856 229.417L642.774 227.823L650.707 227.676L655.907 224.043L655.8 227.479L632.915 231.287L635.147 234.184L646.089 235.749Z" fill="#862FE7" stroke="#862FE7" stroke-width="20" stroke-linejoin="round"/>
<path d="M61.7643 9.95337C61.9191 9.9839 62.065 10.0512 62.1891 10.1487L75.9996 21.0002L78.9235 22.9495C78.9743 22.9833 79.0285 23.0123 79.0846 23.0364L82.3434 24.4329C82.4472 24.4773 82.5578 24.5044 82.6705 24.512L89.0778 24.9387C89.5984 24.9733 90.0581 24.6016 90.1334 24.0852L90.7106 20.1282H96.0504L93.8434 26.7698L94.1588 27.4475L94.4518 28.0754L94.6237 28.7454L96.0875 34.4309L98.2164 36.0667L98.6119 36.1467L98.9147 36.6028L101.005 38.2102L100.691 38.7737L101.011 38.9866L101.191 39.1057L101.363 39.2356L101.79 39.5569L104.074 41.2756L104.122 41.5188L104.293 41.5754L105.715 44.0735L106.141 44.8196L106.216 44.9524L106.287 45.0872L107.638 47.7004L107.862 48.0129L108.083 48.3225L108.271 48.6516L108.698 49.3987L109.353 50.5461L109.435 51.0256L111.002 51.4885L111.327 51.3811H118.147L119.819 55.5598L121.385 56.5383L122.312 58.7004L122.632 59.4475L123.182 60.7307L123.295 60.843L123.77 61.635L124.089 62.1682L124.518 62.8821L126.01 63.5237L127.238 65.9729L127.452 66.3987L128.321 68.135L129.184 68.6399L129.753 68.676L130.277 68.7092L130.793 68.8157L133.739 69.4221L138.597 69.5168L139.872 69.5422L141.066 69.9866L145.077 71.4788L157.595 73.9211L158.322 74.0627L159.006 74.344L162.611 75.8235L164.271 76.2141L166.556 75.9211L168.91 74.3274L169.433 73.9729L170.008 73.7112L171.184 73.175L172.226 72.7004L173.363 72.5579L174.216 72.4514L174.508 72.4153L174.802 72.4016L176.108 72.3411L176.72 72.1379L177.876 71.7522H180.205L180.672 71.8118L181.526 71.9192L182.511 72.0442L183.43 72.4202L187.98 74.2844L189.285 71.759L189.718 70.9192L190.346 70.2131L191.199 69.2542L191.596 68.8088L192.058 68.4309L193.233 67.4719L193.946 66.8899L194.779 66.4973L196.69 65.5959L196.853 65.2551L197.123 64.6897L197.481 64.177L198.228 63.1106L198.848 62.2239L199.694 61.5491L200.227 61.1243L200.845 60.6311L201.295 60.4055L202.066 59.1731L202.402 58.636L202.823 58.1633L203.677 57.2034L204.178 56.6409L204.78 56.1887L205.633 55.5491L206.174 55.1438L206.779 54.8411L207.846 54.3079L209.429 53.5159H213.64L214.523 53.8782L214.867 52.9885L215.175 52.1858L215.658 51.4739L217.222 49.1633L217.638 47.7004L219.016 46.3225L219.657 45.6829L220.368 44.9719L221.24 44.4739L224.228 42.7668L224.788 42.4475L225.393 42.2278L231.169 40.135L232.339 39.55L233.375 38.5667L236.214 35.2385L236.693 34.677L237.273 34.219L239.299 32.6194L239.903 32.1428L240.591 31.7981L243.677 30.2551L244.239 30.0764L248.614 28.6897L249.351 28.4553L251.303 26.6301L252.085 25.8987L253.04 25.4153L260.713 21.5305L263.551 18.8596L264.176 18.2717L264.918 17.8401L266.197 17.094L267.01 16.6204L267.916 16.3625L269.408 15.9368L270.5 15.6252L271.635 15.6516L273.345 15.6897L275.364 13.094L280.098 14.2708L280.953 14.4827L281.997 14.7424L282.925 15.2844L284.205 16.0315L284.797 16.3772L285.318 16.8254L289.159 20.1331L289.495 20.4221L289.796 20.7502L299.931 31.8157L303.841 35.1389L304.373 35.5901L304.811 36.1311L306.627 38.3713L307.104 38.9602L307.454 39.634L308.84 42.3L313.129 50.5452L304.164 52.9954L302.846 53.3547L300.45 54.8235L299.295 55.5305L297.964 55.7893L296.361 56.1008L297.349 56.9436L299.706 57.8723L300.945 58.3606L301.941 59.2463L302.904 60.1028L303.949 61.0315L304.589 62.2756L306.51 66.009L306.71 66.3977L306.864 66.8069L307.183 67.6604L307.799 69.303L307.623 71.0471L307.515 72.1145L307.479 72.4719L307.409 72.8245L307.197 73.8909L306.967 75.0442L306.395 76.0725L305.862 77.0315L305.657 77.4006L305.411 77.7454L304.878 78.4924L303.902 79.8577L302.437 80.678L299.77 82.1702L298.6 82.8245L297.275 83.0334L291.185 83.9924L297.185 86.72L297.929 87.0579L298.582 87.5481L299.435 88.1877L301.568 89.7874L302.213 92.3743L302.638 94.0823L302.821 94.8157L303.898 94.3704H311.519L313.591 98.5178L314.337 100.01L314.768 100.874L314.936 101.672L315.48 102.156L315.968 102.839L316.794 103.993L317.469 104.745L317.589 104.878L317.702 105.016L318.625 106.146L320.924 108.865L321.246 109.244L321.513 109.663L322.089 110.563L322.418 110.388L322.803 110.003L323.583 109.224L324.553 108.701L325.941 107.954L327.605 107.06H332.3L333.065 107.221L337.12 108.074L335.573 115.413L334.027 122.752L331.747 122.271L331.446 122.573L330.462 123.098L328.862 123.951L328.605 124.088L328.339 124.205L326.631 124.951L325.938 125.255L325.197 125.414L323.704 125.734L322.679 125.953L321.633 125.884L318.433 125.67L315.857 125.498L313.933 123.778L311.906 121.965L311.142 121.282L310.589 120.419L309.152 118.175L307.125 115.778L307.083 115.728L307.042 115.677L306.19 114.634L305.356 113.707L305.076 113.395L304.832 113.054L304.253 112.244L303.922 111.949L303.595 111.659L303.305 111.333L302.698 110.651H297.701L295.63 108.957L294.456 107.997L293.635 107.327L293.034 106.456L292.767 106.072L290.755 104.563L288.061 102.541L287.782 99.1858L287.758 98.9124L282.765 96.6428L282.05 96.3176L281.419 95.8518L277.366 92.8645L276.157 91.9729L275.384 90.6858L274.104 88.552L273.11 86.8958L273.041 84.9641L272.932 81.9778L272.85 79.6829L274.065 77.7356L274.599 76.8811L275.637 75.218L277.357 74.2756L277.889 73.9836L279.198 70.6965L283.42 70.0315L288.619 69.2112L288.571 69.1711L284.944 66.0784L284.285 65.5168L283.771 64.8186L282.278 62.7922L281.796 62.136L281.464 61.3909L280.611 59.4709L279.897 57.8655L279.971 56.1096L280.079 53.55L280.153 51.7913L281.002 50.2493L282.176 48.1155L282.805 46.9739L283.783 46.1106L285.595 44.51L286.447 43.7581L287.484 43.2922L289.338 42.4583L289.187 42.2942L279.033 31.2083L278.248 30.5325L277.964 30.5735L277.217 30.6809L276.605 30.7678L275.986 30.7542L272.875 30.6829L270.208 33.1946L269.42 33.9368L268.454 34.425L260.767 38.3157L258.244 40.677L257.875 41.0227L257.464 41.3147L256.715 41.8459L255.005 43.0608L252.913 43.2122L252.301 43.2551L249.336 44.1956L247.988 44.8704L247.147 45.5334L244.533 48.5999L244.277 48.8997L243.991 49.1711L241.857 51.1975L241.047 51.9661L240.048 52.4661L237.49 53.7463L237.099 53.9417L236.689 54.0901L231.103 56.1135L230.335 56.552L230.317 56.5793L228.559 59.1731L227.8 61.1458L227.566 61.7542L227.231 62.3127L226.911 62.8459L226.585 63.3909L226.171 63.8723L225.529 64.6194L224.571 65.7356L223.262 66.4075L219.103 68.5403L217.988 69.1125L216.749 69.2903L216 69.3987L214.641 69.594L213.413 69.3206L213.185 69.6848L212.732 70.4084L212.129 71.012L211.703 71.4368L211.319 71.8215L210.883 72.1458L210.456 72.4651L209.922 72.8635L209.82 72.9133L209.331 73.9426L208.679 75.3108L207.548 76.3186L206.589 77.1731L205.779 77.8958L204.797 78.3577L202.102 79.6272L200.905 81.9475L200.674 82.3958L200.385 82.8079L199.638 83.8743L199.262 84.4124L197.616 86.0588L197.249 86.345L196.29 87.0911L196.074 87.259L195.847 87.4114L194.887 88.052L194.193 88.5149L193.415 88.8147L192.028 89.3479L190.728 89.8479H187.057L186 89.5295L184.932 89.2092L184.586 89.1047L184.251 88.967L179.504 87.0208L178.877 87.2307L177.837 87.2786L176.443 87.342L174.019 88.9856L173.346 89.4417L172.59 89.7424L171.524 90.1682L170.641 90.5208L169.698 90.6418L165.686 91.1555L165.189 91.2395L163.697 91.4905L162.224 91.1438L158.598 90.2893L158.02 90.1536L157.47 89.928L153.998 88.5022L141.602 86.0833L141 85.9661L140.424 85.7522L137.032 84.4895L132.76 84.4065L132.069 84.3938L131.393 84.2542L128.285 83.6135L127.1 83.5393L126.804 83.5198L126.511 83.4788L125.765 83.3713L124.312 83.1643L123.045 82.4241L122.888 82.3323L122.458 82.2522L121.423 82.0588L120.483 81.5872L118.991 80.8411L118.775 80.7336L118.568 80.6125L117.288 79.8655L116.229 79.2483L115.422 78.3254L114.675 77.4729L113.211 75.7971L112.898 73.6165L112.563 73.3948L111.67 71.5764L111.355 70.9358L111.029 70.2737L110.982 70.1008L110.953 70.0774L109.828 69.179L109.115 67.929L108.689 67.1819L108.454 66.7698L106.539 65.8098L104.689 65.2639L98.026 66.926L95.9664 60.0813L95.6451 59.0139L95.5123 58.5745L95.4352 58.1223L95.0504 55.884L94.8112 55.5491L94.5641 55.0725L93.7311 53.4622L92.8707 52.4602L92.2291 51.7141L92.0133 51.4622L91.8199 51.1917L91.4039 50.6096L90.9 50.2747H90.316L86.8268 47.9485L84.8824 46.6526L84.0182 44.4817L83.8063 43.9485L83.3073 42.6956L83.2096 42.4993L82.4645 41.0061L82.11 40.2952L81.9117 39.5266L80.6119 34.4807L80.3258 34.4153L79.528 34.0159L78.4615 33.4827L77.025 32.7649L76.0084 31.5217L75.6324 31.0618L71.2877 28.387L73.4684 26.9446L73.2145 25.842L72.5641 24.8313L70.401 22.2463L69.2594 21.6233L68.6432 21.2854L65.5514 23.2161L61.8717 15.8215L61.6598 15.3948L61.3209 14.7151L60.2516 13.8596L59.5514 11.759L59.3385 11.1184L59.3112 11.0383L58.7858 10.5129L56.8629 8.98657L61.7643 9.95337ZM-3.73376 -81.4929L-0.466187 -81.0847L-0.380249 -81.7947L2.28577 -81.4724L3.05725 -81.3796L3.36682 -81.449L3.39124 -81.3376L4.40686 -80.8914L7.07385 -79.7175L7.93518 -79.3386L8.67542 -78.7595L11.1285 -76.8396L11.5641 -76.4988L11.944 -76.0984L13.9713 -73.9656L14.8971 -72.99L15.4274 -71.7537L16.067 -70.2605L16.3307 -69.6453L16.4811 -68.9929L16.8014 -67.6062L16.9323 -67.0369L16.9742 -66.4539L17.0494 -65.3884L17.11 -65.0652L19.3297 -61.9587L19.8844 -61.1824L20.2272 -60.2917L20.7604 -58.905L21.0133 -58.2468L21.1393 -57.5535L21.3522 -56.3787L21.4313 -55.946L21.4586 -55.5066L21.7789 -50.3855L21.8326 -49.5281L21.691 -48.6804L21.5836 -48.0427L21.3112 -46.4099L20.5992 -45.3708L21.2389 -42.9656L18.3121 -39.9216L16.9918 -38.5496V-34.9919L17.5494 -32.2029L16.9918 -32.1238V-25.0632L15.1266 -26.3005L16.6539 -24.5378L17.3248 -23.7644L17.7643 -22.8386L18.7242 -20.8123L21.3883 -15.1902L21.027 -14.9285L22.5231 -11.9431L22.4459 -11.8289L28.0133 -9.04565L31.9713 -8.43237L32.2838 -8.63452L33.3951 -9.35718L34.6871 -9.65503L36.0739 -9.97534L38.1354 -10.4509L40.1422 -9.77905L40.7828 -9.56421L40.9635 -9.50366L42.0328 -9.62964L45.2789 -10.4636L46.1979 -10.7H50.3307L51.3405 -10.4109L53.5807 -9.77124L54.3395 -9.55444L55.0367 -9.18433L63.6764 -4.59741L64.2848 -4.27417L64.8239 -3.84644L68.4508 -0.966553L68.7867 -0.699951L70.6901 1.20337L71.1539 1.66821L71.5309 2.2063L72.278 3.27271L73.026 4.34204L73.1393 4.75903L75.11 6.07349L75.1569 6.40747L52.2369 -4.38843C52.0818 -4.46149 51.9099 -4.49342 51.7389 -4.4812L25.4342 -2.60229C24.7392 -2.55266 24.3071 -1.82544 24.5953 -1.19116L26.2877 2.53247C26.4212 2.82601 26.6881 3.03747 27.0045 3.09985L40.7916 5.81763L38.8434 6.1438L37.7487 5.70532L37.524 5.85181L36.6119 6.15552L35.652 6.47583L33.9274 7.05005L32.1315 6.77173L24.5582 5.59888L23.401 5.41919L22.3522 4.89575L16.2164 1.82642L11.3112 0.531494L10.6178 0.348877L9.97229 0.0373535L7.09338 -1.34937L4.46838 -2.61304L3.38538 -5.31812L2.53088 -7.45093L0.555298 -12.3845L3.25647 -14.7488L0.879517 -18.8298L1.15881 -19.0339L0.562134 -19.5554L-0.717163 -21.9011L-2.33923 -24.8738L-1.18201 -28.0564L-0.994507 -28.574L-2.90076 -30.4802L-3.37439 -32.613L-3.58826 -33.573L-4.43103 -37.3679L-1.8158 -40.2449L-1.48865 -40.6052L-8.78845 -51.5544L4.62268 -48.2019L6.04846 -50.5779L6.36877 -51.1121L6.48401 -51.3035L6.60999 -51.488L6.67444 -51.5837L6.51721 -54.0876L4.45667 -56.9734L4.04651 -57.5486L3.75061 -58.1902L3.10999 -59.5769L2.72034 -60.4226L2.54846 -61.3376L2.22815 -63.0437L2.15002 -63.4646L2.11877 -63.8923L2.0592 -64.7253L1.4469 -65.3699L0.172485 -66.3669L-0.616577 -66.7146L-2.17908 -66.9021L-4.55505 -67.1892L-6.32458 -68.7986L-7.49841 -69.866L-8.59607 -70.863L-9.23083 -72.2029L-10.1908 -74.2283L-10.5443 -74.9734L-10.7269 -75.7781L-11.2601 -78.1238L-11.5521 -79.4089L-11.389 -80.7166L-11.1752 -82.4236L-3.73376 -81.4929Z" fill="#862FE7"/>
<path d="M79.04 210.56L79.4656 209.173L79.04 207.893L78.5067 206.614L78.2934 205.121L78.72 203.841L79.4667 203.2L80.32 202.774L81.0667 201.813L81.28 199.467L79.8923 197.867L76.2667 195.733L75.7334 194.773L75.4134 193.707L74.7734 193.067L72.5334 193.387L71.8923 192.747L71.039 190.613L70.08 189.973L67.7334 189.76L66.9867 189.334L66.5611 188.054L67.4155 185.921L67.0944 184.642L66.7744 183.15L66.8822 181.337L67.3078 179.523L67.9488 178.031L67.6278 176.752L66.2411 175.792L64.9611 174.405L65.2822 172.164L65.8155 171.523L67.9488 169.923L68.5888 168.964L68.4822 168.219L66.1355 165.659L64.64 164.373L62.8267 163.627L61.119 163.84L60.3734 164.267L59.3067 164.587L58.4523 164.48L58.0267 163.627V163.2L58.3467 162.027L58.24 161.6L57.8144 161.28L57.3878 161.387L56.9611 161.493L56.4278 161.386L55.7867 160.532L55.4667 159.678L55.1467 158.825L54.8256 158.078L54.1846 157.652L51.9446 156.693L51.1979 156.481L47.1446 156.907L44.9035 156.586L43.8368 154.878L44.0491 154.132L44.7958 153.386L45.3291 152.532L45.2214 151.678L44.9014 150.611L45.008 149.652L45.4347 148.799L45.968 147.84L46.5014 146.773L48 145.173L48.64 144L49.0667 142.507L49.7078 141.548L50.5611 140.907L51.7355 140.373L52.0555 139.948L51.5222 138.56L51.6278 137.92L52.1611 137.494L53.2278 137.069L53.7611 136.428L54.1867 135.361L54.5078 133.974L54.72 132.482L54.5078 128.961L56.2155 127.149L58.4555 125.441L59.8432 123.628V122.453L59.4176 121.28L58.671 120.32L57.7099 119.573L56.751 119.252L56.0043 119.36L53.871 120.534L50.7787 120.001L49.9243 119.574L49.2843 119.149L49.0667 118.507L49.28 117.333L49.3867 116.692L49.1744 114.772V113.919L49.92 110.933L50.0278 109.653L49.4944 105.92L49.7078 103.041L49.8155 101.549L49.28 100.267L48.8534 99.84L48.4267 99.52L47.2534 99.2L46.5067 98.7734L46.719 98.3477L47.2523 97.8144L47.4656 97.2811L47.1467 96L46.8267 95.1467L46.72 94.1867L47.04 92.6934L48.64 87.36L48.4267 85.2267L45.12 83.7334L44.0534 82.88L43.2 81.7067L42.6667 80.1067L42.3467 79.5734L42.1334 78.9334V78.2934V77.6534L41.6 77.2267L41.0667 76.8L40.7467 76.2667L40.4256 75.2L40.2134 74.6667L39.8934 74.1334L40.7478 72.7467L41.8144 72L42.4544 71.1467L41.8134 68.16L42.1334 66.9856L43.4134 64.7446L42.88 62.9334L40.4267 61.44L37.6534 60.0534L36.0534 58.9867V58.3467L36.48 56.959L36.3734 56.32L35.6267 54.8267L35.4134 54.1867V53.5467L35.52 53.12V52.48L34.7734 51.0934L34.4534 49.4934L34.1334 48.7467L32.5334 47.04L32.1067 46.08L32.8523 45.2256L34.1323 44.48L35.0912 44.159H36.0534L37.4411 44.2667L38.8278 44.159L42.2411 43.3056L43.7334 43.52L48 45.4411L49.6 45.5488L50.9867 45.3355L54.2944 43.9488L55.4688 43.0944L56.5355 41.7078V40.32L56.3222 38.9334L56.64 37.3334L57.2811 36.48V35.52L57.0678 34.56L56.96 33.6L57.0678 32.32L57.3878 31.3611L59.4144 27.52L59.84 26.6667L59.9467 25.4934L59.6267 23.04L59.9478 22.1856L66.56 17.2779L68.0523 16.8523L69.0123 17.4934L70.719 19.7344L71.5734 20.6934L75.3067 22.2934L76.48 23.1467L81.92 26.7723" stroke="#862FE7" stroke-width="15"/>
<path d="M318.187 741.867L315.947 739.946L314.133 739.626L313.708 739.412L311.787 738.879L310.828 738.239L309.974 737.599L309.549 737.172L309.228 736.639L308.694 735.252L308.587 734.292L307.413 730.667L307.306 730.454L306.88 729.708L305.706 728.321L304.852 726.612L304.746 726.079L304.958 725.226L305.383 724.692L306.025 724.052L306.45 723.41L306.663 722.666L306.45 721.919L306.13 721.172L305.81 720.532L303.356 718.186L301.33 715.944L300.05 713.704L299.517 713.17L298.771 712.957H297.918L295.678 713.277L294.931 713.386L294.185 713.277L293.439 712.957L293.013 712.317L292.692 711.675L292.159 708.368L291.626 706.768L290.772 705.381L289.813 704.206L289.172 703.781L288.426 703.568L281.813 702.608L281.706 700.368L281.918 664.848L281.706 663.888L281.065 663.464H260.585L260.906 633.064L270.398 606.93L270.823 605.33L270.61 603.73L269.757 602.45L267.303 600.53L266.343 599.464L266.131 598.93L265.81 597.541L265.385 596.901L264.959 596.475L263.785 595.73L263.358 595.09L261.117 591.144L260.905 589.866L260.265 588.477L258.023 587.41L257.065 586.344L255.678 583.144L254.611 581.652L253.437 581.119L252.478 581.01L251.945 580.37L251.411 579.623L250.665 579.09L249.598 578.77L249.172 578.45V577.917L249.28 576.85L249.492 576.104L249.918 575.464L250.239 574.717L250.347 573.65L250.026 572.69L248.747 571.837L248.426 570.877L247.892 570.557L247.467 570.132L246.292 568.639L246.08 568.212L245.867 567.788L243.947 565.974L243.626 565.548L243.2 564.59L243.308 564.27L243.52 563.948L244.053 562.561L244.374 562.137L244.587 561.71V560.857L244.161 560.323L242.561 559.043L241.494 557.657L240.749 556.59L240.002 555.63L238.615 554.883L235.094 553.71H234.241L231.361 555.203L230.294 555.628L228.053 555.841L226.133 555.414L224.213 554.457L222.187 552.963L203.413 536.643L200.747 533.763L196.692 531.31L193.813 528.963L187.733 525.443L186.026 523.737L179.839 520.748L173.118 518.723L165.759 519.577L162.133 519.15L160.853 516.163L161.6 515.205L162.667 514.459L163.52 513.499L163.947 512.219L163.626 511.261L162.667 510.408L161.492 509.874L158.826 509.552L157.972 508.912V507.952L159.251 507.312L160.639 507.099L161.706 507.208L162.665 506.994L163.945 506.034L165.651 504.434L166.506 503.368L166.931 502.41V501.76L166.185 501.227L165.972 500.587V499.946L166.398 498.559V497.812L165.757 496.534L164.903 495.679L162.982 494.079L160.424 490.668L158.398 488.641L158.078 487.574L157.97 486.294L157.757 484.803L157.333 483.413L156.587 482.136L154.453 479.576L154.347 479.469L154.133 479.36L153.813 479.147H153.493H153.173L152.852 479.36L151.679 480.427L149.866 480.64L147.946 480.213L146.879 479.36L147.838 478.08L150.825 476.269L151.571 475.202L151.146 473.493L149.866 472.64L148.691 471.573L149.012 469.227L147.625 469.547L144.638 469.656L143.466 470.079L141.652 471.892L140.586 472.534L139.519 472.746L139.093 472.321V469.654L138.668 468.588L135.788 466.454L134.829 465.494L133.975 464.321L133.333 463.146L132.908 461.868L132.587 460.374L132.161 459.094L131.308 458.241L130.349 457.388L129.494 456.534L123.949 446.613L123.841 446.506L123.733 446.4H123.627L121.707 446.72L120.107 446.612L118.719 445.758L117.44 444.051L118.719 443.409L119.36 442.985L119.893 442.451L120.852 440.425L121.386 438.505L122.027 436.905L123.627 435.625L124.481 434.667L127.04 432.64L127.681 431.787V430.933L127.254 430.291L126.829 429.651L126.509 428.905L126.721 428.158L127.575 426.771L127.896 426.131L128.642 422.61L128.854 420.798L128.428 419.091L127.469 417.6L126.189 416.853H124.8L123.627 417.813L122.452 416.959L121.599 415.359L119.679 409.28L120.319 408.321L123.627 407.68L124.052 407.254L124.479 406.828L124.799 406.294L125.119 405.654L125.227 403.521L124.693 400.534L124.907 398.508L127.36 399.149L129.493 400.323L131.414 400.749L135.681 401.07L137.068 401.494H137.493L137.707 400.961L137.919 400.216V399.361L137.707 398.937L137.066 397.977L136.852 396.697L136.746 395.31L136.638 393.923L136.317 393.39L135.997 393.07L135.676 392.643L135.464 391.79L135.25 391.257L134.825 390.723L134.291 390.297L133.758 389.977L132.799 388.91L133.332 387.737L135.04 385.816L135.252 384.961L135.04 383.47L135.252 382.616L135.893 381.761L136.748 381.441L138.454 381.228L140.162 380.161L140.483 378.349L140.376 376.428L140.801 375.041L142.293 374.934L144.107 375.892L145.814 376.534L146.773 375.254L147.199 373.441L147.732 372.161L147.945 370.774L147.305 368.854L147.197 367.788V366.828L147.517 365.974L148.158 365.334L148.583 365.226L149.438 365.119L149.758 364.906L149.971 364.586L149.758 363.732L149.866 363.306L150.719 361.919L151.145 361.811L151.999 362.132L153.386 362.878L154.027 363.199L154.773 363.09L156.693 363.945L157.652 363.624L158.611 362.77L160.211 361.811H160.852L162.027 362.024L163.627 361.599L164.373 361.386L165.014 361.066L165.548 360.211L164.267 358.72L165.12 356.587L166.4 354.346L166.613 352.425L165.759 351.679H163.306L162.451 351.146L162.239 349.971L162.772 349.012L163.626 348.158L164.051 347.091L163.626 344.958L162.133 343.251L158.613 340.265L154.667 334.08L153.813 331.947V331.307L154.026 330.667L154.347 330.24L154.772 329.814L155.092 329.602V329.28V328.96L154.772 328.64L154.131 327.253L153.598 325.76L153.811 325.653H154.131L156.051 326.187L156.265 325.227L155.624 322.348V321.173L155.837 319.893L156.37 318.72L157.118 317.867L158.398 317.441L162.772 317.549L164.051 317.336L167.145 315.736L169.598 315.843L170.985 315.63L171.945 314.777L172.8 313.6L174.72 312.426L175.68 311.572L176.426 310.292L176.533 309.226L176.108 308.159L175.041 307.518L173.653 307.41L172.587 307.837L171.52 308.582L170.347 309.008L167.68 309.541L166.292 309.649L165.013 309.116L164.587 308.69L164.16 308.267L163.84 307.841L163.627 306.241L163.307 306.028L162.773 305.92L160.852 305.28H159.893L158.827 305.6L157.653 306.24L156.373 306.667L152.427 306.453L150.4 307.093H149.76L149.119 306.881H148.479L146.986 308.054L145.812 308.696L144.532 308.803L143.466 308.057L142.825 307.95L140.479 308.59L139.305 308.378L138.558 307.419L136.958 303.578L134.079 299.631L132.158 298.031L130.45 297.711L129.705 297.178L127.358 295.152L123.625 293.872H121.92L119.894 294.831L118.72 295.152L117.547 296.005L116.159 296.431L114.772 296.219L113.706 295.152H113.599L113.279 293.978L113.599 292.378L114.346 290.885L115.199 289.711L115.412 288.219L114.666 286.831L112.64 284.378L112.319 282.778L112.532 279.47L112.212 277.978L111.358 277.123L110.187 276.267L109.761 275.413L111.361 274.453L110.187 273.067L109.653 271.787L109.547 268.587L109.226 266.88L108.585 265.067L107.518 263.68L105.918 263.572L102.398 264.959L100.585 265.067L98.8779 264.32L98.1334 263.467L97.92 262.826L97.8134 262.08L97.4923 261.12L97.0667 260.48L96.5334 259.947L96.1078 259.306L96 258.347L95.2534 257.492L94.08 256.533L93.12 255.359L93.2267 254.186L93.5478 254.079L94.2934 253.76L94.5067 253.652V252.052L95.2534 249.493L96.4278 246.827L96.5355 245.44L95.8944 243.948L94.2944 241.281L93.4411 240.107L92.3744 239.573L91.52 239.467L90.88 239.253L90.239 238.828L89.6 238.187L88.8534 237.547L87.8944 237.439L85.9744 237.547L84.3744 237.12L83.0944 236.374L82.6688 235.094L83.3099 233.282L85.551 230.722L86.4 229.333L86.72 227.626L86.4 225.919L85.8667 224.746L85.4411 223.466L85.8667 221.439L86.5078 220.692L86.6155 219.839L86.1888 219.198L84.8022 218.557L84.1611 217.81L83.7355 217.598H83.0944L81.92 217.918L81.28 217.81L80.959 217.49L80.639 216.316L80.4256 215.89L80 215.57L79.5744 215.357L79.0411 215.249L78.72 214.716L78.1867 213.437V212.69L79.0411 210.557" stroke="#862FE7" stroke-width="15"/>
<path d="M1109.55 322.773L1108.05 320.533L1107.2 318.933L1106.99 316.907L1107.2 316.48L1108.05 315.626L1108.27 315.2V313.813V313.493L1108.69 311.681V310.934L1108.27 310.401L1108.69 308.801L1108.58 307.627L1108.37 306.452L1108.16 303.786L1107.73 302.507L1107.2 301.332L1106.56 300.266L1105.49 299.091L1104.43 298.132L1103.15 297.491L1101.65 297.278L1100.8 296.852L1101.55 295.999L1102.83 295.04L1103.57 294.186V293.546L1103.36 292.052L1103.57 291.199L1103.89 290.773L1104.53 290.56L1105.07 290.24L1105.28 289.386V288.746L1105.39 287.999L1105.6 287.358L1105.92 286.825L1106.56 286.079L1106.67 285.546L1106.56 285.225L1106.45 282.983L1105.49 278.397L1104.64 277.01L1104.43 276.263L1104.32 274.556L1104.21 273.809L1104 273.063L1103.79 272.53L1103.36 272.105L1102.83 271.783L1102.29 271.463L1102.4 271.038L1102.51 270.825L1102.72 270.505L1101.87 268.371L1102.19 264.746L1103.58 258.879L1103.15 257.705L1103.04 256.85L1103.36 256.105L1103.68 255.463L1104.11 254.822L1104.32 253.969L1104.43 253.115L1104.32 252.156L1104.11 251.515L1103.58 250.34L1103.04 247.781L1100.48 247.461L1097.39 246.928L1090.99 247.036L1083.63 247.248L1070.3 247.461L1061.55 247.569L1051.63 247.781L1049.61 246.715L1048.33 244.474L1046.51 239.995L1045.13 237.969L1038.51 230.395L1035.63 226.24L1033.28 221.44L1031.47 219.093L1029.12 218.134L1024 217.28L1021.65 216L1017.6 212.8L1008.64 210.026L1007.89 209.919L1007.36 210.24L1006.62 211.307L1006.19 211.84L1005.55 211.948L1004.69 211.307L1004.27 210.027L1004.06 208.64L1003.52 207.573L1002.56 206.507L1001.6 206.293L999.578 207.04H999.151L998.618 206.719L998.084 206.399L997.658 205.973L996.591 205.76L996.484 205.227L996.697 204.586V204.159L996.803 203.947L997.018 203.626L997.124 203.306L996.7 202.772L995.524 201.599L991.684 198.507L990.933 197.548L989.654 192.427L989.548 190.827L989.76 190.081L990.184 189.334L990.398 188.693L990.184 188.052L989.867 187.307L990.081 185.599L989.76 184.64L988.584 183.04L987.305 181.973L985.814 181.653L982.4 183.147L981.014 183.039L972.693 177.385L970.667 175.36L969.921 175.04L968.107 174.719L967.36 174.507L966.4 173.867L963.948 172.908L959.148 171.841L955.414 169.815L955.093 170.349L954.881 171.415L954.027 172.482L953.384 172.694H952.744L951.464 172.482H950.718L950.293 172.8L949.867 173.226L949.333 173.547L947.948 173.653L946.56 173.441L943.784 172.482L940.693 169.815L939.627 169.389H938.453L937.495 170.135L936.749 171.094L936.106 172.374L935.362 173.549L934.187 174.082L928.532 174.615L927.68 174.402L926.08 173.228L925.226 172.908L920.426 172.267L919.359 171.841L918.292 170.987L917.97 170.241V169.174L917.76 167.787L917.548 167.253L916.588 165.547V165.013L916.697 164.48V163.947L916.163 163.413L915.203 162.987L914.136 162.774L912.003 162.561L907.95 161.708L898.136 157.228L896.003 156.694L894.936 156.802L893.87 157.015L892.91 157.122L891.95 156.694L891.627 156.267L890.984 155.2L890.56 154.773L890.027 154.667L889.067 154.88L888.533 154.773L887.681 154.348L886.933 153.707L886.081 153.281L885.121 153.173L884.161 153.387L881.172 153.494L877.972 152.641L876.906 152.533L875.839 152.641L874.882 152.961L873.922 153.069L864.964 149.761L863.364 147.841L864.538 143.894L864.751 142.72L864.431 141.333L863.041 139.626L862.401 137.385L860.374 135.359L859.631 134.292L858.455 131.733L857.067 129.493L856.748 128.852V128.319L856.533 127.786L855.893 127.36L854.505 126.933H853.864H853.118L852.051 127.467L851.305 128.213L850.131 130.239L849.384 130.985L847.36 132.267L846.505 133.013L845.331 133.547L844.051 133.333L841.6 132.373L832.214 130.773L831.254 130.452L829.121 129.386L826.667 127.466L826.027 127.358L823.038 127.891L818.027 129.92L817.067 130.027L816.214 129.707L815.36 129.173L814.505 128.64L813.438 128.427L807.784 128.534L805.438 129.388L803.414 130.774L799.467 134.187L799.04 135.146L800.75 136.959L801.07 138.239L800.855 139.626L800.216 140.8L799.255 141.441L793.816 142.294L792.855 142.187L790.616 141.333L788.055 141.012L779.098 142.506H778.139L777.284 142.185L775.577 141.331L774.51 141.01H771.417L770.456 140.69L768.002 139.41L764.162 138.665H762.35L749.973 141.01L746.029 141.223L744.429 141.757L739.84 145.065L738.56 145.707L737.281 146.666L736.533 146.773L733.654 147.732L732.373 148.373L731.733 149.547L730.988 149.867L727.361 150.507L726.186 150.827L725.652 151.468L725.012 152.748L724.479 153.388L723.838 153.601L722.983 153.709L722.238 154.134L721.917 155.093L721.383 155.84L718.505 158.932L709.117 164.907L707.197 166.827L706.45 168.107L706.026 169.281L705.812 170.668L704.746 173.014L704.852 174.507L705.067 174.933L705.814 175.574L706.027 176.108L706.133 176.533L706.027 178.347L705.918 179.413L705.064 181.226L704.851 182.4L704.531 182.933L702.933 184.107L699.948 186.027L699.2 186.667L698.027 187.092L696.427 188.692L695.467 189.119H694.081L690.348 188.373L688.96 188.587L678.4 194.347L676.16 194.987H674.771L673.281 194.88H671.893L670.827 195.626L669.651 196.692L668.478 197.118L667.303 197.226L650.237 195.733" stroke="#862FE7" stroke-width="15"/>
<path d="M1082.99 747.2L1086.61 742.933L1091.3 737.174L1101.01 725.441L1106.13 719.148L1109.65 714.774L1116.48 706.561L1121.49 700.374L1128.64 691.521L1136.53 681.812L1141.76 675.521L1142.83 674.346L1142.61 674.026L1142.5 673.919L1142.61 672.532L1142.83 671.999L1143.14 671.786L1142.93 666.772L1142.61 665.919L1143.78 663.572L1144.32 661.972V660.586L1144 659.092L1143.25 656.639L1142.08 654.292L1141.97 653.546L1141.86 651.412L1141.33 649.706L1139.62 646.932L1139.09 645.439L1138.98 643.946L1139.41 640.854L1138.98 639.467L1136.74 636.588L1135.57 635.628L1133.97 634.988L1123.3 633.388L1111.03 631.574L1100.37 629.974L1089.91 628.481L1083.62 627.523L1081.59 626.67L1080.85 619.737L1079.89 616.214L1079.68 614.508L1080.53 609.067L1079.68 602.241L1079.57 598.614L1079.99 594.137L1079.89 592.537L1079.67 591.681L1079.35 590.937L1079.14 590.19L1079.67 588.59L1079.35 588.163L1078.82 587.843L1078.61 587.417L1079.14 586.243L1080.74 584.217L1081.17 582.938L1081.91 577.071L1082.12 571.097L1079.99 563.204L1077.22 552.963L1074.66 544.43L1072.42 536.75L1070.18 529.392L1068.04 522.245L1066.34 516.165L1065.38 511.474L1065.27 505.607L1065.69 504.647L1068.68 500.594L1072.09 496.007L1075.08 491.952L1077.54 488.752L1079.35 487.152L1081.37 485.874L1082.02 485.127L1082.34 483.634L1082.23 482.354L1082.02 481.076L1082.23 480.01L1083.29 479.367L1086.28 479.154L1087.14 478.834L1087.78 477.876L1087.14 476.81L1086.18 475.85L1085.11 475.316L1083.08 474.783L1080.63 474.676L1076.04 474.887L1071.14 474.463L1066.12 472.436L1062.18 468.703L1060.68 463.37L1061.11 460.916L1063.03 456.65L1063.24 453.77L1061.43 442.463L1060.58 435.103L1061 431.796L1062.71 428.383L1064.74 425.824L1066.87 423.691L1069.86 422.091L1070.82 421.024L1070.39 419.532L1074.87 419.212L1081.16 418.891L1085.85 418.57L1085.11 417.183L1080.52 411.316L1079.45 409.396L1078.92 408.543L1078.17 407.901L1076.57 407.155L1076.04 406.73L1075.51 404.916L1075.08 404.383L1074.55 404.17L1073.91 404.063L1074.87 402.463L1076.36 401.716L1079.77 401.291L1081.37 400.865L1082.55 400.012L1085.43 396.812L1085.75 396.278L1086.17 395.745L1087.03 395.318L1087.88 395.212H1088.63L1089.37 395.103L1090.01 394.25L1090.33 392.436L1090.12 390.516V388.81L1091.29 387.53L1093.32 386.036L1094.49 383.903L1094.82 382.624L1096.74 382.091L1097.27 379.636L1097.48 376.97V376.33L1097.16 375.05V374.303L1097.37 373.345L1098.23 371.957L1098.44 371.212L1098.65 369.824L1099.51 367.05L1099.93 363.957L1100.36 362.891L1101.85 360.865L1101.21 360.224L1101.1 359.583L1101.32 358.943L1101.43 358.089L1101.21 357.767L1098.97 354.889L1098.65 354.143L1099.08 353.822L1099.72 353.501V352.755L1099.4 352.114L1099.08 351.794L1098.97 351.047L1099.08 349.447L1099.4 347.955L1100.36 347.21H1101.63L1103.13 346.889L1104.3 346.247L1104.83 344.967L1104.52 341.127L1104.83 339.634L1105.16 338.889L1106.54 337.181L1106.86 336.434L1107.4 334.089L1108.14 332.701L1109.53 330.889L1110.38 329.501L1110.81 328.01L1110.6 326.516L1109.96 323.53L1109.53 322.783" stroke="#862FE7" stroke-width="15"/>
<path d="M1129.49 1090.35L1131.41 1084.16L1131.73 1077.97L1132.16 1070.61L1132.58 1064.32L1132.8 1059.95L1133.01 1058.88L1133.44 1058.24L1134.29 1057.28L1134.72 1056.64L1134.93 1054.08L1134.18 1051.2L1133.86 1048.53L1135.25 1046.61L1136.53 1046.19L1137.81 1046.29L1138.88 1045.97L1139.83 1044.8L1140.16 1043.41L1140.8 1038.29L1141.54 1032.21L1142.18 1027.63L1142.72 1023.68L1143.25 1019.2L1143.78 1016.85L1144.64 1014.93L1146.24 1013.65L1153.7 1011.41L1155.94 1009.81L1157.12 1009.17L1158.4 1008.75L1160.96 1008.32L1161.6 1007.57L1161.81 1005.76L1162.88 1003.95L1165.22 1004.27L1168 1005.34L1170.34 1005.66L1171.62 1004.91V1003.84L1170.98 1002.46L1170.66 1000.86L1171.09 999.897L1173.11 997.872L1173.76 996.592L1173.65 996.165L1173.43 995.741L1173.22 995.208L1173.33 994.565L1173.76 994.032L1174.29 993.608L1175.46 993.181L1176 992.861L1176.85 992.219L1177.38 992.008L1177.92 991.899L1179.2 992.008L1179.84 991.794L1180.26 991.474L1180.8 990.514L1181.22 990.087L1181.86 989.876L1192.32 988.701L1193.6 988.276L1194.13 987.85L1194.56 987.316L1195.09 986.89L1195.83 987.103L1196.48 987.423H1197.01L1198.93 986.998L1199.46 986.785L1200 986.572L1200.32 986.147L1201.06 984.972L1201.49 984.225L1202.13 984.014L1206.4 984.121L1211.3 984.334L1216.96 984.441L1219.41 984.867H1221.86L1223.68 984.441L1224.32 984.549L1224.85 984.761L1225.28 985.083L1225.7 985.403H1226.34L1227.84 984.016L1228.48 981.027L1228.9 970.361L1229.44 969.187L1230.4 968.654L1232.96 968.227L1233.91 967.269L1234.13 965.883L1233.59 964.707L1232.74 963.534L1232.21 962.147L1231.89 953.825L1231.99 952.972L1232.31 952.225L1232.96 951.267L1233.17 950.521L1233.81 949.347L1235.09 948.705H1236.48L1237.54 949.132L1235.41 944.223L1234.45 942.836L1233.81 942.09L1233.28 941.665L1231.68 941.132L1231.03 940.598L1229.43 939.105L1228.58 938.785H1227.94L1224.53 939.958H1223.78L1222.71 939.852L1221.11 939.958L1217.81 940.918L1216.21 941.238L1212.58 941.985L1210.87 942.092L1208.85 941.667L1207.36 940.814L1206.93 940.601L1206.5 940.707L1205.65 941.241H1205.12L1204.16 940.707L1201.49 938.149H1202.45L1203.09 937.616L1203.41 936.761L1203.73 935.694L1203.84 934.521L1203.52 933.774L1202.34 932.174L1205.65 924.387L1205.97 921.401L1205.65 917.558L1205.01 910.734L1204.69 907.001L1204.26 901.025L1203.84 896.652L1202.24 889.612L1201.06 884.49L1202.02 876.17L1202.98 868.596L1202.66 866.036L1201.27 865.078L1191.03 867.318L1189.76 866.465L1185.81 861.985L1184.96 860.385L1184.53 859.105L1184.1 858.358L1183.46 857.934L1182.4 857.614L1181.44 856.972L1180.8 856.118L1180.26 855.158L1179.52 854.201L1177.81 853.241L1169.49 851.534L1164.37 849.081L1162.34 848.654L1158.18 848.334L1156.26 847.692L1153.27 845.881L1149.54 844.814L1148.47 844.172L1146.45 841.825L1142.5 837.985L1139.94 834.465L1133.44 828.385L1131.62 826.145L1129.81 822.09L1128.1 819.956L1127.68 818.89L1127.57 817.612L1127.25 816.223L1124.58 809.932L1124.05 809.185L1123.3 808.545L1122.56 808.223L1122.02 807.798L1121.92 807.372L1122.02 806.947L1122.56 806.521L1123.09 805.881L1123.3 805.134L1123.09 804.492L1122.56 804.067L1121.49 803.534L1120.96 802.467L1120.64 801.187L1120 800.227L1119.36 799.803L1118.71 799.694L1118.18 799.483L1117.54 798.736L1117.22 797.883L1117.01 796.069L1116.79 795.216L1116.05 793.936L1114.02 791.694L1113.49 790.203V788.816L1114.23 786.149L1114.34 784.761L1113.7 782.841L1112.63 782.094L1111.36 781.561L1110.08 780.494L1104.96 774.203L1100.05 768.227L1095.36 762.361L1091.3 757.349L1087.99 753.403L1082.98 747.216" stroke="#862FE7" stroke-width="15"/>
<path d="M363.427 695.497L368.183 694.704L367.364 704.324L367.256 705.604L367.153 706.81L366.677 707.923L366.356 708.67L365.98 709.546L365.397 710.301L363.987 712.125L363.676 712.72L364.73 713.474V716.321L366.065 716.098L368.014 716.877L368.445 717.05L368.902 716.974L369.801 716.825L370.71 716.895L372.097 717.001L372.563 717.038L373.021 717.13L373.555 717.24L374.518 717.436L375.399 717.875L376.042 718.195L376.469 718.408L376.864 718.672L377.479 719.083L377.8 719.295L380.207 720.893L380.715 722.885L380.834 723.065L381.11 723.728L381.643 725.008L381.69 725.121L396.413 715.44L397.232 714.901L398.163 714.59L400.404 713.844L400.91 713.675L401.435 713.58L403.781 713.154L404.978 712.937L406.184 713.109L408.426 713.43L409.314 713.558L410.148 713.891L412.281 714.745L413.01 715.036L413.662 715.472L414.62 716.112L416.467 717.345L417.344 719.385L417.665 720.131L417.903 720.685L418.05 721.27L418.119 721.548L418.227 721.737L418.308 721.845L418.475 721.975L422.215 724.887L421.232 729.32L421.993 731.44L422.816 733.735L422.615 734.423L424.948 737.348L423.708 739L423.806 739.059L424.442 739.441L424.992 739.941L426.166 741.007L426.849 741.628L427.36 742.397L428.854 744.637L429.08 744.976L429.268 745.337L431.851 750.304L433.046 752.095L434.408 753.627L434.846 754.12L435.19 754.68L436.043 756.066L436.259 756.417L437.135 756.767L438.658 757.376L439.788 758.566L441.813 760.7L442.213 761.121L442.544 761.598L443.503 762.985L444.11 763.864L444.441 764.857L446.422 766.519L446.723 766.771L446.768 766.792L447.727 767.215L449.626 768.055L450.822 769.752L452.102 771.566L452.429 772.03L452.683 772.538L453.429 774.031L453.773 774.723L453.971 775.471L454.504 777.496L454.644 778.028L454.705 778.576L455.026 781.456L455.072 781.87V783.4L457.434 784.335L456.206 790.475L456.165 790.677L455.989 792.32L456.367 792.295L457.407 792.228L458.426 792.446L459.92 792.766L463.444 793.521L464.551 795.734L465.362 796.429L465.873 796.867L467.321 796.473L470.069 801.97L470.603 803.037L471.178 804.186L471.337 805.46L471.55 807.167L471.671 808.128L471.542 809.088L471.329 810.689L471.163 811.931L470.603 813.051L470.177 813.905L469.749 814.758L470.133 816.639L469.81 816.96L469.944 816.993L470.988 817.651L473.015 818.928L474.019 819.562L474.779 820.474L476.379 822.397L476.896 823.018L477.268 823.735L478.655 826.402L479.091 827.239L479.306 828.158L480.052 831.358L480.238 832.156L480.248 832.976L480.345 841.565L480.586 842.624L483.732 850.892L485.245 852.566L485.703 853.072L486.061 853.652L488.089 856.933L488.242 857.13L489.966 858.766L490.707 859.47L491.232 860.346L492.513 862.48L493.473 864.081L493.571 865.944L493.678 867.969L493.756 869.451L493.264 870.85L492.692 872.474L494.811 874.593L496.32 875.041L496.854 875.199L497.359 875.434L498.96 876.181L501.187 877.22L502.367 879.376L503.01 880.55L503.709 881.828L503.879 883.275L503.935 883.753L505.92 885.885L506.132 885.952L508.438 886.671L509.624 888.248L512.407 888.465L512.525 888.456L515.616 887.728L516.464 887.529H521.48L522.491 887.818L523.982 888.245L525.255 888.609L525.564 888.833L527.315 888.572L528.4 888.409L529.486 888.564L532.473 888.989L533.552 889.143L534.542 889.597L537.102 890.772L537.679 891.036L538.202 891.394L540.547 892.994L541.08 893.358L541.544 893.807L548.169 900.24L548.715 900.537L558.804 902.865L559.536 903.034L560.221 903.345L562.567 904.412L563.507 904.839L564.297 905.504L566.323 907.212L566.662 907.498L566.966 907.822L571.658 912.834L572.262 913.479L572.699 914.246L573.124 914.993L573.394 915.466L573.593 915.973L573.86 916.657L574.25 916.803L575.775 917.375L576.926 918.526L577.885 919.486L579.187 920.791L579.737 922.549L580.27 924.256L581.623 928.583L580.768 929.44L580.788 929.455L583.028 931.054L583.467 931.368L583.856 931.741L587.556 935.284L588.695 935.622L589.782 935.944L590.725 936.573L592.004 937.426L594.143 938.854L594.42 939.683L594.56 939.72L596.74 940.297L598.241 941.982L599.096 942.941L599.504 943.4L600.178 943.64L621.403 951.215L622.185 951.494L622.887 951.937L624.912 953.216L626.041 953.928L626.854 954.987L627.921 956.375L628.641 957.31L629.037 958.421L629.57 959.914L629.969 961.027L630.005 962.208L630.054 963.826L634.328 967.2L638.694 969.979L639.278 970.351L639.784 970.824L640.24 971.25L640.646 971.279L642.139 971.387L643.119 971.458L644.048 971.779L645.032 972.119L646.219 971.773L646.713 971.629L647.223 971.553L648.918 971.302L651.9 969.813L652.951 969.288L654.112 969.109L655.499 968.896L656.065 968.808H658.726L660.067 969.345L660.601 969.558L661.856 970.061L662.63 970.763L662.851 970.83L666.597 971.953L669.781 971.665L670.498 971.485L670.741 971.424L670.989 971.379L672.163 971.167L673.394 970.945L674.632 971.134L676.018 971.346L678.194 971.679L679.846 973.136L681.659 974.736L682.698 975.653L683.342 976.881L684.515 979.123L684.679 979.435L684.811 979.761L685.084 980.428L687.614 980.333L688.471 980.301L689.313 980.463L692.087 980.997L694.347 981.431L697.787 984.872L698.997 986.083L699.228 986.745L701.806 986.54L702.648 986.471L703.485 986.593L703.799 986.639L709.233 983.276L714.744 978.457L715.307 977.963L715.921 977.613L719.324 974.389L720.257 973.506L721.43 972.984L722.388 972.557L722.802 972.373L723.235 972.24L725.558 971.525L725.982 970.736L727.107 968.644L729.232 967.581L731.578 966.408L733.69 965.351L736.027 965.695L738.908 966.12L739.655 966.23L740.366 966.487L741.439 966.875L746.9 960.391L750.313 956.337L750.742 955.829L751.254 955.403L751.895 954.87L752.561 954.315L753.103 954.042L754.268 952.879L755.125 952.023L756.208 951.48L756.832 951.166L760.091 947.908L760.31 949.777L762.35 950.193L762.883 950.301L762.902 950.306L762.923 950.31L763.706 950.474L764.142 950.135L766.017 949.824L766.658 949.716L767.269 949.615H769.738L771.397 949.199L771.739 949.113L772.088 949.059L772.714 948.962L773.445 948.378L775.046 947.098L775.352 946.853L775.683 946.641L779.33 944.302L779.945 943.75L780.103 943.608L780.27 943.474L780.277 943.468L780.411 943.267L780.827 942.638L781.36 942.105L782.428 941.039L782.801 940.665L783.224 940.347L783.649 940.027L784.867 939.111L786.347 938.744L788.055 938.319L788.847 938.122L789.663 938.1L791.71 938.044L792.121 937.729L793.32 936.807L794.782 936.422L796.808 935.889L797.545 935.695L798.306 935.653L802.146 935.442L802.974 935.396L803.791 935.533L805.711 935.852L806.572 935.996L807.377 936.333L810.107 937.477L810.673 937.611L813.852 937.787L814.23 937.806L814.596 937.349L819.483 938.853L819.853 938.966L825.296 939.056L826.996 939.083L828.243 939.706L835.784 932.155L838.185 944.92L843.233 945.812V948.179L863.102 938.25L849.903 958.115L854.42 962.631L850.533 964.296L850.721 964.577L851.473 965.702L851.783 967.019L855.837 984.195L855.982 984.814L856.022 985.449L856.235 988.863L856.277 989.531L856.2 990.197L855.252 998.347L855.685 998.781L856.207 999.75L856.954 1001.14L857.372 1001.91L857.599 1002.76L858.023 1004.36L858.182 1004.96L858.241 1005.57L858.347 1006.67L859.47 1008.08L859.18 1009.81L861.028 1011.94L861.935 1012.99L862.408 1014.29L863.263 1016.64L864.281 1019.43L863.103 1022.17L862.461 1023.66L861.971 1024.8L861.362 1025.47L861.375 1025.55L861.433 1025.9L862.462 1027.16L863.85 1028.87L864.534 1029.71L865.206 1030.38L865.778 1031.87L866.311 1033.26L866.477 1033.69L866.588 1034.13L867.21 1036.62L868.515 1039.89L868.881 1040.8L872.25 1041.06L891.265 1042.51L890.787 1042.89L891.966 1043.18L893.745 1043.63L895.116 1044.85L896.076 1045.7L897.185 1046.69L898.867 1046.27L900.606 1045.83L902.354 1046.23L904.7 1046.76L907.384 1047.37L909.036 1049.58L910.957 1052.14L911.435 1052.77L911.768 1053.49L913.198 1056.59L913.784 1056.69L914.367 1056.88L915.666 1057.31L915.988 1057.07L916.983 1056.31L918.17 1055.92L918.491 1055.81L919.678 1055.42L920.412 1054.68H921.892L924.196 1053.91L924.836 1053.52L926.135 1053.24L928.159 1052.82L928.707 1052.7L929.266 1052.67L931.08 1052.56L942.467 1051.89L941.625 1054.21L951.567 1056.18H957.216L958.227 1056.46L958.973 1056.68L961.811 1057.49L962.602 1058.8L963.768 1059.36L966.223 1060.53L967.795 1061.29L968.875 1062.65L970.475 1064.68L970.795 1065.09L971.057 1065.53L972.307 1067.66L974.797 1066.68L976.031 1067.6L976.515 1067.36L977.58 1066.81L978.764 1066.62L983.361 1065.88L991.51 1062.84L992.643 1062.41L993.851 1062.37L996.731 1062.26L998.185 1062.21L999.555 1062.7L1002.22 1063.66L1003.9 1064.26L1005.13 1065.56L1007.75 1068.33H1008.04L1018.73 1067.2L1020.91 1066.97L1022.87 1067.95L1023.94 1068.49L1026.72 1069.88L1026.74 1069.92L1027.87 1069.59L1028.61 1069.38L1029.37 1069.32L1032.04 1069.1L1033.46 1068.99L1034.82 1069.4L1035.7 1069.67L1036.68 1069.51L1038.47 1070.12L1038.79 1070.23L1040.13 1070.68L1040.32 1070.56L1041.82 1070.28L1043.53 1069.96L1044.03 1069.86L1044.55 1069.84L1046.79 1069.73L1047.32 1069.7L1047.84 1069.75L1049.02 1069.86L1050.69 1070.02L1051.23 1068.93L1053.1 1067.8L1054.17 1067.16L1054.92 1066.71L1055.76 1066.44L1060.13 1065.06L1060.88 1064.82L1061.66 1064.74L1062.72 1064.63L1063.47 1064.56L1064.22 1064.63L1065.28 1064.74L1067.15 1064.93L1068.71 1065.97L1069.67 1066.61L1070.35 1067.07L1070.92 1067.66L1073.26 1070.12L1074.43 1071.34L1074.96 1072.94L1075.17 1073.58L1075.55 1074.73V1078.07L1076.66 1078.21L1077.15 1078.27L1077.62 1078.39L1085.97 1080.55L1095.92 1082.32L1096.37 1082.4L1096.81 1082.53L1107.27 1085.73L1110.35 1086.67L1111.79 1089.56L1111.79 1089.57L1112.07 1089.64L1118.21 1084.93L1119.59 1083.86L1119.96 1083.58L1120.02 1083.46L1120.76 1081.98L1122.05 1080.95L1122.59 1080.53L1127.83 1076.36L1132.56 1081.09L1132.88 1081.41L1133.74 1082.27L1133.76 1082.31L1135.74 1083.89L1135.89 1084.76C1137.12 1085.86 1137.97 1087.35 1138.27 1089.02L1152.54 1099.82L1131 1098.13L1130.55 1099.02L1130.45 1099.24L1130.41 1099.3L1142.03 1112.59L1118.82 1106.79L1106.45 1103.7L1105.93 1103.57L1105.43 1103.36L1103.09 1102.4L1100.47 1101.34L1099.29 1098.98L1092.85 1097.01L1083.07 1095.27L1082.78 1095.22L1082.49 1095.15L1074.32 1093.03L1069.49 1092.43L1069.62 1092.83H1057.51L1056.5 1092.54L1055.76 1092.33L1053.95 1091.81L1052.59 1090.5L1049.91 1087.9L1048.24 1087.56L1046.72 1087.26L1046.62 1087.18L1042.55 1091.25L1037.43 1087.83L1037.12 1087.62L1036.44 1087.52L1034.96 1087.3L1033.69 1086.53L1033.16 1086.21L1031.71 1085.35L1031.01 1084.3L1029.48 1084.75L1028.94 1085.64L1025.96 1086.4L1025.54 1086.51L1021.5 1087.54L1018.49 1084.66L1016.28 1082.55L1009.22 1083.29L1008.82 1083.33H1004.33L1002.85 1082.65L1000.29 1081.48L998.966 1080.87L997.966 1079.82L995.604 1077.32L987.906 1080.2L987.205 1080.46L986.467 1080.58L982.317 1081.24L979.861 1082.5L979.09 1082.9L978.247 1083.11L976.969 1083.43L975.332 1083.84L973.678 1083.51L973.144 1083.4L973.026 1083.38L972.883 1083.43L971.373 1083.31L969.985 1083.21L969.349 1083.16L968.728 1083L967.449 1082.68L966.969 1082.56L966.508 1082.37L965.441 1081.95L964.007 1081.38L962.915 1080.29L962.167 1079.54L961.485 1078.86L960.998 1078.03L958.48 1073.74L956.497 1073.84L954.542 1072.67L954.009 1072.35L952.32 1071.33L952.23 1071.18H950.095L949.373 1071.03L939.391 1069.05L936.776 1069.48L935.942 1069.61L935.098 1069.56L931.789 1069.35L930.127 1069.24L929.468 1068.88L929.034 1069.28L927.055 1069.72L926.097 1069.93L925.442 1070.07L925.392 1070.1L924.607 1070.37L923.965 1070.58L922.268 1071.14L921.29 1071.89L919.361 1072.17L917.121 1072.49L915.846 1072.67L914.583 1072.42L912.449 1071.99L911.993 1071.9L911.551 1071.75L910.211 1071.31L908.795 1071.08L907.653 1070.9L906.62 1070.38L904.912 1069.53L903.175 1068.66L902.077 1067.06L900.69 1065.04L900.333 1064.51L900.068 1063.94L899.31 1062.3L898.457 1063.07L897.951 1063.52L897.372 1063.88L895.986 1064.73L894.178 1065.85H882.804L883.548 1058.42L882.707 1058.62L881.268 1058.41L880.52 1058.3L879.078 1058.09L878.718 1057.88L878.248 1057.96L877.139 1058.15L876.023 1058L874.424 1057.78L873.746 1057.69L873.097 1057.48L868.83 1056.1L867.81 1055.77L862.685 1055.38L860.848 1055.23L859.283 1054.26L858.429 1053.73L856.342 1052.42L856.165 1051.98L855.581 1051.79L855.967 1051.48L855.432 1050.14L855.008 1049.07L854.643 1048.15L854.527 1047.17L854.217 1044.53L853.094 1041.72L852.905 1041.25L852.782 1040.76L852.441 1039.4H849.992L848.263 1034.31L848.154 1033.99L848.053 1033.69L847.977 1033.39L847.823 1032.77L847.046 1030.34L846.879 1029.82L846.789 1029.28L846.742 1029L846.528 1028.54L846.037 1027.48L845.892 1026.32L845.785 1025.46L845.634 1024.25L845.874 1023.06L846.194 1021.46L846.601 1019.44L847.148 1018.83L845.533 1016.97L843.221 1014.3L843.725 1011.28L843.632 1010.33L843.375 1007.68L842.267 1006.58L841.722 1005.49L841.401 1004.84L841.16 1004.36L840.99 1003.85L840.778 1003.21L840.556 1002.54L840.463 1001.84L840.249 1000.24L840.184 999.749V998.069L840.233 997.637L841.223 989.131L841.091 987.022L837.569 972.098L836.477 971.114L835.718 970.43L835.17 969.568L834.423 968.395L833.602 967.105L833.249 966.695L832.609 965.951L830.215 963.166L829.574 962.524L828.166 961.116L828.113 960.985L825.673 959.137V957.879L823.06 954.839L822.447 954.61L821.925 954.002L820.529 953.979L818.504 956.524L812.805 952.868L812.605 952.74L809.186 952.552L808.524 952.516L807.879 952.364L806.067 951.937L805.462 951.794L804.889 951.554L802.384 950.504L802.143 950.464L800.012 950.582L799.874 950.688L799.393 951.057L798.859 951.345L797.473 952.091L795.902 952.938L794.118 952.986L793.225 953.009L790.503 954.824L790.184 955.038L788.948 955.861L788.897 955.871L788.449 956.274L787.937 956.602L785.631 958.081V958.577L782.582 960.601L782.046 961.138L780.673 962.511L778.806 963.045L778.06 963.259L777.602 963.39L777.132 963.462L774.709 963.832L772.489 964.389L771.591 964.615H769.962L769.499 964.975L767.761 965.323L767.227 965.429L766.499 965.575H762.785L762.233 966.125L762.247 966.238L762.031 967.372L761.604 969.612L761.522 970.045L761.389 970.466L760.749 972.494L760.447 973.449L759.906 974.291L758.946 975.784L758.455 976.547L757.797 977.171L755.771 979.091L755.061 979.764L754.203 980.233L751.856 981.512L750.882 982.044L749.795 982.27L747.236 982.804L746.339 982.991L745.423 982.957L742.544 982.847L741.375 982.803L740.275 982.406L737.581 981.43L737.312 981.88L735.637 984.672L732.453 985.355L730.96 985.675L730.845 985.7L730.729 985.72L729.996 985.853L728.57 986.292L725.585 989.121L724.932 989.739L724.151 990.185L724.054 990.24L718.643 994.973L718.179 995.38L717.652 995.706L711.673 999.406L711.43 999.649L711.018 1000.06L709.644 1001.44L707.772 1001.98L707.027 1002.19L704.965 1002.78L702.903 1002.19L702.156 1001.98L701.206 1001.7L701.105 1001.64L697.668 1001.92L696.795 1001.99L695.93 1001.85L693.156 1001.43L689.759 1000.9L687.937 997.99L686.87 996.284L686.428 995.575L686.363 995.391L682.525 995.537L680.603 995.609L678.885 994.749L676.539 993.574L674.467 992.536L673.341 990.51L672.274 988.589L672.058 988.2L671.889 987.788L671.394 986.58L667.027 986.976L666.115 987.058L665.21 986.919L663.823 986.706L663.309 986.626L662.81 986.477L658.879 985.298L658.159 985.155L657.709 985.065L657.273 984.92L656.632 984.708L656.038 984.512L653.479 985.792L652.295 985.967L649.924 986.317L647.861 986.919L647.112 987.138L646.335 987.198L644.947 987.304L643.394 987.423L641.923 986.915L641.121 986.637L639.359 987.52L636.554 986.718L635.807 986.504L634.07 986.008L632.75 984.776L630.056 982.261L625.947 979.647L625.626 979.442L625.327 979.206L619.248 974.406L618.606 973.899L618.089 973.266L617.129 972.092L616.021 970.737L615.628 969.031L615.308 967.643L615.142 966.924L615.119 966.187L615.079 964.884L595.81 958.008L595.13 957.904L594.786 957.851L594.448 957.767L593.17 957.447L590.717 956.833L589.137 954.86L588.282 953.792L588.06 953.516L587.099 953.262L584.845 952.667L583.325 950.898L582.685 950.151L581.917 949.256L581.55 949.148L579.808 948.631L578.496 947.375L573.871 942.947L572.646 942.073L565.185 938.637L563.696 937.952L562.629 936.708L561.349 935.215L559.739 933.338L559.56 930.873L559.453 929.379L559.292 927.149L560.379 925.194L560.798 924.44L560.584 923.893L559.952 922.278L556.324 918.402L555.419 917.639L554.697 917.311L544.34 914.922L543.338 914.691L542.435 914.199L540.088 912.918L539.189 912.428L538.455 911.715L531.556 905.018L530.27 904.141L529.277 903.685L528.456 903.568L525.274 904.045L523.614 904.294L522.007 903.812L520.939 903.493L519.72 903.126L518.896 902.529H518.203L515.429 903.182L514.893 903.308L514.346 903.355L513.065 903.463L512.456 903.515L511.846 903.468L505.019 902.935L504.268 902.875L503.543 902.668L502.797 902.456L499.949 901.642L498.541 899.295L498.528 899.292L497.382 898.335L496.104 897.268L495.742 896.966L495.421 896.622L492.541 893.528L492.185 893.146L491.886 892.718L491.14 891.652L490.755 891.102L490.474 890.494L489.834 889.107L489.649 888.708L489.178 888.568L487.888 888.185L486.81 887.377L485.53 886.417L485.104 886.098L484.728 885.722L480.352 881.349L479.913 880.909L479.552 880.403L479.018 879.657L478.078 878.34L477.765 876.754L477.553 875.687L477.452 875.175L477.422 874.655L477.313 872.735L477.228 871.239L477.726 869.825L478.251 868.328L477.504 867.619L477.095 867.23L476.748 866.784L476.001 865.824L475.754 865.505L475.542 865.163L473.662 862.121L472.091 860.382L471.802 860.063L471.552 859.712L471.018 858.965L470.456 858.178L470.112 857.274L466.379 847.462L466.191 846.97L466.074 846.458L465.541 844.111L465.364 843.332L465.355 842.534L465.258 833.969L464.911 832.482L464.334 831.373L464.018 830.994L463.125 830.779L461.141 830.614L460.456 830.556L459.794 830.376L458.618 830.056L456.039 829.354L454.485 827.179L453.952 826.432L453.345 825.583L452.993 824.598L452.841 824.173L450.641 821.238L450.016 820.404L449.642 819.432L449.108 818.045L448.824 817.306L448.7 816.524L448.38 814.5L448.219 813.478L448.34 812.452L448.553 810.638L448.759 808.885L448.244 808.822L446.536 808.608L444.147 808.31L442.379 806.677L440.992 805.397L439.384 803.913L438.827 801.796L438.294 799.772L438.159 799.262L438.098 798.738L437.884 796.924L437.724 795.561L438.057 794.229L438.269 793.375L438.51 792.417L438.99 791.552L439.356 790.891L439.5 790.569L439.81 789.635L439.904 789.348L439.196 788.033L439.846 785.266L440.072 784.3V782.696L439.858 780.785L439.662 780.041L439.517 779.748L438.564 778.398L438.965 778.115L438.605 778.179L437.137 779.141L436.73 778.52L436.711 778.524L436.681 778.445L435.93 777.295L433.472 775.233L432.413 774.344L431.741 773.137L431.208 772.179L430.867 771.567L430.645 770.902L430.557 770.636L430.537 770.608L430.039 770.083L427.83 769.201L425.79 768.384L424.513 766.596L423.979 765.85L423.227 764.796L422.871 763.551L422.734 763.072L421.49 761.673L421.145 761.286L420.858 760.854L419.149 758.294L418.922 757.954L418.733 757.59L416.149 752.623L415.411 751.515L413.422 750.322L412.488 749.761L411.752 748.958L409.405 746.398L409.015 745.972L408.693 745.491L408.48 745.171L407.757 744.086L407.442 742.821L407.229 741.967L407.079 741.364L405.232 740.442L406.164 737.247L404.537 731.549L406.036 731.382L405.65 730.305L405.708 730.044L405.67 729.994L405.438 729.59L404.665 728.238L404.64 728.243L403.835 728.511L385.029 740.878L384.474 741.245L383.861 741.506L381.62 742.466L379.251 743.482L376.758 742.826L374.731 742.292L371.981 741.568L370.402 739.202L368.694 736.641L367.833 735.349L367.555 733.821L367.342 732.648L367.313 732.493L366.68 732.584L364.997 732.026L364.73 731.937L364.705 731.949L363.805 732.359L362.828 732.52L361.549 732.733L360.687 732.875L359.817 732.817L358.218 732.708L355.409 732.52L353.418 730.53L352.778 729.889L350.47 727.581L350.479 727.29L349.476 726.652L348.3 725.906L347.213 725.214L347.083 726.383L346.986 727.252L346.692 728.076L346.609 728.307L346.617 728.341L346.81 729.176V731.684L346.643 732.463L346.321 733.957L346.021 735.352L345.229 736.541L344.376 737.82L343.751 738.757L342.879 739.47L341.705 740.428L340.41 741.486L338.787 741.892L337.508 742.213L336.229 742.534L334.919 742.4L332.467 742.148L330.032 743.032L328.363 742.274L327.897 742.834L327.364 743.475L326.879 744.056L326.288 744.53L325.222 745.383L324.102 746.279L322.731 746.699L321.345 747.123L319.931 747.555L319.712 747.535L318.969 748.278L317.025 748.796L315.425 749.222L314.129 749.568L312.793 749.443L309.452 749.129L309.98 738.906L301.186 730.499L302.104 730.805L303.286 731.199L304.277 731.954L305.61 732.968L308.327 733.958L308.922 734.014L314.604 726.475L315.072 723.659L316.49 723.974L322.061 716.584V725.213L322.804 725.379L323.763 725.592L324.836 725.832L326.756 726.906H330.5L330.578 726.877L331.386 726.959L331.606 726.081L331.82 725.228L331.909 724.871L332.033 724.524L332.159 724.169L332.011 722.625L331.94 722.365L331.417 721.928L331.155 721.71L330.915 721.47L329.848 720.404L328.596 719.152L328.036 717.472L327.503 715.872L327.079 714.6L326.121 713.78L327.716 708.995L328.036 708.035L328.318 707.188L328.791 706.431L329.325 705.579L329.383 705.485L329.444 705.393L329.657 705.074L330.102 704.405L330.68 703.846L331.912 702.652L332.845 699.388L333.271 697.895L334.045 695.188L336.408 693.659L338.222 692.486L340.578 690.96L343.276 691.347L343.832 691.069H347.769L348.128 691.176H352.066L353.267 691.777L357.429 690.944L357.458 690.993L362.126 688.99L363.427 695.497Z" fill="#862FE7"/>
<path d="M277.121 -182.827L280.534 -178.24L282.454 -176.319L285.868 -174.078L286.934 -173.119L294.826 -160.211L296.534 -158.186L298.881 -156.265L299.948 -154.878L300.481 -153.386L300.692 -151.786L301.226 -150.186L305.172 -142.719L306.986 -141.119L309.866 -140.052L312.852 -139.519L315.519 -138.131L317.119 -135.998L317.759 -135.465L319.681 -134.398L321.921 -132.691L327.362 -125.865L329.496 -123.945L330.454 -122.878L330.774 -121.065L335.041 -116.798L337.388 -112.211L338.668 -111.786L339.734 -110.827L340.481 -109.76L341.014 -108.8L342.506 -106.88L342.719 -106.454L343.039 -106.133L344.639 -105.709L345.172 -105.495L346.027 -104.215L350.186 -96.5355L351.146 -95.3621L351.891 -93.9755L352.317 -92.3755L353.064 -85.9755L353.489 -84.5877L354.13 -84.0544L354.559 -83.2L355.626 -77.8667L358.613 -73.4933L366.08 -65.9189L366.72 -65.0645L367.253 -63.8912L368.64 -62.8245L371.415 -61.2245L372.802 -61.5445L373.975 -60.6912L375.151 -59.4112L376.43 -58.7712L377.071 -58.0245L376.751 -56.4245L375.684 -53.6501L375.363 -52.2624L375.255 -51.5168L375.363 -50.6624L375.575 -50.2379L376.43 -49.2779L376.64 -48.8533L377.067 -48.2123L378.133 -47.2533L379.413 -46.3989L380.267 -46.0789L382.933 -45.8656L384.213 -45.6533L385.171 -45.12L387.413 -43.3067L388.587 -42.7733L391.787 -42.4523L394.453 -41.7067L395.84 -41.4933L397.015 -41.7067L400.536 -43.0933L402.028 -43.3067L409.069 -43.0933L409.602 -42.56L409.922 -42.0267L410.136 -41.4933L410.349 -41.0667L411.522 -39.7877L412.698 -38.8288L413.977 -38.1877L419.631 -37.1211L420.698 -36.5877L421.338 -35.4133L422.191 -33.7067L423.045 -32.2133L424.324 -31.4667L425.712 -31.0421L426.883 -29.8667L427.737 -28.48L428.378 -26.88L429.019 -20.8L429.444 -20.2667L429.978 -18.88L430.298 -17.28L430.085 -16.3211L428.911 -18.3467L427.631 -20.2667L426.031 -21.8667L422.939 -24.1088L421.659 -24.7488L420.166 -25.2821L417.392 -25.6021L415.046 -26.3488L413.872 -26.4576L413.125 -26.3488L412.272 -26.0288L411.739 -25.9211H409.285L408.219 -25.4955L406.085 -23.8955H404.805L404.38 -24.2155L403.633 -25.3909L403.1 -25.9243L402.459 -26.1355L400.859 -26.3488L399.152 -27.2021L397.978 -26.5622L395.844 -24.8544L396.27 -23.1467L394.562 -21.5467L392.003 -20.3733L387.844 -19.5189L384.219 -17.5979L379.419 -15.9979L378.352 -15.2523L375.898 -12.7979L374.831 -12.1579L374.19 -11.3045L374.083 -9.70454L374.403 -7.78347V-6.92908L371.094 -5.76L370.453 -4.69334L370.561 -3.20001L371.415 -1.70882L371.949 -1.06668L372.907 -0.426671L373.333 0.106662L373.653 0.853326L373.228 1.27999L372.694 1.70559L371.52 2.55998L371.094 2.77333L370.561 3.09332L370.136 3.84L369.922 4.79999L369.815 5.44L370.136 6.93332L370.882 8.42452L371.094 9.27785L370.773 10.1333L370.24 10.7733L369.815 11.0933L369.389 11.52L369.282 12.2667L369.389 12.5867L369.602 13.0112L369.815 13.4378L369.707 13.9712L369.494 14.2912L368.428 14.9333L368.107 16V16.5333L368.428 16.9578L368.215 17.9179L368.536 18.9845L369.922 20.7979L369.815 21.4378L368.961 21.9712L367.361 22.8245L364.482 26.0245L363.307 27.9445V29.12L362.561 30.4L361.92 32L361.494 33.7067L361.173 35.2L361.282 37.2245L361.922 38.5045L367.682 43.4112L368.428 44.2667L368.961 45.2245L368.853 45.5445L368.64 45.7578L368.215 48.2112L368.322 48.9578L368.855 49.8112L368.109 49.4912L367.469 48.9578L367.042 48.4245L366.722 47.7845H366.297L366.509 48.9578L367.042 50.1333L367.897 51.2L368.855 51.84V52.3733L367.469 52.0533L366.509 51.0933L365.763 50.1355L362.563 48.1088L360.43 48.8555L358.83 50.7755L358.189 53.1221L358.297 61.2288L357.763 63.4709L356.909 65.8165L356.589 66.9909L356.375 69.5499L356.055 71.1499L355.522 72.4288L350.83 75.5221L348.375 76.3754L346.669 75.0955L346.882 74.2421L346.773 73.6021L346.882 73.1754L347.522 72.5355L350.297 72.1088L351.255 71.5754L352.109 70.5088L352.642 69.0165V67.5243L351.897 66.1376L350.722 65.6042L347.736 65.4955V64.8555L347.309 61.7621L347.097 60.9088L346.03 60.0555L344.855 59.8421L342.082 59.9499L341.44 60.1621L341.015 60.6955L340.802 61.4421L340.269 62.5088V62.9355V63.68L340.055 64.321L339.842 64.4277H339.522L339.309 64.5365L339.202 67.9488L339.415 69.7611L340.482 71.3611L340.161 73.1744L338.561 78.4011L337.069 81.6011L335.149 83.7344L332.907 83.2011V85.76L333.12 87.04L333.333 88.1067L334.826 91.6266L335.571 115.414L335.785 121.814L335.038 124.055L335.465 125.548L335.571 129.493L336.747 132.16L337.705 141.227L340.265 149.76L339.731 151.253V152.853L339.945 154.453L340.478 155.627L342.611 158.935V159.681L342.502 160.427L342.396 160.96L343.036 163.84L344.316 166.614L347.516 170.989L351.676 175.148L356.262 178.135L366.288 183.042L370.98 184.535L394.98 187.627L397.54 187.202L399.674 186.455L401.698 186.135L403.94 187.202L403.298 187.309L402.658 187.095L402.338 186.989L401.805 187.629L407.029 189.55L415.138 191.258L418.016 192.324L420.043 194.138L419.829 196.804L420.363 197.762L421.109 200.429L421.749 201.495L422.605 202.883L424.096 206.829L426.016 209.709L428.149 211.735L432.629 214.935L435.723 218.455L436.681 218.989L437.856 219.309L444.789 223.789L446.069 224.002L446.923 224.427L448.843 226.24L449.696 227.093L459.616 232.107L468.576 238.187L473.802 240.427L491.294 243.735L502.386 246.722L513.907 248.748L524.999 251.735L536.625 250.348L546.866 246.722L557.641 244.269L568.733 242.242L579.399 240.217L590.066 237.124L600.412 234.138L621.105 229.762L623.878 229.338L648.533 227.947L653.014 226.988L656 224.534L655.893 227.308L652.372 228.482L647.893 229.015L645.014 229.87L644.267 230.19L643.414 230.082L641.706 229.657L640.748 229.763L639.04 230.405L638.081 230.618L634.455 230.084H631.255L631.681 230.939L632.534 231.259L634.668 231.151L633.389 231.472L632.855 231.579L634.348 233.499L636.907 234.565L646.614 235.42L647.572 235.845L648.639 236.272L656.531 234.245L657.278 233.605L657.703 232.43V224.751L657.383 223.577L656.425 223.043L655.25 222.618L655.463 221.551L656.85 218.992L655.358 216.859L654.398 214.084L653.011 207.896L651.091 203.096L650.77 202.03L650.237 195.739L649.383 186.563L648.742 183.577L647.569 180.696L647.142 179.205L646.93 176.005L644.689 166.192L643.515 144.965L643.728 143.792L644.581 141.339L645.222 137.712L646.822 132.165L646.502 130.141L647.248 127.794L647.356 124.701L647.036 119.261L646.928 118.727L646.395 117.661L646.078 117.017L645.969 116.271L645.862 114.778L644.902 110.298L644.796 108.698L645.329 102.724L646.077 99.7376L647.035 97.2832L650.022 93.0165L651.089 90.3499L650.453 88.1067L651.414 87.4667L651.839 86.08L652.16 84.5877L652.802 83.4133L653.442 82.3466L654.189 80.9589L654.509 79.8923L653.975 80.1056L653.869 78.5056L653.016 77.7589L650.772 77.0133V76.9067L650.56 76.2667L650.452 76.0533L650.132 75.9445L649.386 75.6245H649.172L648.852 75.0912L648.532 74.5579L648.319 73.8112L648.213 73.0667L647.57 71.5733L646.825 71.04H644.37L642.88 70.6144L642.347 70.5067L641.703 70.8266L641.383 71.2533L641.063 71.36L640.423 70.8266L639.89 69.6533L638.611 66.24L638.29 65.4933L637.649 66.0266L637.862 67.2021L638.396 68.3754L638.822 69.0165V69.5499L637.862 69.0165L637.009 67.9499L636.582 66.5621L637.223 64.5376L636.69 63.1499L636.798 62.5088L637.118 61.9755L638.826 60.9088L637.013 60.8021V59.2021L638.4 55.8933L637.12 56.5355L635.413 57.7088L634.347 58.8832L635.305 59.4165L635.838 67.5243L635.092 66.4576L633.6 64.5376L632.853 63.4709L632.64 62.1909L632.533 60.6976L632.107 59.5243L630.72 59.4165L631.04 58.5621L631.253 57.2832L631.147 56.3243L630.505 55.8976L630.185 56.3243L629.226 58.6709L628.585 59.4165L628.371 57.7088L628.692 55.5755L629.867 51.3088L628.159 52.8021L629.226 50.3477L629.438 49.2811L629.013 49.4933L627.733 49.8144L628.48 48.2144L628.267 47.6811L627.52 48.0021L626.453 49.2811L626.028 48.7477L625.282 49.1733L622.616 49.2811L621.44 50.24H620.907V48.7466H620.482L620.055 49.4923L619.309 50.2389L618.455 50.7723H617.497L617.818 50.3466L618.351 48.7466H617.924L617.071 48.8544L616.644 48.7466L616.538 48.8544L616.004 49.28H615.791L615.578 49.1723L615.152 48.4256L614.94 48.3189L614.085 48.6389L612.485 49.28H611.526V48.7466L611.846 48.2133L611.74 48.0011L611.206 47.8923L610.46 47.7856L609.713 47.6779L608.754 47.0368L608.113 46.8235H606.834L603.846 47.6779L602.567 48.3189L604.809 49.5989L605.551 49.8123L604.377 51.52L603.947 52.48L603.839 53.6544L603.947 54.8277L604.693 57.921L604.48 59.7344L603.947 60.5877L603.307 60.48L601.707 50.0256L601.281 49.0677L598.722 45.4411L598.509 44.1611L599.042 42.7744L599.683 42.0277L601.497 40.5365L601.709 39.7899L601.922 38.8299L602.242 37.9765L603.522 37.1232L604.269 35.7365L606.614 29.9765L608.214 26.7765L610.455 24.6432L612.802 25.1765L611.414 25.8176L610.455 26.5632L608.642 28.9099L608.43 29.4432L607.897 31.6842L607.683 31.8965L606.403 33.1765L606.724 34.9899L609.067 35.3067L615.893 34.0266L619.839 34.24L621.119 34.56L621.866 35.52L622.399 36.6933L623.039 37.6533L623.893 38.2933L624.96 38.6144L627.519 38.7221L628.586 39.2555H629.227L629.439 38.5088V37.7621L629.227 37.2288L628.8 36.8043L628.16 36.6955L629.013 34.8832L629.76 35.0955L630.613 36.2709L631.572 37.2288H632.747L634.56 35.5221L635.839 35.2021L636.48 35.4133L637.867 36.16H638.4L639.147 35.52L638.933 34.7733L638.293 34.1333L637.652 33.6L636.266 33.1733L633.599 32.5333L632.426 31.68L633.492 31.3589L634.026 30.8256L634.133 29.9723L633.492 28.9056L632.746 28.1589L631.892 27.9467L628.905 28.2677L628.692 27.8411L628.585 26.3488L628.371 25.6032L627.946 24.7488L627.2 24.0032L626.453 23.5765L626.879 26.0299V27.0965H626.453L624.212 23.7898L622.612 22.4032L620.905 22.0821L621.118 22.4032L621.759 24.1099L621.333 23.7898L620.373 23.3632L620.053 23.0432V24.5365L621.228 25.9232L621.334 27.0965L619.201 25.8176L618.989 23.1509L620.055 17.4965L619.309 17.9232L618.455 18.0299L617.709 17.8176L617.068 17.4965V16.9632L619.094 16.1099L622.401 11.8432L624.322 9.92318L624 9.49332L623.68 8.74665L623.467 8.42665L624 8.10666L624.533 7.99999L625.813 7.89118L626.667 7.67785V7.04L626.347 6.61332L626.027 6.40106L626.667 5.54665L627.733 4.69226L628.588 3.7344L629.013 2.34665L628.693 2.55892H628.587L628.373 2.66773L628.161 2.87999L627.094 1.92105L626.24 1.70772L623.894 1.81545L622.828 1.49439L621.44 0.32105L620.481 -0.212283L619.414 -0.425613L618.24 -0.53227L617.173 -0.212283L616.214 0.32105L613.548 3.09439L612.589 3.41545L612.267 3.51999L611.307 4.26666L610.773 4.37439L610.347 4.26666L609.171 3.51999L608.638 3.41332L608 3.09332L603.947 0.213319L602.88 0.533322L601.92 1.38666L601.067 1.81332L596.48 2.34665L596.905 1.70559L597.227 1.17225L597.651 0.746652L598.293 0.319992L593.92 1.59999L591.573 1.91999L589.653 1.38666L588.694 -0.853347L587.733 -1.60001L586.667 -0.640017V0.106662L587.093 1.06666L588.16 2.66666L588.371 3.51999L588.798 7.67999L589.225 8.31999L590.931 10.4533L591.571 10.88L593.918 14.9333L595.945 16.6411L596.478 16.9611V17.4944L593.491 16.0021L594.345 16.5355L596.051 18.5611L595.627 18.9867L593.705 17.1744L592.851 16.2155L591.038 12.2688L590.185 11.3099L587.947 10.4533L587.305 9.27999L586.88 7.67999L586.453 4.79999L585.92 4.05333L579.947 -0.320014L577.813 -2.34667L576.853 -3.94667L577.28 -7.14667L577.813 -8.95895L578.347 -10.0256L578.667 -11.3056L578.027 -12.6923L576.318 -14.8256L577.171 -15.4667L576.851 -16.2133L575.571 -17.3867L574.398 -20.1611L574.611 -23.0411L576.745 -35.7333L577.598 -38.1867L578.985 -40.5333L582.718 -45.3333L584.638 -48.5333L584.96 -51.0933L584.427 -51.6267L582.719 -51.9467L582.399 -52.3733L582.506 -53.1189L583.039 -54.5067V-54.72L582.719 -54.9333L583.466 -55.36L584.532 -55.7856L584.959 -55.6789L585.066 -56.3189L584.959 -57.1733L584.746 -57.8144L584.533 -58.24L586.027 -63.7856L588.373 -69.3333L588.907 -71.8923L587.947 -77.0133V-80L588.587 -79.4667L590.187 -78.72L590.72 -78.1867L591.04 -77.3333L590.829 -76.48L590.616 -75.6256L590.507 -74.88L591.148 -73.4933L593.921 -70.4L594.454 -69.12L595.201 -66.3467L595.628 -65.28L597.653 -64L597.867 -63.7867H599.36L600.107 -63.8933L600.748 -64.2144L599.788 -63.2555L598.297 -62.7221L597.23 -62.1888L597.55 -61.0144L598.083 -60.5888L599.041 -59.8421L599.574 -59.2011L599.68 -58.56V-57.7067L599.893 -57.0656L600.638 -56.7456L603.413 -56.5333L604.587 -56.6411L605.973 -57.1744L608.749 -59.8411L609.816 -60.1611L608.749 -58.2411L608.429 -57.0667L609.173 -56.64L613.867 -57.1733L614.4 -57.4933L614.507 -58.3477V-59.3067L614.72 -59.9477L615.573 -61.1221L616.32 -61.5477L617.067 -61.2267V-60.8L616.64 -59.4133V-58.7723L617.173 -57.3845L618.029 -56.2112L619.307 -55.4645L620.695 -55.1445L621.12 -55.04L621.973 -54.2933L622.616 -54.1856L623.362 -54.2933L623.895 -54.6144L624.749 -55.1477L626.989 -56.1067L627.842 -56.96L628.164 -58.4523L628.055 -61.6523L628.269 -62.8267L629.869 -65.7067L630.189 -65.8144H630.935L631.575 -65.7067L632.218 -65.3856L632.642 -64.96L632.855 -64.5344L633.069 -64.2144L633.922 -63.8933L634.242 -63.7856V-63.2523L634.031 -62.8267L633.818 -62.5067L633.709 -62.2933L634.031 -60.6933L634.455 -60.16L635.095 -59.7333L634.562 -58.6667L634.135 -58.1333L633.709 -57.7077L634.455 -56.4277L635.416 -53.4411L636.373 -52.1611L636.907 -51.8411L637.547 -51.7333L638.08 -51.4133L638.4 -50.6667L638.293 -50.1333L637.333 -48.5333L637.227 -47.8923L638.187 -46.08H640.639L643.416 -46.6133L647.039 -46.1867L648.106 -47.0411L649.066 -48.1077L651.732 -49.4944L652.372 -49.6021L653.014 -49.4944L654.72 -48.6411L656.32 -48.4277L657.497 -48.8533L658.67 -49.3867L660.59 -49.8133L661.123 -50.2389L661.443 -50.88L661.551 -51.4133L661.231 -51.52L659.523 -52.1611L658.99 -52.6944L662.617 -52.5867L664.43 -52.8L666.24 -53.7589L670.083 -53.6512L670.297 -53.4389L669.973 -53.0133L669.44 -51.2L669.23 -50.88L669.44 -50.6667L671.363 -49.8133L680.853 -49.6L679.573 -50.3467L678.297 -50.6667L679.04 -51.6256L681.493 -52.2667L682.451 -53.12L676.265 -53.0133L675.518 -53.12L674.985 -53.8667L674.878 -55.4667L674.558 -56.7467L673.385 -58.7733L672.961 -60.6933L672.427 -61.8667L672.214 -62.5077L672.32 -63.0411L672.64 -63.3611L672.749 -63.6811L672.639 -64.2144L672.319 -64.4267L671.679 -64.3189L671.146 -64.4267L670.933 -65.28L671.253 -65.6L671.681 -65.7077H672.214L672.638 -65.8155L674.238 -67.5232L675.093 -68.0565L676.371 -68.2688L678.081 -67.5232L681.92 -64.8565H682.987L684.697 -63.7899L684.907 -62.7232L684.053 -61.5488L682.987 -60.1611L685.23 -59.6277L692.483 -60.9077L694.617 -61.6533L695.573 -61.7611L696.64 -63.4688L699.307 -64.7488L699.84 -65.1744L702.188 -68.6944L702.828 -69.8677L703.039 -71.1477L702.828 -72.3211L702.294 -73.3877" stroke="#862FE7" stroke-width="15" stroke-linecap="round"/>
</g>
<defs>
<clipPath id="clip0_9009_86">
<rect width="1280" height="1142.01" fill="white"/>
</clipPath>
</defs>
</svg>
