<svg width="2500" height="333" viewBox="0 0 2500 333" fill="none" xmlns="http://www.w3.org/2000/svg">
<g clip-path="url(#clip0_6856_101)">
<path d="M166.667 242.562V218.812H249.875V249.021C249.811 252.99 250.597 256.926 252.181 260.566C253.766 264.205 256.112 267.463 259.061 270.12C262.01 272.776 265.494 274.771 269.278 275.968C273.062 277.166 277.059 277.539 281 277.062C287.732 277.976 294.561 276.326 300.133 272.44C305.705 268.554 309.614 262.716 311.083 256.083C313.311 248.485 313.122 240.382 310.542 232.896C294.437 192.396 184.396 174.062 170.417 110.937C167.571 97.0702 167.394 82.7875 169.896 68.8541C178.479 18.1666 223.021 -0.166748 278.312 -0.166748C322.333 -0.166748 383 10.0832 383 78.0416V100.167H305.708V80.7499C305.942 76.9228 305.344 73.0905 303.956 69.5164C302.567 65.9423 300.422 62.711 297.666 60.0447C294.911 57.3784 291.611 55.3402 287.993 54.0702C284.376 52.8002 280.526 52.3285 276.708 52.6874C270.19 51.9696 263.64 53.7378 258.368 57.6385C253.097 61.5393 249.491 67.2855 248.271 73.7291C247.402 79.1091 247.586 84.6067 248.812 89.9166C257.917 126.042 375.5 145.479 388.396 210.75C391.619 227.666 391.795 245.022 388.917 262C381.396 313.75 335.229 333.167 279.417 333.167C220.833 333.167 166.667 312.125 166.667 242.562ZM1174.83 241.5V217.75H1256.98V247.417C1256.85 251.35 1257.57 255.264 1259.1 258.893C1260.62 262.522 1262.91 265.778 1265.8 268.441C1268.7 271.103 1272.14 273.109 1275.89 274.32C1279.63 275.531 1283.59 275.919 1287.5 275.458C1294.17 276.453 1300.97 274.895 1306.55 271.095C1312.12 267.294 1316.05 261.532 1317.56 254.958C1319.79 247.538 1319.61 239.602 1317.04 232.292C1301.46 192.396 1192.48 173.958 1178.54 110.937C1175.69 97.254 1175.51 83.1489 1178 69.3957C1186.65 19.2499 1231.25 0.916586 1285.42 0.916586C1328.92 0.916586 1389.02 11.7082 1389.02 78.5832V100.167H1312.27V81.2916C1312.52 77.5116 1311.94 73.7231 1310.6 70.1832C1309.25 66.6433 1307.15 63.4347 1304.46 60.775C1301.76 58.1154 1298.52 56.0669 1294.96 54.7685C1291.41 53.4701 1287.61 52.9522 1283.83 53.2499C1277.43 52.4013 1270.95 54.0613 1265.75 57.8824C1260.55 61.7035 1257.02 67.3895 1255.92 73.7499C1255.04 79.1285 1255.22 84.6264 1256.44 89.9374C1265.02 126.062 1381.44 144.958 1394.42 209.667C1397.64 226.401 1397.81 243.578 1394.94 260.375C1387.42 312.167 1341.79 331.042 1286.6 331.042C1228.54 331.083 1174.83 309.979 1174.83 241.5ZM1469.02 252.854C1468.27 246.04 1468.1 239.176 1468.5 232.333V8.99991H1546.88V239.312C1546.77 243.278 1546.95 247.246 1547.4 251.187C1549.14 257.682 1552.99 263.419 1558.32 267.51C1563.66 271.601 1570.2 273.818 1576.93 273.818C1583.65 273.818 1590.19 271.601 1595.53 267.51C1600.87 263.419 1604.71 257.682 1606.46 251.187C1606.92 247.247 1607.1 243.279 1607 239.312V8.99991H1685.42V232.292C1685.42 238.229 1684.88 249.562 1684.88 252.812C1679.52 311.146 1633.87 329.896 1576.98 329.896C1520.08 329.896 1474.4 311.042 1469.02 252.812V252.854ZM2114.31 249.604C2113.52 242.766 2113.15 235.884 2113.23 229V97.9999C2113.23 92.6041 2113.75 82.8958 2114.29 77.4791C2121.27 19.2499 2167.98 0.916586 2223.27 0.916586C2278.04 0.916586 2326.33 19.2499 2331.73 77.4999C2332.37 84.3202 2332.55 91.1766 2332.25 98.0208V108.167H2253.87V90.9999C2253.89 87.0173 2253.53 83.042 2252.81 79.1249C2250.75 72.5488 2246.65 66.8021 2241.09 62.722C2235.54 58.642 2228.83 56.4417 2221.94 56.4417C2215.05 56.4417 2208.34 58.642 2202.78 62.722C2197.23 66.8021 2193.12 72.5488 2191.06 79.1249C2190.16 83.9299 2189.8 88.8226 2190 93.7082V236.083C2189.91 240.049 2190.09 244.017 2190.54 247.958C2192.4 255.02 2196.72 261.187 2202.72 265.35C2208.72 269.513 2216.01 271.398 2223.27 270.667C2230.41 271.426 2237.57 269.54 2243.41 265.366C2249.25 261.191 2253.35 255.019 2254.94 248.021C2255.66 244.106 2255.84 240.11 2255.48 236.146V190.771H2223.81V145.458H2333.33V229C2333.41 235.849 2333.05 242.697 2332.25 249.5C2326.9 306.125 2278.08 326.083 2223.27 326.083C2168.46 326.083 2119.67 306.187 2114.31 249.562V249.604ZM1021.85 320.208L1019.77 32.1874L966.021 320.208H887.646L834.479 32.1874L832.396 320.208H755.042L761.479 9.54158H887.646L926.833 252.271L966.021 9.54158H1092.17L1099.15 320.208H1021.85ZM609.562 320.208L567.687 32.1874L524.729 320.208H441L497.917 9.54158H635.896L692.812 320.208H609.562ZM1921.58 316.979L1843.75 58.6249L1848.04 316.958H1771.79V9.54158H1886.67L1959.58 259.812L1955.4 9.54158H2032.17V317L1921.58 316.979Z" fill="black"/>
</g>
<defs>
<clipPath id="clip0_6856_101">
<rect width="2500" height="333" fill="white"/>
</clipPath>
</defs>
</svg>
