<svg width="815" height="247" viewBox="0 0 815 247" fill="none" xmlns="http://www.w3.org/2000/svg">
<g clip-path="url(#clip0_8890_91)">
<path d="M810 124L793 246.043H616L599 124L616.041 0H668.587L705 62L741.413 0H793L810 124ZM732 117.766L705 139L678 117.766V63.2578C663.94 70.1497 652.745 82.2548 646.767 97.1543C643.591 104.376 641.865 112.373 642.01 120.871C642.004 121.247 642 121.623 642 122C642 147.521 656.256 169.607 677 180.243V246H733V180.243C753.744 169.607 768 147.521 768 122C768 96.0707 753.284 73.6881 732 63.2559V117.766Z" fill="url(#paint0_linear_8890_91)"/>
</g>
<path d="M249.262 94.7646C251.003 94.7646 252.59 94.6182 254.022 94.3252C255.471 94.0485 256.627 93.6986 257.489 93.2754C258.352 92.8522 259.076 92.3883 259.662 91.8838C260.264 91.3792 260.679 90.9235 260.907 90.5166C261.135 90.126 261.249 89.7842 261.249 89.4912C261.249 88.9215 261.054 88.4089 260.663 87.9531C260.289 87.5137 259.76 87.1556 259.076 86.8789C258.409 86.6022 257.685 86.3825 256.903 86.2197C256.122 86.057 255.251 85.9349 254.291 85.8535C253.738 85.8047 253.388 85.7152 253.241 85.585C253.111 85.4385 253.095 85.2106 253.192 84.9014L254.242 81.6055H265.985C266.376 81.6055 266.571 82.2402 266.571 83.5098V84.1201C266.571 85.3734 266.376 86 265.985 86H263.397C264.39 86.6999 264.887 87.8717 264.887 89.5156C264.887 90.1992 264.7 90.9479 264.325 91.7617C263.967 92.5918 263.365 93.4463 262.519 94.3252C261.688 95.2041 260.688 95.9935 259.516 96.6934C258.344 97.4095 256.854 97.9954 255.048 98.4512C253.241 98.9232 251.272 99.1592 249.14 99.1592C244.94 99.1592 241.612 98.0931 239.154 95.9609C236.697 93.8451 235.468 90.8096 235.468 86.8545C235.468 83.5505 236.265 80.1325 237.86 76.6006L240.546 77.4062C239.618 80.4661 239.154 83.2249 239.154 85.6826C239.154 91.7373 242.523 94.7646 249.262 94.7646ZM265.741 86C264.846 86 264.398 85.3734 264.398 84.1201V83.5098C264.398 82.2402 264.846 81.6055 265.741 81.6055H268.427C271.845 81.6055 273.66 80.3522 273.871 77.8457L274.335 72.8164H277.143L277.631 77.8701C277.761 79.1559 278.184 80.0999 278.9 80.7021C279.617 81.3044 280.756 81.6055 282.318 81.6055H282.807C283.197 81.6055 283.393 82.2402 283.393 83.5098V84.1201C283.393 85.3734 283.197 86 282.807 86H282.367C280.691 86 279.332 85.7477 278.29 85.2432C277.265 84.7223 276.41 83.9167 275.727 82.8262C274.197 84.9421 271.804 86 268.549 86H265.741ZM274.066 59.7549L277.436 63.124L274.066 66.4932L270.697 63.124L274.066 59.7549ZM292.865 50.2822L296.234 53.6514L292.865 57.0205L289.496 53.6514L292.865 50.2822ZM282.538 81.6055H288.739C292.011 81.6055 294.281 81.1986 295.551 80.3848C296.82 79.5547 297.455 78.2201 297.455 76.3809C295.648 76.7227 294.265 76.8936 293.305 76.8936C290.896 76.861 289.089 76.4622 287.885 75.6973C286.68 74.9323 286.078 73.5977 286.078 71.6934C286.078 68.7474 286.745 66.2409 288.08 64.1738C289.415 62.0905 291.116 61.0488 293.183 61.0488C294.55 61.0488 295.746 61.4313 296.771 62.1963C297.813 62.945 298.627 63.9785 299.213 65.2969C299.815 66.599 300.263 68.0394 300.556 69.6182C300.849 71.1807 300.995 72.8652 300.995 74.6719C300.995 76.0228 300.889 77.2435 300.678 78.334C300.482 79.4245 300.198 80.3604 299.823 81.1416C299.465 81.9229 299.001 82.6064 298.432 83.1924C297.862 83.762 297.252 84.2259 296.601 84.584C295.966 84.9421 295.217 85.2269 294.354 85.4385C293.492 85.6501 292.629 85.7965 291.767 85.8779C290.904 85.9593 289.927 86 288.837 86H282.538C281.643 86 281.195 85.3734 281.195 84.1201V83.5098C281.195 82.2402 281.643 81.6055 282.538 81.6055ZM293.207 72.5479C294.9 72.5479 296.308 72.3281 297.431 71.8887C297.089 67.7383 295.648 65.6631 293.109 65.6631C292.035 65.6631 291.124 66.0944 290.375 66.957C289.643 67.8034 289.276 68.9264 289.276 70.3262C289.276 71.1074 289.651 71.6771 290.399 72.0352C291.148 72.377 292.084 72.5479 293.207 72.5479ZM342.377 60.6338L345.624 63.8809L342.377 67.1279L339.13 63.8809L342.377 60.6338ZM335.053 60.6338L338.3 63.8809L335.053 67.1279L331.806 63.8809L335.053 60.6338ZM337.494 85.9512C335.378 85.9512 333.482 85.8617 331.806 85.6826C330.129 85.4873 328.51 85.1455 326.947 84.6572C325.401 84.1689 324.107 83.526 323.065 82.7285C322.04 81.931 321.218 80.8893 320.6 79.6035C319.981 78.3177 319.672 76.8122 319.672 75.0869C319.672 72.7106 320.217 70.432 321.308 68.251L323.773 69.1055C323.301 70.8796 323.065 72.3932 323.065 73.6465C323.065 78.9525 327.883 81.6055 337.519 81.6055C340.709 81.6055 343.598 81.4264 346.186 81.0684C348.79 80.7103 350.849 80.2139 352.362 79.5791C353.876 78.9281 354.633 78.1956 354.633 77.3818C354.633 76.9261 354.551 76.3646 354.389 75.6973C354.226 75.0137 354.063 74.4115 353.9 73.8906C353.738 73.3698 353.404 72.3688 352.899 70.8877L355.561 67.7383C355.821 67.4453 356.138 67.6732 356.513 68.4219C357.652 70.6842 358.222 73.0117 358.222 75.4043C358.222 77.0156 357.929 78.4235 357.343 79.6279C356.773 80.8161 355.943 81.8171 354.853 82.6309C353.762 83.4284 352.354 84.0794 350.629 84.584C348.92 85.0723 347.007 85.4222 344.892 85.6338C342.776 85.8454 340.31 85.9512 337.494 85.9512ZM367.816 72.5234C367.816 73.5 367.825 74.3138 367.841 74.9648C367.857 75.5996 367.89 76.2507 367.938 76.918C367.987 77.5853 368.061 78.1224 368.158 78.5293C368.256 78.9199 368.386 79.3105 368.549 79.7012C368.728 80.0918 368.931 80.3929 369.159 80.6045C369.387 80.8161 369.672 81.0114 370.014 81.1904C370.355 81.3532 370.746 81.4671 371.186 81.5322C371.625 81.5811 372.13 81.6055 372.699 81.6055H373.407C373.798 81.6055 373.993 82.2402 373.993 83.5098V84.1201C373.993 85.3734 373.798 86 373.407 86H372.577C371.633 86 370.779 85.9186 370.014 85.7559C369.249 85.5931 368.581 85.3327 368.012 84.9746C367.458 84.6165 366.97 84.2178 366.547 83.7783C366.124 83.3389 365.774 82.7855 365.497 82.1182C365.22 81.4346 364.993 80.7591 364.813 80.0918C364.651 79.4082 364.521 78.5863 364.423 77.626C364.341 76.6494 364.285 75.7298 364.252 74.8672C364.219 74.0046 364.203 72.971 364.203 71.7666C364.203 64.8656 363.959 58.9574 363.471 54.042L366.693 51.918C367.133 51.625 367.377 51.861 367.426 52.626C367.686 56.109 367.816 62.7415 367.816 72.5234ZM373.163 86C372.268 86 371.82 85.3734 371.82 84.1201V83.5098C371.82 82.2402 372.268 81.6055 373.163 81.6055H373.798C374.612 81.6055 375.507 81.1904 376.483 80.3604C377.476 79.5303 378.819 77.9515 380.512 75.624C382.139 73.3779 383.547 71.7259 384.735 70.668C385.924 69.5938 387.201 69.0566 388.568 69.0566C389.643 69.0566 390.66 69.3903 391.62 70.0576C392.58 70.7249 393.362 71.5632 393.964 72.5723C394.566 73.5814 395.038 74.6475 395.38 75.7705C395.738 76.8936 395.917 77.9434 395.917 78.9199C395.917 81.1172 395.323 82.932 394.135 84.3643C392.947 85.7965 391.775 86.5127 390.619 86.5127C388.373 86.5127 385.167 84.877 381 81.6055C379.926 83.0215 378.729 84.112 377.411 84.877C376.093 85.6257 374.815 86 373.578 86H373.163ZM390.253 81.752C390.953 81.752 391.522 81.5078 391.962 81.0195C392.401 80.5312 392.621 79.9209 392.621 79.1885C392.621 78.0492 392.157 76.8285 391.229 75.5264C390.302 74.2243 389.407 73.5732 388.544 73.5732C387.144 73.5732 385.443 75.0299 383.441 77.9434C386.404 80.4824 388.674 81.752 390.253 81.752ZM418.402 81.3369C416.319 84.4456 413.031 86 408.539 86C403.477 86 400.946 84.1445 400.946 80.4336C400.946 79.6686 401.06 78.7816 401.288 77.7725L403.998 78.041V78.3828C403.998 79.5547 404.372 80.3848 405.121 80.873C405.87 81.3613 407.017 81.6055 408.563 81.6055C409.605 81.6055 410.557 81.5485 411.42 81.4346C412.283 81.3206 413.096 81.1335 413.861 80.873C414.643 80.5964 415.253 80.2057 415.692 79.7012C416.132 79.1803 416.352 78.5618 416.352 77.8457C416.352 77.5039 416.278 77.1133 416.132 76.6738L412.177 65.3701L414.374 62.5381C414.83 61.9521 415.188 62.0498 415.448 62.8311L419.818 75.5996C421.186 79.6035 423.122 81.6055 425.629 81.6055H425.922C426.312 81.6055 426.508 82.2402 426.508 83.5098V84.1201C426.508 85.3734 426.312 86 425.922 86H425.531C422.325 86 419.949 84.4456 418.402 81.3369ZM438.837 55.3115L442.206 58.6807L438.837 62.0498L435.468 58.6807L438.837 55.3115ZM431.171 75.1113L429.096 74.1348C430.935 69.5449 433.547 67.25 436.933 67.25C438.153 67.25 440.375 68.0068 443.598 69.5205C448.741 71.9131 452.916 73.1257 456.122 73.1582C456.578 73.1582 456.732 73.4023 456.586 73.8906L455.487 77.5771C452.883 77.6585 448.977 79.1803 443.769 82.1426C439.26 84.7142 434.743 86 430.219 86H425.653C424.758 86 424.311 85.3734 424.311 84.1201V83.5098C424.311 82.2402 424.758 81.6055 425.653 81.6055H431.049C433.507 81.6055 436.282 81.0277 439.374 79.8721C442.466 78.7165 445.412 77.2923 448.212 75.5996C447.219 75.388 444.989 74.5905 441.522 73.207C439.228 72.2956 437.478 71.8398 436.273 71.8398C434.662 71.8398 432.961 72.9303 431.171 75.1113ZM483.148 61.6104L486.518 64.9795L483.148 68.3486L479.779 64.9795L483.148 61.6104ZM487.885 84.8525C487.738 86.3174 487.405 87.7008 486.884 89.0029C486.363 90.3213 485.744 91.4443 485.028 92.3721C484.312 93.3161 483.507 94.1787 482.611 94.96C481.732 95.7412 480.862 96.3841 479.999 96.8887C479.153 97.3932 478.331 97.8164 477.533 98.1582C476.736 98.5 476.06 98.7441 475.507 98.8906C474.97 99.0371 474.563 99.1104 474.286 99.1104C473.879 99.1104 473.48 98.8743 473.09 98.4023L472.138 97.2061C471.552 96.4085 471.527 95.9365 472.064 95.79C475.808 94.7646 478.778 93.2591 480.976 91.2734C483.189 89.2878 484.296 86.9521 484.296 84.2666C484.296 83.2087 484.084 82.1182 483.661 80.9951C483.254 79.8721 482.733 78.863 482.099 77.9678L485.102 73.8662C486.192 75.9984 487.104 77.6992 487.836 78.9688C488.845 80.7266 490.204 81.6055 491.913 81.6055H492.67C493.061 81.6055 493.256 82.2402 493.256 83.5098V84.1201C493.256 85.3734 493.061 86 492.67 86H492.035C490.424 86 489.04 85.6175 487.885 84.8525ZM492.401 86C491.506 86 491.059 85.3734 491.059 84.1201V83.5098C491.059 82.2402 491.506 81.6055 492.401 81.6055H495.868C497.724 81.6055 499.416 81.4183 500.946 81.0439C502.493 80.6696 503.746 80.1081 504.706 79.3594C505.666 78.5944 506.146 77.7155 506.146 76.7227C506.146 75.5508 505.105 73.8255 503.021 71.5469C500.938 69.252 497.756 66.2979 493.476 62.6846L494.379 58.0947L513.227 51.1855C513.471 51.1042 513.625 51.0635 513.69 51.0635C513.772 51.0635 513.821 51.1204 513.837 51.2344C513.853 51.332 513.837 51.4948 513.788 51.7227L513.202 55.5312L497.87 60.7803C501.825 64.3285 504.763 67.3965 506.684 69.9844C508.604 72.556 509.564 74.7614 509.564 76.6006C509.564 78.2445 509.198 79.6849 508.466 80.9219C507.75 82.1426 506.749 83.1191 505.463 83.8516C504.177 84.5677 502.729 85.1048 501.117 85.4629C499.522 85.821 497.772 86 495.868 86H492.401ZM526.264 84.8525C526.117 86.3174 525.784 87.7008 525.263 89.0029C524.742 90.3213 524.123 91.4443 523.407 92.3721C522.691 93.3161 521.885 94.1787 520.99 94.96C520.111 95.7412 519.241 96.3841 518.378 96.8887C517.532 97.3932 516.71 97.8164 515.912 98.1582C515.115 98.5 514.439 98.7441 513.886 98.8906C513.349 99.0371 512.942 99.1104 512.665 99.1104C512.258 99.1104 511.859 98.8743 511.469 98.4023L510.517 97.2061C509.931 96.4085 509.906 95.9365 510.443 95.79C514.187 94.7646 517.157 93.2591 519.354 91.2734C521.568 89.2878 522.675 86.9521 522.675 84.2666C522.675 83.2087 522.463 82.1182 522.04 80.9951C521.633 79.8721 521.112 78.863 520.478 77.9678L523.48 73.8662C524.571 75.9984 525.482 77.6992 526.215 78.9688C527.224 80.7266 528.583 81.6055 530.292 81.6055H531.049C531.439 81.6055 531.635 82.2402 531.635 83.5098V84.1201C531.635 85.3734 531.439 86 531.049 86H530.414C528.803 86 527.419 85.6175 526.264 84.8525ZM530.78 86C529.885 86 529.438 85.3734 529.438 84.1201V83.5098C529.438 82.2402 529.885 81.6055 530.78 81.6055H531.415C532.229 81.6055 533.124 81.1904 534.101 80.3604C535.093 79.5303 536.436 77.9515 538.129 75.624C539.757 73.3779 541.164 71.7259 542.353 70.668C543.541 69.5938 544.818 69.0566 546.186 69.0566C547.26 69.0566 548.277 69.3903 549.237 70.0576C550.198 70.7249 550.979 71.5632 551.581 72.5723C552.183 73.5814 552.655 74.6475 552.997 75.7705C553.355 76.8936 553.534 77.9434 553.534 78.9199C553.534 81.1172 552.94 82.932 551.752 84.3643C550.564 85.7965 549.392 86.5127 548.236 86.5127C545.99 86.5127 542.784 84.877 538.617 81.6055C537.543 83.0215 536.347 84.112 535.028 84.877C533.71 85.6257 532.432 86 531.195 86H530.78ZM547.87 81.752C548.57 81.752 549.14 81.5078 549.579 81.0195C550.019 80.5312 550.238 79.9209 550.238 79.1885C550.238 78.0492 549.774 76.8285 548.847 75.5264C547.919 74.2243 547.024 73.5732 546.161 73.5732C544.761 73.5732 543.061 75.0299 541.059 77.9434C544.021 80.4824 546.291 81.752 547.87 81.752Z" fill="#111827"/>
<path d="M4.74277 166.589C4.74277 164.702 5.30437 162.86 6.42756 161.063C8.9435 157.424 12.2007 155.604 16.1993 155.604H27.0493V209.652C27.0942 211.539 27.521 213.359 28.3297 215.111C29.1384 216.863 30.2167 218.391 31.5645 219.693C32.9123 220.996 34.4623 222.03 36.2145 222.793C37.9667 223.557 39.8536 223.939 41.8754 223.939H60.1384C62.1602 223.894 64.0471 223.467 65.7993 222.659C67.5964 221.895 69.1464 220.862 70.4493 219.559C71.7522 218.256 72.7855 216.728 73.5493 214.976C74.358 213.224 74.7623 211.337 74.7623 209.315V165.107C75.0768 163.759 75.6384 162.411 76.4471 161.063C78.9631 157.424 82.1754 155.604 86.0841 155.604H97.0689V173.126H97.1363V173.733C97.1363 175.844 97.5181 177.799 98.2819 179.596C99.0906 181.393 100.169 182.988 101.517 184.38C102.865 185.728 104.437 186.807 106.234 187.615C108.031 188.379 109.963 188.761 112.03 188.761V211C109.334 211 106.728 210.73 104.212 210.191C101.741 209.607 99.3602 208.821 97.0689 207.833V210.933C96.8442 215.605 95.7435 220.03 93.7667 224.209C91.8348 228.432 89.2739 232.116 86.0841 235.261C82.9392 238.406 79.2551 240.922 75.0319 242.809C70.8536 244.741 66.4058 245.819 61.6884 246.043H41.8754C36.8884 246.043 32.171 245.122 27.7232 243.28C23.3203 241.438 19.4341 238.9 16.0645 235.665C12.7399 232.475 10.0667 228.701 8.04495 224.343C6.02321 220.03 4.92248 215.38 4.74277 210.393V166.589ZM37.8319 172.115C37.8319 170.273 38.1689 168.543 38.8428 166.926C39.5167 165.309 40.4377 163.916 41.6058 162.748C42.8189 161.58 44.2116 160.636 45.7841 159.917C47.4015 159.199 49.1087 158.839 50.9058 158.839C52.7029 158.839 54.3877 159.199 55.9602 159.917C57.5326 160.636 58.9029 161.58 60.071 162.748C61.2841 163.916 62.2276 165.309 62.9015 166.926C63.5754 168.543 63.9123 170.273 63.9123 172.115C63.9123 173.912 63.5754 175.62 62.9015 177.237C62.2276 178.809 61.2841 180.202 60.071 181.415C58.9029 182.583 57.5326 183.504 55.9602 184.178C54.3877 184.852 52.7029 185.189 50.9058 185.189C49.1087 185.189 47.4015 184.852 45.7841 184.178C44.2116 183.504 42.8189 182.583 41.6058 181.415C40.4377 180.202 39.5167 178.809 38.8428 177.237C38.1689 175.62 37.8319 173.912 37.8319 172.115ZM150.923 211.067H109.882V188.693H150.923V211.067ZM188.765 211.067H147.723V188.693H188.765V211.067ZM226.607 211.067H185.565V188.693H226.607V211.067ZM264.448 211.067H223.407V188.693H264.448V211.067ZM302.29 211.067H261.249V188.693H302.29V211.067ZM340.132 211.067H299.091V188.693H340.132V211.067ZM337.741 210.933V188.491H362.541C364.473 188.491 366.315 188.154 368.067 187.48C369.819 186.762 371.347 185.796 372.65 184.583C373.998 183.325 375.098 181.864 375.952 180.202C376.806 178.54 377.322 176.72 377.502 174.743V166.724C377.502 164.837 378.041 162.995 379.119 161.198C381.635 157.559 384.893 155.739 388.891 155.739H399.808V173.733C399.808 175.844 400.19 177.799 400.954 179.596C401.763 181.393 402.819 182.988 404.122 184.38C405.469 185.728 407.042 186.807 408.839 187.615C410.681 188.379 412.635 188.761 414.702 188.761V211L412.613 210.933C408.255 210.708 404.189 209.764 400.415 208.102C395.922 206.215 391.991 203.609 388.622 200.285C385.207 203.609 381.276 206.215 376.828 208.102C372.425 209.989 367.663 210.933 362.541 210.933H337.741ZM370.628 225.624C371.302 224.007 372.223 222.591 373.391 221.378C374.604 220.21 375.997 219.267 377.569 218.548C379.187 217.874 380.894 217.537 382.691 217.537C384.533 217.537 386.218 217.874 387.745 218.548C389.318 219.267 390.688 220.21 391.856 221.378C393.069 222.591 394.013 224.007 394.687 225.624C395.361 227.241 395.698 228.949 395.698 230.746C395.698 232.588 395.361 234.295 394.687 235.867C394.013 237.44 393.069 238.81 391.856 239.978C390.688 241.191 389.318 242.135 387.745 242.809C386.218 243.483 384.533 243.82 382.691 243.82C380.894 243.82 379.187 243.483 377.569 242.809C375.997 242.135 374.604 241.191 373.391 239.978C372.223 238.81 371.302 237.44 370.628 235.867C369.954 234.295 369.617 232.588 369.617 230.746C369.617 228.949 369.954 227.241 370.628 225.624ZM341.448 230.746C341.448 228.949 341.785 227.241 342.459 225.624C343.132 224.007 344.053 222.591 345.222 221.378C346.435 220.21 347.827 219.267 349.4 218.548C351.017 217.874 352.724 217.537 354.522 217.537C356.364 217.537 358.048 217.874 359.576 218.548C361.148 219.267 362.519 220.21 363.687 221.378C364.9 222.591 365.843 224.007 366.517 225.624C367.191 227.241 367.528 228.949 367.528 230.746C367.528 232.588 367.191 234.295 366.517 235.867C365.843 237.44 364.9 238.81 363.687 239.978C362.519 241.191 361.148 242.135 359.576 242.809C358.048 243.483 356.364 243.82 354.522 243.82C352.724 243.82 351.017 243.483 349.4 242.809C347.827 242.135 346.435 241.191 345.222 239.978C344.053 238.81 343.132 237.44 342.459 235.867C341.785 234.295 341.448 232.588 341.448 230.746ZM413.694 210.933V188.491H415.042C416.974 188.491 418.794 188.154 420.501 187.48C422.253 186.762 423.803 185.796 425.151 184.583C426.499 183.325 427.599 181.864 428.453 180.202C429.307 178.54 429.801 176.72 429.936 174.743V166.724C429.936 164.837 430.497 162.995 431.62 161.198C434.136 157.559 437.394 155.739 441.392 155.739H452.309V173.733C452.309 175.844 452.691 177.799 453.455 179.596C454.264 181.393 455.32 182.988 456.623 184.38C457.97 185.728 459.543 186.807 461.34 187.615C463.182 188.379 465.136 188.761 467.203 188.761V211L465.114 210.933C460.756 210.708 456.69 209.764 452.916 208.102C448.423 206.215 444.492 203.609 441.123 200.285C437.708 203.609 433.777 206.215 429.329 208.102C424.926 209.989 420.164 210.933 415.042 210.933H413.694ZM426.566 230.611C426.566 228.769 426.903 227.039 427.577 225.422C428.251 223.849 429.172 222.457 430.34 221.243C431.553 220.075 432.946 219.132 434.518 218.413C436.136 217.694 437.843 217.335 439.64 217.335C441.482 217.335 443.167 217.694 444.694 218.413C446.267 219.132 447.637 220.075 448.805 221.243C450.018 222.457 450.962 223.849 451.636 225.422C452.309 227.039 452.646 228.769 452.646 230.611C452.646 232.408 452.309 234.093 451.636 235.665C450.962 237.283 450.018 238.675 448.805 239.843C447.637 241.057 446.267 242 444.694 242.674C443.167 243.348 441.482 243.685 439.64 243.685C437.843 243.685 436.136 243.348 434.518 242.674C432.946 242 431.553 241.057 430.34 239.843C429.172 238.675 428.251 237.283 427.577 235.665C426.903 234.093 426.566 232.408 426.566 230.611ZM464.688 188.491H465.362C467.384 188.491 469.293 188.109 471.091 187.346C472.933 186.582 474.528 185.526 475.875 184.178C477.268 182.83 478.369 181.258 479.178 179.461C479.537 178.517 479.829 177.529 480.054 176.496C479.964 175.552 479.919 174.609 479.919 173.665C479.919 170.475 480.346 167.353 481.199 164.298C482.412 159.715 484.479 155.47 487.399 151.561C490.32 147.607 494.026 144.372 498.519 141.857C502.967 139.251 506.808 137.746 510.043 137.341C513.322 136.937 515.749 136.735 517.321 136.735C520.556 136.735 524.083 137.251 527.901 138.285C531.72 139.318 535.584 141.317 539.493 144.283C543.446 147.248 546.726 150.977 549.332 155.47C551.893 159.917 553.375 163.759 553.78 166.993C554.184 170.228 554.386 172.609 554.386 174.137C554.386 177.372 553.87 180.899 552.836 184.717C551.803 188.536 549.804 192.422 546.838 196.376C543.918 200.285 540.257 203.52 535.854 206.08C531.361 208.641 527.475 210.124 524.195 210.528C520.96 210.888 518.557 211.067 516.984 211.067C513.749 211.067 510.178 210.573 506.269 209.585C502.405 208.551 498.519 206.552 494.61 203.587C493.352 202.688 492.162 201.678 491.038 200.554C487.804 203.654 484.075 206.125 479.851 207.967C475.314 209.944 470.484 210.933 465.362 210.933H464.688V188.491ZM502.697 177.843C503.191 179.686 504.022 181.415 505.191 183.033C506.359 184.605 507.819 185.93 509.571 187.009C511.368 187.997 512.918 188.581 514.221 188.761C515.569 188.896 516.557 188.963 517.186 188.963C518.489 188.963 519.904 188.761 521.432 188.357C522.959 187.952 524.532 187.166 526.149 185.998C527.767 184.785 529.092 183.28 530.125 181.483C531.159 179.686 531.743 178.136 531.878 176.833C532.012 175.53 532.08 174.586 532.08 174.002C532.08 172.654 531.878 171.194 531.473 169.622C531.069 168.049 530.26 166.477 529.047 164.904C527.879 163.287 526.374 161.962 524.532 160.928C522.735 159.895 521.185 159.311 519.882 159.176C518.624 158.996 517.703 158.907 517.119 158.907C515.771 158.907 514.311 159.131 512.738 159.58C511.211 159.985 509.661 160.793 508.088 162.007C506.516 163.175 505.213 164.68 504.18 166.522C503.191 168.274 502.607 169.824 502.428 171.172C502.293 172.475 502.225 173.441 502.225 174.07C502.225 175.372 502.383 176.63 502.697 177.843Z" fill="#111827"/>
<defs>
<linearGradient id="paint0_linear_8890_91" x1="793" y1="1.38051e-06" x2="616" y2="246" gradientUnits="userSpaceOnUse">
<stop offset="0.2" stop-color="#862FE7"/>
<stop offset="0.802885" stop-color="#E81CFF"/>
</linearGradient>
<clipPath id="clip0_8890_91">
<rect width="230.984" height="246" fill="white" transform="translate(584.016)"/>
</clipPath>
</defs>
</svg>
