<svg width="1113" height="238" viewBox="0 0 1113 238" fill="none" xmlns="http://www.w3.org/2000/svg">
<g clip-path="url(#clip0_6856_87)">
<path d="M118.839 0.0297852C53.268 0.0297852 -1.52588e-05 53.3568 -1.52588e-05 119C-1.52588e-05 184.643 53.268 237.97 118.839 237.97C184.409 237.97 237.677 184.643 237.677 119C237.677 53.3568 184.409 0.0297852 118.839 0.0297852ZM118.839 226.047C59.812 226.047 11.91 177.961 11.91 119C11.91 60.039 59.812 11.953 118.839 11.953C177.865 11.953 225.767 60.039 225.767 119C225.767 177.961 177.865 226.047 118.839 226.047Z" fill="black"/>
<path d="M161.244 42.7437C160.851 42.4816 160.327 42.3506 159.804 42.3506C158.233 42.3506 157.055 43.5298 157.055 45.1021V82.3131C157.055 83.6233 156.008 84.6715 154.7 84.6715H82.7159C81.4071 84.6715 80.4909 83.6233 80.3601 82.3131V45.1021C80.3601 44.578 80.2292 44.185 79.9674 43.6609C79.1821 42.3506 77.4807 41.9575 76.1719 42.7437C49.6033 59.1218 33.5052 87.5541 33.5052 119C33.5052 150.446 49.6033 178.878 76.4337 195.256C76.8263 195.518 77.3498 195.649 77.8733 195.649C79.4439 195.649 80.6218 194.47 80.6218 192.898V155.687C80.6218 154.377 81.6688 153.459 82.9776 153.328H154.961C156.27 153.328 157.317 154.377 157.317 155.687V192.898C157.317 193.422 157.448 193.815 157.71 194.339C158.495 195.649 160.197 196.042 161.505 195.256C188.336 178.878 204.434 150.446 204.434 119C204.434 87.5541 188.074 59.1218 161.244 42.7437ZM66.7486 165.645L67.1412 170.099L64.2619 166.562C42.1432 138.654 42.1432 99.2152 64.2619 71.307L66.7486 68.1624L67.1412 67.7694L66.7486 72.3552C66.3559 76.0239 66.2251 79.8236 66.2251 83.6233V154.246C66.2251 158.045 66.4868 161.845 66.7486 165.645ZM157.055 136.819C157.055 138.13 156.008 139.178 154.7 139.178H82.7159C81.4071 139.178 80.4909 138.13 80.3601 136.819V101.181C80.3601 99.8704 81.4071 98.8222 82.7159 98.8222H154.7C156.008 98.8222 157.055 99.8704 157.055 101.181V136.819ZM173.285 166.562L170.405 170.099L170.798 165.645C171.19 161.976 171.321 158.176 171.321 154.377V83.6233C171.321 79.8236 171.19 76.0239 170.798 72.3552L170.667 70.3899L170.536 68.2935V67.7694L173.285 71.307C184.017 84.6715 189.906 101.705 189.906 118.869C189.906 136.033 184.017 153.197 173.285 166.562Z" fill="black"/>
<path d="M416.982 116.904C416.328 116.642 415.543 116.38 415.543 115.593C415.543 115.069 415.804 114.676 416.328 114.414C417.244 114.021 439.886 105.898 439.886 79.1687C439.886 49.4261 419.862 31.7378 386.095 31.7378H304.295V206.524H393.555C419.6 206.524 447.608 188.05 447.608 158.307C447.608 129.875 426.144 119.917 416.982 116.904ZM345.522 67.5075C345.522 66.8524 346.046 66.3283 346.7 66.3283H379.158C389.89 66.3283 397.22 73.5346 397.22 84.2786C397.22 92.6642 390.676 101.705 378.373 101.705H346.7C346.046 101.705 345.522 101.181 345.522 100.526V67.5075ZM379.158 172.065H346.7C346.046 172.065 345.522 171.541 345.522 170.886V136.033C345.522 135.378 346.046 134.854 346.7 134.854H378.373C393.948 134.854 402.847 141.536 402.847 153.329C402.847 165.514 394.602 172.065 379.158 172.065ZM723.895 101.312L717.613 100.002C703.478 96.988 689.735 93.1883 689.735 81.003C689.735 68.8177 701.122 63.3147 712.378 63.3147C725.596 63.3147 738.684 69.2108 748.631 79.4307L774.545 53.7499C763.421 41.4336 743.658 27.283 711.723 27.283C673.245 27.283 647.33 49.1641 647.33 81.7892C647.33 116.249 674.423 129.22 697.196 134.068L703.347 135.378C725.466 140.095 735.936 143.633 735.936 156.211C735.936 167.479 725.858 174.948 710.938 174.948C693.4 174.948 677.825 167.217 666.046 152.673L639.478 178.747C653.613 195.518 672.328 210.717 711.461 210.717C744.836 210.717 778.734 191.326 778.734 154.115C778.603 115.987 752.688 107.339 723.895 101.312ZM1068.76 31.7378V95.6777C1068.76 96.3329 1068.24 96.857 1067.58 96.857H1013.92C1013.27 96.857 1012.75 96.3329 1012.75 95.6777V31.7378H968.771V206.524H1012.75V137.868C1012.75 137.212 1013.27 136.688 1013.92 136.688H1067.58C1068.24 136.688 1068.76 137.212 1068.76 137.868V206.524H1113V31.7378H1068.76ZM880.296 170.755C860.533 170.755 839.2 154.246 839.2 117.952C839.2 84.8027 859.224 67.5075 878.987 67.5075C893.384 67.5075 903.462 73.5346 911.446 86.8991L945.212 64.4939C927.936 39.0752 907.388 27.545 878.726 27.545C822.578 27.545 797.449 73.0105 797.449 117.952C797.449 172.589 830.693 210.717 878.202 210.717C913.54 210.717 929.638 197.746 946.521 173.768L912.493 150.839C904.902 163.155 896.656 170.755 880.296 170.755ZM546.422 27.283C498.389 27.283 466.193 64.1008 466.193 119C466.193 173.899 498.389 210.717 546.422 210.717C594.455 210.717 626.651 173.899 626.651 119C626.651 64.1008 594.455 27.283 546.422 27.283ZM546.422 170.755C522.864 170.755 507.682 150.446 507.682 119C507.682 87.6853 522.864 67.5075 546.422 67.5075C570.111 67.5075 585.424 87.6853 585.424 119C585.424 150.446 570.111 170.755 546.422 170.755Z" fill="black"/>
</g>
<defs>
<clipPath id="clip0_6856_87">
<rect width="1113" height="238" fill="white"/>
</clipPath>
</defs>
</svg>
