<svg width="816" height="139" viewBox="0 0 816 139" fill="none" xmlns="http://www.w3.org/2000/svg">
<path d="M0 136.095C3.48137 90.8546 6.67403 45.5889 10.2997 0.365723C20.9306 0.510097 31.5615 0.365724 42.1925 0.433665C45.0879 0.45065 48.408 1.47826 49.775 4.27233C50.9893 6.31905 50.743 8.79889 50.6581 11.0749C49.7326 23.3043 48.7731 35.5337 47.8985 47.763C67.564 47.7715 87.2294 47.7715 106.895 47.763C108.203 31.9753 109.196 16.1535 110.563 0.374224C124.251 0.552569 137.947 0.272315 151.635 0.510109C148.111 45.6823 144.816 90.8716 141.394 136.061C127.707 136.137 114.019 136.069 100.331 136.095C101.732 116.052 103.337 96.0266 104.798 75.9925C85.1066 76.0689 65.4072 75.9076 45.7163 76.0689C44.3492 96.086 42.668 116.078 41.3094 136.095C27.5368 136.095 13.7726 136.086 0 136.095ZM165.373 26.1493C166.044 17.5548 166.477 8.93478 167.36 0.365723C178.271 0.527082 189.182 0.331753 200.085 0.459142C203.617 0.306275 206.887 3.03242 206.853 6.66726C206.827 13.1556 206.037 19.627 205.647 26.1069C192.222 26.1408 178.798 26.0729 165.373 26.1493ZM230.186 41.8861C241.997 36.4594 255.218 35.5422 268.023 35.0496C285.633 34.8712 303.252 36.5358 320.549 39.8564C320.039 46.676 319.241 53.4701 318.715 60.2897C303.405 57.4956 287.9 55.1601 272.294 55.5508C268.031 55.7036 263.675 55.7291 259.549 56.9605C258.224 57.4446 256.551 57.9542 256.135 59.4744C255.311 61.5975 257.239 63.364 258.759 64.5105C262.605 67.1772 267.063 68.7398 271.317 70.6167C285.098 76.8502 299.703 81.9288 311.879 91.1348C315.709 94.1922 319.105 98.0648 320.625 102.804C323.003 110.252 320.939 119.016 315.225 124.426C309.349 130.082 301.316 132.672 293.505 134.32C281.226 136.766 268.617 137.037 256.144 136.485C241.42 135.95 226.688 135.152 212.083 133.156C212.363 125.666 212.839 118.09 213.382 110.685C215.072 111.458 216.932 111.721 218.757 112.01C233.421 114.26 248.204 116.188 263.072 116.129C267.072 115.899 271.207 116.052 275.028 114.685C277.015 114.056 278.416 111.662 277.312 109.725C275.792 107.466 273.151 106.371 270.799 105.224C260.483 100.774 249.962 96.8249 239.722 92.1964C232.114 88.6975 224.37 84.6635 218.901 78.1326C214.206 72.5955 212.516 64.7228 214.639 57.7588C216.796 50.2684 223.291 44.9435 230.186 41.8861ZM618.324 36.2725C641.437 33.5294 664.881 35.6526 687.688 39.8649C687.094 46.693 686.389 53.521 685.795 60.3491C668.558 57.0285 650.956 54.6421 633.371 55.814C630.076 56.1707 626.425 56.3576 623.75 58.5572C622.349 60.1368 623.283 62.4638 624.761 63.6273C627.639 66.0731 631.222 67.4659 634.636 69.0031C646.184 73.9967 657.876 78.7101 668.991 84.638C674.841 87.8992 680.768 91.568 684.776 97.0712C690.533 104.664 689.811 116.222 683.46 123.245C678.289 128.978 670.774 131.865 663.446 133.691C647.143 137.556 630.237 136.91 613.637 136.095C602.123 135.56 590.618 134.66 579.18 133.207C579.443 125.827 579.995 118.464 580.462 111.101C598.701 114.031 617.178 116.876 635.714 115.865C638.669 115.483 642.567 115.611 644.435 112.859C646.014 109.649 642.439 107.381 639.968 106.235C626.909 100.162 613.145 95.6614 600.332 89.0457C593.556 85.3853 586.771 80.7653 583.129 73.7504C578.883 65.3937 580.802 54.3703 587.807 48.0773C596.12 40.5443 607.49 37.7502 618.324 36.2725ZM373.211 37.5719C389.692 33.8861 407.676 34.2428 423.02 41.9116C433.005 46.7354 441.514 55.0752 445.301 65.6315C448.765 74.8715 448.612 85.0032 447.143 94.6338C419.759 94.7867 392.375 94.6423 364.991 94.7017C365.467 102.6 371.258 109.173 378.221 112.383C387.501 116.715 398.056 117.318 408.143 116.766C420.141 116.256 432.063 114.524 443.806 112.052C442.702 118.923 441.751 125.81 440.605 132.672C422.357 137.623 403.235 138.727 384.428 137.632C369.228 136.222 353.01 133.564 341.038 123.296C331.604 115.424 326.977 103.008 327.07 90.9055C326.679 77.5551 332.615 64.5784 341.649 54.9648C349.962 45.9626 361.349 40.2131 373.211 37.5719ZM378.951 58.192C372.328 61.6485 368.125 68.485 366.639 75.6613C382.704 75.9585 398.778 75.7207 414.851 75.7802C415.021 68.57 411.565 60.9096 404.866 57.6569C396.799 53.8013 386.882 54.1325 378.951 58.192ZM721.976 44.5613C734.143 37.6398 748.383 35.2279 762.232 35.2874C777.958 35.6611 794.346 41.1473 805.011 53.1389C814.852 64.2132 817 80.2728 814.13 94.379C813.153 95.0414 811.795 94.5659 810.7 94.7187C784.521 94.6593 758.335 94.7102 732.157 94.7017C732.488 102.328 737.981 108.757 744.63 112.01C753.97 116.621 764.72 117.352 774.969 116.774C787.069 116.256 799.101 114.566 810.929 112.018C809.85 118.855 808.781 125.691 807.83 132.553C794.999 136.367 781.549 137.572 768.218 137.997C755.388 138.328 742.473 137.292 730 134.184C719.36 131.381 708.882 126.014 702.242 116.986C694.592 106.668 692.783 92.9353 695.135 80.536C698.396 65.4531 708.551 52.0943 721.976 44.5613ZM748.137 57.2068C740.452 60.2981 735.205 67.7631 733.804 75.7887C749.895 75.7972 765.994 75.7972 782.093 75.7887C782.025 68.8757 779.053 61.6145 772.812 58.1155C765.314 54.0561 755.957 54.0731 748.137 57.2068ZM460.678 41.0793C480.76 38.7693 500.926 36.901 521.143 36.5018C531.036 36.7056 541.047 36.7481 550.752 38.9222C557.112 40.3235 563.48 43.3808 567.233 48.918C571.657 55.4489 572.404 63.7122 571.852 71.381C570.477 93.0966 569.271 114.829 567.785 136.536C555.278 136.511 542.77 136.502 530.271 136.545C531.477 114.54 532.997 92.5531 534.279 70.5572C534.407 66.8374 533.719 62.5062 530.518 60.1708C526.79 57.606 522.052 57.4956 517.696 57.5126C510.818 57.5211 503.949 58.192 497.139 59.1092C495.628 84.8673 493.963 110.617 492.605 136.375C480.021 136.715 467.428 136.417 454.845 136.528C456.611 104.698 458.7 72.8927 460.678 41.0793ZM157.001 136.078C159.472 103.169 161.858 70.26 164.371 37.3511C177.796 37.3935 191.22 37.3511 204.653 37.3766C202.259 70.26 199.771 103.135 197.376 136.027C183.918 136.171 170.46 136.069 157.001 136.078Z" fill="black"/>
</svg>
