<svg width="945" height="362" viewBox="0 0 945 362" fill="none" xmlns="http://www.w3.org/2000/svg">
<g clip-path="url(#clip0_6856_94)">
<path d="M180.418 361.586C280.151 361.586 361.008 280.733 361.008 181C361.008 81.2673 280.155 0.414062 180.418 0.414062C80.6806 0.414062 -0.172607 81.2673 -0.172607 181C-0.172607 280.733 80.6806 361.586 180.418 361.586Z" fill="black"/>
<path d="M224.391 244.552H186.993V103.208H173.124V258.499H186.993V258.408H224.391V244.552Z" fill="white"/>
<path d="M317.736 186.784H224.61V172.915H331.376C331.518 175.596 331.586 178.282 331.586 181C331.586 264.493 263.902 332.173 180.413 332.173C96.9245 332.173 29.2402 264.493 29.2402 181C29.2402 97.5066 96.9245 29.8269 180.418 29.8269C182.619 29.8269 184.815 29.8727 186.998 29.9687L186.979 43.7325C184.794 43.6316 182.606 43.5813 180.418 43.5816C104.525 43.5816 42.9949 105.107 42.9949 181C42.9949 256.898 104.52 318.418 180.418 318.418C254.243 318.418 314.469 260.206 317.699 187.173L317.736 186.784Z" fill="white"/>
<path d="M124.027 145.048C129.66 145.048 135.064 142.81 139.047 138.827C143.031 134.843 145.269 129.44 145.269 123.806C145.269 118.172 143.031 112.768 139.047 108.785C135.064 104.801 129.66 102.563 124.027 102.563C118.393 102.563 112.989 104.801 109.006 108.785C105.022 112.768 102.784 118.172 102.784 123.806C102.784 129.44 105.022 134.843 109.006 138.827C112.989 142.81 118.393 145.048 124.027 145.048Z" fill="white"/>
<path d="M451 324.455H658.308V261.826H527.113V37.5594H451V324.455ZM908.781 57.7594C885.015 39.3389 854.413 30 817.892 30C774.528 30 738.295 43.3245 713.103 68.5028C686.808 94.8209 672.885 133.588 672.885 180.614C672.885 230.853 687.602 273.246 714.323 299.954C735.303 320.933 763.252 332 795.236 332C865.447 332 881.597 289.901 881.597 289.901V324.441H945V162.414H818.789V213.116H876.878C876.878 213.116 877.436 276.952 817.481 276.952C802.249 276.952 788.679 271.422 778.241 260.98C761.973 244.722 753.372 217.322 753.372 181.805C753.372 122.977 776.748 87.8571 815.886 87.8571C840.335 87.8571 858.713 102.873 863.425 125.632H944.169C939.986 92.5634 930.915 75.3269 908.781 57.7594Z" fill="black"/>
</g>
<defs>
<clipPath id="clip0_6856_94">
<rect width="945" height="362" fill="white"/>
</clipPath>
</defs>
</svg>
