<?xml version="1.0" encoding="UTF-8"?>
<svg xmlns="http://www.w3.org/2000/svg" xmlns:xlink="http://www.w3.org/1999/xlink" xmlns:xodm="http://www.corel.com/coreldraw/odm/2003" xml:space="preserve" width="135.254mm" height="157.556mm" version="1.1" style="shape-rendering:geometricPrecision; text-rendering:geometricPrecision; image-rendering:optimizeQuality; fill-rule:evenodd; clip-rule:evenodd" viewBox="0 0 13183.62 15357.5">
 <defs>
  <style type="text/css">
   
    .fil0 {fill:#009AAE}
    .fil1 {fill:#2B2A29;fill-rule:nonzero}
   
  </style>
 </defs>
 <g id="Layer_x0020_1">
  <metadata id="CorelCorpID_0Corel-Layer"></metadata>
  <path class="fil0" d="M10034.69 5744.15c-468.14,288.36 -979.23,-546.35 -1677.78,-650.86 -787.47,-117.82 -1392.55,276.54 -1795.16,680.86 -1159.5,1164.46 -2071.18,2116.81 -3117.08,3123.95 -557.86,537.18 -1666.72,1359.04 -2534.14,1138.42 -1187.48,-302.04 -729.24,-1721.39 -308.71,-2537.26 93.48,-181.35 396.61,-684.1 493.57,-764.1 52.66,87.36 -148.89,539.85 188.25,1018.35 390.2,553.81 1340.24,581.04 1746.18,-94.56 169.21,-281.61 205.2,-758.46 35.51,-1048.26 264.35,17.9 319.88,189.14 754.6,85.4 254.88,-60.82 453.63,-208.51 581.71,-373.97 333.73,-431.1 298.78,-1024.18 -57.82,-1396.92 -506.44,-529.37 -1525.95,-408.58 -1787.25,455.3 -95.75,316.57 -5.43,535.43 86.28,790.43 -354.25,-82.56 -784.49,-295.72 -1277.95,209.18 -85.91,87.91 -119.23,135.21 -188.45,224.12 -176.74,226.97 -191.97,125 -579.34,736.54 -445.62,703.49 -822.97,1722.97 -436.86,2720.93 242.46,626.68 745.99,1048.1 1357.84,1224.97 195.79,56.59 142.35,33.24 208.31,227.25 37.21,109.41 77.7,197.72 131.85,306.7 825.41,1660.86 2850.95,1615.78 4261.4,552.33 92.93,-70.07 172.72,-137.5 257.36,-206.86 87.34,-71.57 165.31,-174.39 265.21,-227.61 73.59,345.98 323.97,638.12 581.18,836.24 595.06,458.36 1584.32,437.91 2161.52,-23.66 329.7,-263.65 2039.23,-2003.62 2492.08,-2460.96 213.07,-215.17 493.9,-573.38 849.5,-567.31 308.59,5.27 280.2,175.82 457.1,254.11 -33.55,-622.81 -723.76,-1367.48 -1463.01,-1349.53 -785.96,19.09 -1310.74,690.55 -1740.92,1106.44 -344.55,333.11 -1916.18,1966.23 -2127.59,2100.71 -353.34,224.76 -763.62,254.91 -1052.39,-50.08 30.28,-89.89 927.39,-961.22 1077.79,-1109.67 362.33,-357.62 697.8,-684.3 1107.72,-1110.27 156.15,-162.27 368.19,-361.37 544.6,-538.75 301.34,-302.96 829.82,-895.58 1173.48,-1042.15 449.94,-191.9 663.12,98.22 811.34,168.42 -136.71,-784.68 -1368.08,-1669.2 -2575.07,-903.45 -436.09,276.67 -1139.36,1037.7 -1563.5,1455.06 -175.52,172.71 -351.26,336.6 -515.76,515.58 -328.59,357.52 -889.12,865.08 -1251.65,1250.18 -221.09,234.85 -541.95,522.16 -815.43,730.72 -477.44,364.08 -1493.87,1065.28 -2190.55,725.49 -177.15,-86.39 -418.57,-355.41 -480.27,-549.05 953.2,-44.87 1634.48,-384.24 2223.07,-880.93 648.36,-547.13 2472.99,-2428.51 3114.42,-3075.46 262.97,-265.23 504.07,-514.87 776.44,-770.34 241.06,-226.1 540.38,-559.54 1061.42,-523.67 472.95,32.57 724.64,311.18 1302.93,128.09 388.9,-123.14 639.68,-426.71 743.51,-802.53 325.68,-1178.95 -939.99,-2058.18 -1711.33,-2875.32 -124.79,-132.2 -229.24,-215.3 -387.02,-386.61l-775.82 -771.92c-221.02,-239.87 -631.39,-527.26 -609.18,-928.08 14.39,-259.53 189.95,-365.18 300.92,-489.79 -471.52,13.43 -1212.3,573.65 -1350.43,1227.36 -171.93,813.74 461.11,1400.51 815.7,1756.05 446.58,447.77 872.49,865.9 1292.41,1286.63 220.46,220.88 424.56,422.1 646.55,642.81 135.81,135.01 547.27,488.04 468.69,831.3z"></path>
  <path class="fil1" d="M12903.17 14542.66l0 443.81 -348.41 0c-83.55,0 -159.47,-34.13 -214.49,-89.14l-0.23 -0.23c-55.01,-55.02 -89.14,-130.94 -89.14,-214.49l0 -484.88 120.36 0 0 484.88c0,50.59 20.58,96.5 53.76,129.75 33.25,33.18 79.16,53.76 129.75,53.76l228.05 0 0 -323.45 120.36 0zm-12273.42 -267.68l348.95 0 0 120.36 -348.95 0 0 -120.36zm3725.03 0l174.9 0 0 120.36 -174.9 0 0 -120.36zm8218.49 880.06l174.9 0 0 120.36 -174.9 0 0 -120.36zm-660.8 -880.06l174.9 0 0 120.36 -174.9 0 0 -120.36zm-1839.11 0l348.95 0 0 120.36 -348.95 0 0 -120.36zm-1075.14 0l174.9 0 0 120.36 -174.9 0 0 -120.36zm-2602.09 244.97l213.36 0c60.12,0 117.03,11.27 169.07,34.26 50.89,22.49 96.67,56.13 135.73,101.29l149.97 173.52 1.18 1.17c13.17,16.07 33.11,35.27 54.05,48.73 11.73,7.53 22.46,12.8 29.38,12.96l0.33 0 224.47 0 0 -694.17 120.36 0 0 814.53 -344.83 0 -782.88 0c-113.22,0 -216.02,-46.16 -290.47,-120.61 -2.16,-2.16 -4.3,-4.35 -6.41,-6.56l0 127.17 -60.18 0c-113.22,0 -216.02,-46.16 -290.47,-120.61l-0.25 -0.25 0 120.87 -60.18 0c-113.22,0 -216.02,-46.16 -290.47,-120.61l-0.25 -0.25 0 120.87 -263.28 0c-113.22,0 -216.02,-46.16 -290.47,-120.61l-0.25 -0.25 0 120.87 -263.28 0c-87.5,0 -168.9,-27.71 -235.87,-74.76 -68.64,-48.24 -122.01,-117.01 -151.05,-197.19l-0.7 -1.88c-6.4,-19.63 -21.24,-39 -40.91,-53.44 -17.7,-12.99 -38.85,-21.36 -60.51,-21.36l-8.19 0c-26.73,0 -51.09,10.99 -68.76,28.66l-0.12 -0.12c-17.6,17.67 -28.54,42.05 -28.54,68.87l0 3.83c0,27.78 11.41,53.08 29.79,71.46 18.37,18.37 43.68,29.79 71.46,29.79l96.6 0 0 120.36 -96.6 0c-61,0 -116.41,-24.91 -156.55,-65.05 -40.14,-40.14 -65.05,-95.55 -65.05,-156.55l0 -3.83c0,-59.78 24.49,-114.17 63.92,-153.62l0 -0.23c39.44,-39.44 93.9,-63.92 153.85,-63.92l8.19 0c48.51,0 94.3,17.55 131.49,44.87 39.6,29.08 70.11,70.07 84.17,113.16 20.69,55.92 58.31,104 106.63,137.95 47.16,33.14 104.71,52.66 166.76,52.66l142.92 0 0 -290.72 0 -58.33 0 -0.18 120.36 0 0 0.18 0 58.33c0,80.01 32.67,152.7 85.35,205.38 52.68,52.68 125.37,85.35 205.38,85.35l142.92 0 0 -290.72 0 -58.33 0 -0.18 120.36 0 0 0.18 0 58.33c0,80.02 32.66,152.69 85.35,205.38 39.11,39.11 89.24,67.18 145.2,79.05l0 -284.43 0 -58.33 0 -0.18 120.36 0 0 0.18 0 58.33c0,80.02 32.66,152.69 85.35,205.38 39.11,39.11 89.24,67.18 145.2,79.05l0 -342.93 120.36 0 0 0.18 6.16 0 0 58.33c0,80.02 32.66,152.69 85.35,205.38 52.68,52.68 125.36,85.35 205.38,85.35l593.68 0 -136.44 -157.88c-26.94,-31.16 -58.45,-54.34 -93.43,-69.79 -36.31,-16.04 -76.95,-23.91 -120.64,-23.91l-213.36 0 0 -120.36zm-2701.83 22.71l0 510.97c0,83.68 -34.14,159.69 -89.16,214.7 -55.01,55.01 -131,89.16 -214.7,89.16l-36.79 0 0 -120.36 36.79 0c50.47,0 96.36,-20.64 129.61,-53.89 33.25,-33.25 53.89,-79.14 53.89,-129.61l0 -510.97 120.36 0zm-2265.13 -24.98l0 31.47 1.54 50.36c2.48,81.29 35.99,155.17 89.3,208.48 51.82,51.81 122.57,83.9 201.67,83.9l104.24 0 0 -694.17 120.36 0 0 814.53 -224.6 0c-112.58,0 -213.16,-45.58 -286.77,-119.16 -1.93,-1.93 -3.85,-3.9 -5.74,-5.87l0 100.05 -737.64 0c-113.24,0 -216.03,-46.16 -290.47,-120.61 -74.45,-74.44 -120.61,-177.23 -120.61,-290.47l0 -7.41c0,-38.87 5.68,-77.07 16.29,-113.74 10.82,-37.45 26.79,-72.66 47.02,-104.74l101.55 63.94c-14.45,22.91 -25.78,47.84 -33.39,74.18 -7.22,24.98 -11.1,51.95 -11.1,80.37l0 7.41c0,80.03 32.67,152.7 85.35,205.38 52.67,52.67 125.35,85.35 205.38,85.35l617.28 0 0 -349.23 120.36 0zm1247.29 24.98l0 0.18 0 58.33c0,80.02 32.66,152.69 85.35,205.38 39.11,39.11 89.24,67.18 145.2,79.05l0 -284.43 0 -58.33 0 -0.18 120.36 0 0 0.18 0 58.33c0,80.02 32.66,152.69 85.35,205.38 39.11,39.11 89.24,67.18 145.2,79.05l0 -342.93 120.36 0 0 469.59 -60.18 0c-113.22,0 -216.02,-46.16 -290.47,-120.61l-0.25 -0.25 0 120.87 -60.18 0c-113.22,0 -216.02,-46.16 -290.47,-120.61l-0.25 -0.25 0 120.87 -224.6 0c-113.12,0 -215.61,-46.09 -289.93,-120.42 -74.26,-74.26 -120.41,-177.04 -120.91,-290.43l-1.78 -403.44 119.87 -0.47 1.78 403.44c0.35,80.05 33.22,152.91 86.13,205.81 52.55,52.56 124.97,85.15 204.84,85.15l104.24 0 0 -290.72 0 -58.33 0 -0.18 120.36 0zm4928.84 444.02l0 -788.96 120.36 0 0 788.96 -120.36 0zm1824.87 -0.21l-685.66 0c-68.84,0 -132.47,-23.08 -183.5,-61.9l0 79.37c0,96.85 -39.58,184.85 -103.33,248.6 -63.75,63.75 -151.75,103.33 -248.6,103.33 -96.83,0 -184.85,-39.58 -248.6,-103.33 -63.75,-63.75 -103.33,-151.75 -103.33,-248.6l0 -30.64c0,-96.83 39.58,-184.85 103.33,-248.6 63.75,-63.75 151.77,-103.33 248.6,-103.33l0 120.36c-63.62,0 -121.51,26.07 -163.5,68.07 -41.99,41.99 -68.07,99.88 -68.07,163.5l0 30.64c0,63.62 26.07,121.51 68.07,163.5 41.99,41.99 99.88,68.07 163.5,68.07 63.62,0 121.51,-26.07 163.5,-68.07 41.99,-41.99 68.07,-99.88 68.07,-163.5l0 -321.34 0 -139.91 0 -3.26 120.36 0 0 3.26 0 139.91c0,50.49 20.64,96.37 53.88,129.62 15.21,15.21 33.05,27.76 52.77,36.92 15.73,-74.26 52.97,-140.77 104.83,-192.65 69.81,-69.81 166.18,-113.16 272.23,-113.16 106.05,0 202.42,43.35 272.23,113.16 55.78,55.79 94.67,128.53 108.04,209.61l5.17 0 0 120.36zm-642.93 -120.36l514.99 0c-11.73,-47.82 -36.52,-90.67 -70.36,-124.51 -48.05,-48.05 -114.31,-77.89 -187.14,-77.89 -72.83,0 -139.08,29.84 -187.14,77.89 -33.83,33.84 -58.63,76.69 -70.36,124.51zm922.83 58.46l0 129.06c0,83.69 -34.13,159.68 -89.16,214.71 -55.02,55.02 -130.99,89.15 -214.7,89.15l-36.79 0 0 -120.36 36.79 0c50.48,0 96.36,-20.64 129.61,-53.88 33.27,-33.27 53.89,-79.14 53.89,-129.62l0 -371.03 0 -113.84 0 -29.33 120.36 0 0 29.33 0 113.84c0,50.49 20.64,96.37 53.88,129.62 33.25,33.25 79.13,53.88 129.62,53.88l163.92 0c-8.03,-20.78 -12.44,-43.32 -12.44,-66.83l0 -38.25c0,-59.78 24.49,-114.17 63.92,-153.62l0.23 -0.23c39.45,-39.44 93.84,-63.92 153.62,-63.92l8.19 0c60.74,0 116.08,24.91 156.32,65.05l0.23 0.23c40.14,40.24 65.05,95.59 65.05,156.32l0 221.61 -27.14 0 -233.24 0 -338.67 0c-68.85,0 -132.47,-23.08 -183.5,-61.9zm662.19 -58.46l0 -101.25c0,-27.94 -11.33,-53.24 -29.55,-71.46l-0.23 -0.23c-18.22,-18.23 -43.52,-29.55 -71.46,-29.55l-8.19 0c-26.82,0 -51.2,10.94 -68.87,28.54 -17.6,17.67 -28.54,42.05 -28.54,68.87l0 38.25c0,18.41 7.5,35.15 19.55,47.27 12.12,12.06 28.86,19.55 47.27,19.55l140.02 0zm1346.7 -610.59l-293.62 259.99c118.19,18.1 253.62,96.04 277.98,351.4l328.37 0 0 -349.23 120.36 0 0 469.59 -1195.41 0c-113.24,0 -216.03,-46.16 -290.47,-120.6 -74.45,-74.45 -120.61,-177.24 -120.61,-290.48l0 -7.41c0,-38.87 5.68,-77.07 16.29,-113.74 10.82,-37.45 26.79,-72.66 47.02,-104.74l101.55 63.94c-14.45,22.91 -25.78,47.84 -33.39,74.18 -7.22,24.98 -11.1,51.95 -11.1,80.37l0 7.41c0,80.03 32.66,152.7 85.35,205.39 52.66,52.66 125.35,85.34 205.38,85.34l624.88 0c-34.53,-258 -228.45,-241.04 -289.35,-229.09l-81.71 -92.17 429.06 -379.92 79.44 89.79z"></path>
 </g>
</svg>
