<svg width="132" height="24" viewBox="0 0 132 24" fill="none" xmlns="http://www.w3.org/2000/svg">
<path d="M12 17.5198L16.15 20.0298C16.91 20.4898 17.84 19.8098 17.64 18.9498L16.54 14.2298L20.21 11.0498C20.88 10.4698 20.5199 9.36977 19.6399 9.29977L14.81 8.88977L12.92 4.42977C12.58 3.61977 11.42 3.61977 11.08 4.42977L9.18995 8.87977L4.35995 9.28977C3.47995 9.35977 3.11995 10.4598 3.78995 11.0398L7.45995 14.2198L6.35995 18.9398C6.15995 19.7998 7.08995 20.4798 7.84995 20.0198L12 17.5198V17.5198Z" fill="#FFBB00"/>
<path d="M39 17.5198L43.15 20.0298C43.91 20.4898 44.84 19.8098 44.64 18.9498L43.54 14.2298L47.21 11.0498C47.88 10.4698 47.5199 9.36977 46.6399 9.29977L41.81 8.88977L39.92 4.42977C39.58 3.61977 38.42 3.61977 38.08 4.42977L36.19 8.87977L31.36 9.28977C30.48 9.35977 30.12 10.4598 30.79 11.0398L34.46 14.2198L33.36 18.9398C33.16 19.7998 34.09 20.4798 34.85 20.0198L39 17.5198V17.5198Z" fill="#FFBB00"/>
<path d="M66 17.5198L70.15 20.0298C70.91 20.4898 71.84 19.8098 71.64 18.9498L70.54 14.2298L74.21 11.0498C74.88 10.4698 74.5199 9.36977 73.6399 9.29977L68.81 8.88977L66.92 4.42977C66.58 3.61977 65.42 3.61977 65.08 4.42977L63.19 8.87977L58.36 9.28977C57.48 9.35977 57.12 10.4598 57.79 11.0398L61.46 14.2198L60.36 18.9398C60.16 19.7998 61.09 20.4798 61.85 20.0198L66 17.5198V17.5198Z" fill="#FFBB00"/>
<path d="M93 17.5198L97.15 20.0298C97.91 20.4898 98.84 19.8098 98.64 18.9498L97.54 14.2298L101.21 11.0498C101.88 10.4698 101.52 9.36977 100.64 9.29977L95.81 8.88977L93.92 4.42977C93.58 3.61977 92.42 3.61977 92.08 4.42977L90.19 8.87977L85.36 9.28977C84.48 9.35977 84.12 10.4598 84.79 11.0398L88.46 14.2198L87.36 18.9398C87.16 19.7998 88.09 20.4798 88.85 20.0198L93 17.5198V17.5198Z" fill="#FFBB00"/>
<path d="M120 17.5198L124.15 20.0298C124.91 20.4898 125.84 19.8098 125.64 18.9498L124.54 14.2298L128.21 11.0498C128.88 10.4698 128.52 9.36977 127.64 9.29977L122.81 8.88977L120.92 4.42977C120.58 3.61977 119.42 3.61977 119.08 4.42977L117.19 8.87977L112.36 9.28977C111.48 9.35977 111.12 10.4598 111.79 11.0398L115.46 14.2198L114.36 18.9398C114.16 19.7998 115.09 20.4798 115.85 20.0198L120 17.5198V17.5198Z" fill="#FFBB00"/>
</svg>
